<?xml version="1.0" encoding="UTF-8" standalone="no"?>
<!-- Created with Inkscape (http://www.inkscape.org/) -->

<svg
   version="1.1"
   id="svg1"
   width="2063.4265"
   height="1941.3307"
   viewBox="0 0 2063.4266 1941.3307"
   sodipodi:docname="4i.svg"
   inkscape:version="1.3.2 (091e20ef0f, 2023-11-25)"
   xmlns:inkscape="http://www.inkscape.org/namespaces/inkscape"
   xmlns:sodipodi="http://sodipodi.sourceforge.net/DTD/sodipodi-0.dtd"
   xmlns="http://www.w3.org/2000/svg"
   xmlns:svg="http://www.w3.org/2000/svg">
  <defs
     id="defs1" />
  <sodipodi:namedview
     id="namedview1"
     pagecolor="#ffffff"
     bordercolor="#666666"
     borderopacity="1.0"
     inkscape:showpageshadow="2"
     inkscape:pageopacity="0.0"
     inkscape:pagecheckerboard="0"
     inkscape:deskcolor="#d1d1d1"
     inkscape:zoom="0.39457471"
     inkscape:cx="1032.7575"
     inkscape:cy="970.66534"
     inkscape:window-width="1920"
     inkscape:window-height="1012"
     inkscape:window-x="0"
     inkscape:window-y="40"
     inkscape:window-maximized="1"
     inkscape:current-layer="g1" />
  <g
     id="g1"
     inkscape:groupmode="layer"
     inkscape:label="1"
     transform="translate(0,0.15995145)">
    <path
       id="path2"
       d="m 1580.04,943.98269 c -1.8534,17.592 -2.8534,35.44667 -2.8534,53.53867 V 1439.192 c 0,271.0907 214.72,491.9294 483.36,501.9788 1.8667,-17.6 2.88,-35.4547 2.88,-53.5495 v -441.6706 c 0,-271.088 -214.76,-491.92134 -483.3866,-501.96801"
       style="fill:#009fe3;fill-opacity:1;fill-rule:nonzero;stroke:none;stroke-width:0.133333" />
    <path
       id="path3"
       d="m 17.712,-0.15995145 h 6.256266 c 8.743733,0.85333332 17.501066,1.19999995 26.281199,1.05333331 1.1584,-0.0133333 2.3276,0.08 3.507867,0.28000004 1.04,0.1733333 2.222933,0.3199999 3.519733,0.3999999 42.032266,2.7866666 82.964265,10.8666662 122.785595,24.1999992 4.13867,1.386667 8.26534,2.76 12.39334,4.16 0.70133,0.226667 1.38,0.506667 2.03466,0.84 0.77067,0.386667 1.51867,0.666667 2.256,0.853333 0.93467,0.226667 1.836,0.586667 2.70134,1.04 1.02799,0.546667 2.16266,0.986667 3.41466,1.346667 0.81733,0.226667 1.57733,0.573333 2.27867,1.053333 0.57333,0.386667 1.19333,0.653334 1.87066,0.8 2.38534,0.546667 4.724,1.426667 7.004,2.626667 0.35067,0.186667 0.724,0.28 1.10934,0.253333 0.50266,-0.02667 0.972,0.09333 1.38,0.36 2.116,1.346667 4.268,2.413334 6.44266,3.213333 1.824,0.666667 3.53067,1.4 5.13334,2.2 1.672,0.826667 3.332,1.64 4.99066,2.453334 0.30534,0.133333 0.58534,0.32 0.84267,0.52 0.292,0.226666 0.62,0.333333 0.98267,0.32 0.432,-0.02667 0.82933,0.06667 1.21466,0.253333 l 16.12267,8.026666 c 0.34,0.173334 0.62,0.413334 0.84267,0.72 0.18666,0.266667 0.43333,0.48 0.736,0.64 3.75333,1.8 7.48266,3.64 11.17733,5.493334 0.99467,0.506666 1.36933,1.426666 2.33867,1.786666 2.02266,0.76 3.89333,1.733334 5.612,2.933334 1.01733,0.693333 2.10533,1.333333 3.27466,1.906666 1.204,0.586667 2.30267,1.186667 3.308,1.826667 1.496,0.96 3.028,1.893333 4.58267,2.8 1.392,0.8 2.724,1.653333 3.99867,2.533333 1.27466,0.893333 2.584,1.773333 3.92933,2.613333 11.42267,7.213333 22.48133,14.946667 33.18,23.199997 4.93467,3.8 9.868,7.62667 14.80133,11.50667 2.012,1.57333 3.556,3.54667 5.61333,4.96 2.91067,1.97333 4.688,4.49333 7.424,6.34667 1.356,0.93333 2.59467,1.96 3.71734,3.10666 2.68933,2.73334 5.81066,6.6 9.01466,8.36 0.50267,0.28 0.95867,0.62667 1.36667,1.04 6.256,6.30667 12.55733,12.61333 18.88267,18.92 0.11733,0.10667 0.2,0.24 0.25733,0.38667 0.0707,0.14666 0.11733,0.32 0.15333,0.49333 0.0573,0.4 0.232,0.73333 0.52534,1.01333 2.95733,2.98667 5.96266,5.96 8.99066,8.96 1.29867,1.29334 1.57734,2.86667 2.992,4.08 1.94267,1.65334 3.62534,3.45334 5.052,5.4 1.85867,2.54667 4.00934,4.73334 6.00934,7.2 15.9,19.53334 29.62666,38.97334 41.17866,58.29334 1.016,1.70666 1.824,3.56 2.94534,5.14666 1.56666,2.22667 2.47866,4.82667 4.06933,7.09334 0.70133,0.98666 1.33333,2.09333 1.89333,3.28 0.59734,1.25333 1.264,2.45333 2.01067,3.61333 0.784,1.22667 1.49733,2.46667 2.14133,3.73333 4.488,8.86667 8.65067,17.18667 12.48533,24.93333 0.24667,0.50667 0.40934,1.02667 0.48,1.58667 0.0347,0.29333 0.10534,0.53333 0.18667,0.70667 1.532,3.09333 3.09867,6.18666 4.67733,9.28 0.456,0.89333 -0.012,1.50666 0.584,2.49333 0.948,1.58667 1.78934,3.30667 2.52534,5.16 2.876,7.21333 5.448,13.98667 7.70533,20.32 0.67733,1.88 1.368,3.72 2.08133,5.53333 0.724,1.82667 1.40134,3.69334 2.04534,5.6 17.19866,50.94667 26.284,104.66667 26.236,158.56 -0.10534,136.57733 -0.10534,273.00799 -0.0227,409.32132 0,0.39867 0.19867,0.596 0.596,0.596 h 429.39999 c 0.22267,0 0.39733,-0.17466 0.39733,-0.39733 V 442.0267 c 0,-0.4 0.19867,-0.61333 0.596,-0.61333 50.55469,-1.93333 100.29199,3.37333 149.20939,15.90667 1.24,0.30666 1.9533,1.17333 3.344,0.86666 0.4786,-0.10666 0.912,0.0133 1.2866,0.33334 l 0.292,0.26666 c 0.3974,0.36 0.924,0.50667 1.4374,0.44 0.644,-0.0933 1.2053,0.08 1.684,0.53334 0.3973,0.38666 0.8653,0.52 1.4146,0.41333 1.684,-0.32 2.748,0.88 4.3614,1.24 3.332,0.74667 6.5346,1.65333 9.6333,2.74667 4.9573,1.72 9.7747,3.36 14.452,4.89333 0.2453,0.08 0.4907,0.10667 0.736,0.0667 0.432,-0.0533 0.772,0.0933 1.0053,0.48 0.2227,0.38666 0.5614,0.57333 1.0054,0.58666 l 1.2386,0.0133 c 0.3627,0.0133 0.7134,0.16 0.9587,0.44 0.34,0.37333 0.7373,0.54666 1.216,0.48 0.4093,-0.0533 0.784,0.0133 1.1347,0.21333 1.4973,0.84 2.6426,1.44 4.4893,1.94667 1.2973,0.34666 2.48,0.93333 3.532,1.73333 0.292,0.22667 0.6067,0.32 0.9693,0.26667 l 0.468,-0.0533 c 0.4094,-0.0533 0.748,0.0667 1.0174,0.38667 0.408,0.48 0.9466,0.66667 1.5906,0.56 0.3854,-0.0533 0.748,0.0133 1.0867,0.18667 0.8307,0.44 1.6253,0.85333 2.3733,1.22666 1.7307,0.86667 3.5427,0.92 5.18,2.13334 0.9347,0.70666 1.9174,0.42666 3.0507,1 2.1747,1.10666 4.3493,2.21333 6.536,3.29333 0.1053,0.0533 0.2093,0.08 0.316,0.08 0.128,0.0133 0.2573,0.0133 0.3853,0 0.4094,-0.0267 0.7947,0.0667 1.1574,0.26667 3.8706,2.10666 6.6173,3.50666 8.2666,4.14666 5.4827,2.16 10.9894,4.82667 16.5094,7.98667 4.384,2.50667 8.7906,4.84 13.2106,6.94667 2.42,1.16 4.3267,2.89333 6.84,3.86666 0.3494,0.12 0.6427,0.34667 0.888,0.64 0.3854,0.45334 0.8534,0.8 1.4027,1.04 2.1507,0.92 4.1507,2.04 5.9973,3.33334 1.4147,0.98666 2.9827,1.45333 4.3267,2.46666 0.8067,0.61334 1.66,1.18667 2.5373,1.73334 20.7294,12.70666 40.2547,26.86666 58.564,42.45333 1.3547,1.16 2.5374,2.64 4.0454,3.57333 2.9693,1.85333 5.3893,4.70667 7.868,7.12 0.1986,0.2 0.4333,0.30667 0.7013,0.32 0.1173,0.0133 0.2347,0.0267 0.3387,0.0667 0.2693,0.08 0.516,0.24 0.7133,0.42666 4.5133,4.50667 9.0267,9.01334 13.5507,13.54667 1.0173,1.02667 2.104,1.89333 3.2626,2.58667 1.4387,0.89333 2.5947,2 3.46,3.32 1.0227,1.58666 2.156,3 3.4227,4.25333 4.2267,4.17333 8.4267,8.38667 12.6,12.62667 0.2533,0.25333 0.4533,0.57333 0.5733,0.93333 0.2,0.62667 0.5734,1.188 1.0667,1.66667 1.7867,1.71866 3.4933,3.54133 5.1333,5.46 1.92,2.24266 3.7467,4.40666 5.48,6.47466 16.6134,19.908 31.1067,40.08534 43.5067,60.53067 1.6267,2.7 2.96,5.59866 4.68,8.112 1.7067,2.51333 2.6,5.21333 4.36,7.61066 0.9467,1.28534 1.3867,2.816 2.32,4.032 0.68,0.87734 1.2667,1.80134 1.7467,2.76 4.4533,8.84934 8.96,17.896 13.56,27.13067 0.12,0.25733 0.2,0.54933 0.2,0.86667 0,0.268 0.067,0.52533 0.1866,0.748 1.3334,2.61733 2.5867,5.26 3.7334,7.91333 1.0933,2.48933 2.1466,4.956 3.1866,7.388 19.32,45.40267 31.4534,93.23733 36.3867,143.49066 0.8133,8.276 1.6133,16.55334 2.4133,24.81734 V 1937.9984 H 1449.48 c -37.6,-2.3838 -74.44,-8.8958 -110.5467,-19.5333 -1.92,-0.5599 -4.4533,-1.6011 -6.7253,-2.1624 -1.8707,-0.4678 -3.5667,-0.9574 -5.0867,-1.4735 -6.828,-2.3251 -13.8653,-4.8385 -21.1267,-7.5385 -3.8933,-1.4506 -7.88,-3.0052 -11.9373,-4.6771 -2.0693,-0.8521 -4.28,-1.6829 -6.6067,-2.4657 -1.448,-0.4906 -2.6653,-1.5078 -4.2093,-1.9172 -1.0867,-0.2922 -2.1387,-0.7015 -3.18,-1.2266 -1.788,-0.9358 -4.196,-2.5134 -6.056,-2.9348 -0.5027,-0.1172 -0.888,-0.3854 -1.18,-0.8068 -0.128,-0.1985 -0.304,-0.2813 -0.5267,-0.2693 l -0.6186,0.024 c -0.3747,0.011 -0.7254,-0.058 -1.064,-0.2213 l -27.9907,-14.0276 c -0.292,-0.1522 -0.5493,-0.3631 -0.7707,-0.6084 -0.1293,-0.152 -0.2706,-0.2692 -0.4453,-0.364 -27.7093,-15.0199 -54.0267,-32.7652 -78.9413,-53.2334 -1.4854,-1.2276 -2.784,-2.7704 -4.3734,-3.7761 -2.992,-1.8932 -5.3306,-4.7239 -7.8453,-7.1427 -0.2573,-0.2573 -0.584,-0.4437 -0.9467,-0.5369 -0.456,-0.1297 -0.8653,-0.3631 -1.204,-0.7027 -2.8653,-2.8281 -5.6946,-5.6574 -8.512,-8.4974 -0.724,-0.7374 -1.5893,-0.596 -2.3386,-1.3574 -7.3174,-7.34 -14.708,-14.728 -22.1787,-22.1626 -0.9,-0.912 -0.8533,-1.964 -1.8013,-2.864 -2.6174,-2.4667 -5.0267,-4.8974 -7.236,-7.2827 -0.5614,-0.608 -0.5267,-1.2867 -1.1347,-1.9053 -3.6133,-3.7067 -7.26,-7.8214 -10.9427,-12.3334 -18.5666,-22.736 -35.0173,-46.6413 -49.352,-71.716 -0.2453,-0.432 -0.4666,-0.8546 -0.688,-1.2626 -2.0933,-4.1494 -4.0573,-7.9494 -5.9173,-11.3854 -0.1627,-0.292 -0.3853,-0.584 -0.6547,-0.8773 -0.244,-0.256 -0.444,-0.5493 -0.596,-0.8653 -3.028,-6.1134 -5.9626,-12.1454 -8.792,-18.1187 -0.2933,-0.62 -0.5853,-1.228 -0.8653,-1.812 -1.7653,-3.6947 -3.496,-7.4933 -5.2147,-11.3867 -0.152,-0.3266 -0.256,-0.6653 -0.316,-1.016 -0.057,-0.3146 -0.1746,-0.62 -0.3493,-0.888 -1.1813,-1.8586 -2.0707,-3.812 -2.6427,-5.8453 -0.5373,-1.8707 -1.7773,-2.98 -1.952,-4.992 -0.036,-0.3733 -0.164,-0.724 -0.364,-1.04 -0.6653,-0.9947 -1.18,-2.092 -1.5546,-3.308 -0.4094,-1.3213 -0.8414,-2.432 -1.2854,-3.356 -0.5266,-1.0867 -0.9586,-2.22 -1.2986,-3.3773 -0.3387,-1.1107 -0.7014,-2.1747 -1.1107,-3.1907 -1.204,-3.028 -2.396,-6.3013 -3.6,-9.832 -3.028,-8.9667 -5.7067,-17.5573 -8.04532,-25.752 -0.0227,-0.081 -0.0573,-0.164 -0.104,-0.2333 -0.0827,-0.1067 -0.152,-0.2 -0.22134,-0.2934 -0.212,-0.28 -0.328,-0.596 -0.364,-0.9346 -0.28,-2.9107 -1.55466,-5.5187 -2.256,-8.3467 -3.07466,-12.4027 -5.51866,-23.1693 -7.33066,-32.3107 -2.06934,-10.4266 -4.02134,-22.772 -5.85734,-37.0213 -2,-15.5347 -2.86533,-30.3107 -2.61866,-44.3507 0.0107,-0.28 -0.12934,-0.5493 -0.364,-0.712 l -0.256,-0.1773 c -0.26934,-0.1747 -0.39734,-0.42 -0.39734,-0.7347 l 0.0227,-6.7226 c 0,-0.2454 -0.19733,-0.444 -0.444,-0.444 -162.85333,-0.036 -325.44933,-0.023 -487.78799,0.035 -8.032,0.012 -15.53867,-0.2213 -22.51867,-0.6893 -36.53599,-2.4307 -71.96266,-8.6733 -106.25333,-18.728 -0.0707,-0.011 -0.14133,-0.047 -0.19866,-0.093 -0.10534,-0.081 -0.23467,-0.14 -0.36267,-0.1747 -3.472,-0.7947 -7.144,-1.8827 -11.01467,-3.2613 -4.82666,-1.7187 -9.692,-3.3427 -14.60266,-4.8974 -0.21067,-0.06 -0.42,-0.093 -0.64267,-0.083 -0.39733,0.023 -0.736,-0.1174 -1.00533,-0.4094 -0.56134,-0.596 -1.25067,-0.8293 -2.06933,-0.724 -0.456,0.057 -0.84134,-0.083 -1.14534,-0.4333 -0.37466,-0.444 -0.86533,-0.6187 -1.47333,-0.5373 -0.40933,0.059 -0.80667,-0.024 -1.16933,-0.2227 -2.17467,-1.2387 -4.48934,-2.1387 -6.956,-2.688 -1.532,-0.34 -2.50267,-1.4493 -3.99867,-1.7533 -0.99467,-0.1987 -1.91867,-0.5267 -2.76,-1.0054 -1.02933,-0.5733 -2.08133,-0.9933 -3.144,-1.2506 -1.35733,-0.3387 -2.69067,-0.924 -3.988,-1.776 -0.736,-0.48 -1.71867,-0.328 -2.688,-0.82 -2.85333,-1.4614 -5.69467,-2.9227 -8.524,-4.36 -0.0813,-0.035 -0.176,-0.057 -0.26933,-0.069 -0.17467,-0.024 -0.33867,-0.012 -0.50267,0.047 -0.22133,0.069 -0.46667,0.059 -0.67733,-0.059 -2.724,-1.4493 -5.46,-2.84 -8.22,-4.1613 -0.316,-0.152 -0.608,-0.34 -0.876,-0.5613 -0.316,-0.2574 -0.69067,-0.352 -1.112,-0.292 -0.38534,0.057 -0.75867,-0.012 -1.10934,-0.1987 L 247.48936,1374.87 c -0.38667,-0.2106 -0.73734,-0.48 -1.04134,-0.8066 -1.052,-1.168 -2.432,-1.508 -3.776,-2.3267 -23.26666,-14.0507 -45.31599,-29.972 -66.13999,-47.776 -0.92267,-0.7827 -1.78934,-1.612 -2.59467,-2.4653 -0.808,-0.8547 -1.64933,-1.568 -2.52667,-2.1507 -1.41466,-0.936 -2.67733,-1.964 -3.81066,-3.0987 -2.23334,-2.2333 -4.444,-4.4653 -6.60667,-6.6746 -0.54933,-0.5614 -1.788,-0.724 -2.56,-1.508 -7.296,-7.3054 -14.47467,-14.484 -21.52533,-21.532 -1.20267,-1.2054 -1.51867,-2.6774 -2.852,-3.9054 -2.256,-2.092 -5.0508,-5.0373 -8.40547,-8.8599 -21.9,-24.9707 -40.769332,-51.096 -56.634398,-78.38 -2,-3.4134 -3.368267,-5.88 -4.104134,-7.388 -0.537466,-1.0747 -1.297466,-1.624 -1.8948,-2.7934 -2.431733,-4.7106 -4.840133,-9.528 -7.225066,-14.4493 -0.397333,-0.8293 -1.076,-1.368 -1.532267,-2.1973 -1.635866,-3.004 -3.297333,-6.2894 -4.9692,-9.832 -0.373466,-0.7814 -0.221333,-1.4254 -0.571866,-2.1147 -1.495867,-2.9573 -3.0172,-5.9733 -4.571867,-9.036 -0.128133,-0.2453 -0.175066,-0.5147 -0.164133,-0.7947 0.01307,-0.1066 0.01307,-0.2226 0,-0.34 -0.01093,-0.304 -0.104133,-0.608 -0.268267,-0.9 -1.1692,-2.0933 -3.612933,-6.1133 -3.730666,-8.2413 -0.0104,-0.316 -0.1156,-0.596 -0.302667,-0.8533 -0.842667,-1.1454 -1.416133,-2.4307 -1.730667,-3.868 -0.386533,-1.8254 -1.683866,-3.2974 -2.0344,-5.1907 -0.316133,-1.648 -1.4964,-2.8067 -1.8588,-4.432 -0.293333,-1.284 -0.829199,-2.4893 -1.590666,-3.612 -0.338533,-0.4787 -0.478667,-1.016 -0.431733,-1.612 0.0572,-0.6893 -0.164134,-1.2627 -0.666667,-1.7307 -0.385467,-0.3626 -0.527067,-0.8053 -0.397467,-1.332 0.08133,-0.3626 0.024,-0.6893 -0.162933,-0.9946 -0.210533,-0.3387 -0.374533,-0.7 -0.491733,-1.0867 -0.9468,-3.028 -2.034934,-6.0907 -3.251067,-9.176 -1.2156,-3.0987 -2.290533,-6.172 -3.214533,-9.2467 -2.747867,-9.0946 -5.190667,-17.7333 -7.342667,-25.9173 -6.7464129,-25.6453 -11.4573461,-53.012 -14.1359861,-82.10801 -0.3734399,-4.044 -0.4427066,-7.16667 -0.2093733,-9.37467 0.12812,-1.29733 -0.1052133,-2.49066 -0.7130266,-3.56533 -0.2229174,-0.38533 -0.3390627,-0.83067 -0.3390627,-1.27467 -0.082292,-6.68666 -0.11718799,-13.244 -0.1052093,-19.66266 0.01198,-2.79334 -0.16406269,-5.856 -0.50260401,-9.188 C 0.21041733,940.28003 0.04687507,937.45069 0,934.58669 V 1.4800485 l 17.712,-1.63999995"
       style="fill:#010102;fill-opacity:1;fill-rule:nonzero;stroke:none;stroke-width:0.133333" />
    <path
       id="path4"
       d="m 1850.0266,640.94137 c 0,-41.02134 -33.2666,-74.288 -74.28,-74.288 -41.04,0 -74.3066,33.26666 -74.3066,74.288 0,41.02933 33.2666,74.29199 74.3066,74.29199 41.0134,0 74.28,-33.26266 74.28,-74.29199 z m 200.6533,0 c 0,151.85066 -123.1066,274.94666 -274.9333,274.94666 -151.8666,0 -274.9466,-123.096 -274.9466,-274.94666 0,-151.83467 123.08,-274.928 274.9466,-274.928 151.8267,0 274.9333,123.09333 274.9333,274.928"
       style="fill:#009fe3;fill-opacity:1;fill-rule:nonzero;stroke:none;stroke-width:0.133333" />
  </g>
</svg>
