<?xml version="1.0" encoding="utf-8"?>
<!-- Generator: Adobe Illustrator 25.2.1, SVG Export Plug-In . SVG Version: 6.00 Build 0)  -->
<svg version="1.1" id="Capa_1" xmlns="http://www.w3.org/2000/svg" xmlns:xlink="http://www.w3.org/1999/xlink" x="0px" y="0px"
	 viewBox="0 0 446.6 216.8" style="enable-background:new 0 0 446.6 216.8;" xml:space="preserve">
<style type="text/css">
	.st0{fill:#4197CB;}
	.st1{fill:#FFA400;}
</style>
<g>
	<g>
		<path class="st0" d="M217.8,165.4h-14.3l26.1-66.1c1.4-3.5,3.4-6,5.9-7.4c2.5-1.4,5.8-2.1,9.7-2.1c3.9,0,7.1,0.7,9.6,2.1
			c2.5,1.4,4.5,3.9,5.8,7.4l25.1,66.1h-14.4l-22.6-59.8c-0.7-1.7-1.9-2.5-3.6-2.5c-1.8,0-3,0.8-3.7,2.5L217.8,165.4z"/>
		<path class="st0" d="M356.1,91v13h-37.2c-4,0-6.8,0.8-8.6,2.5c-1.8,1.7-2.6,4-2.6,6.8c0,5.9,3.8,8.8,11.3,8.8h36.6V134h-36.9
			c-7.6,0-11.3,3-11.3,9c0,2.9,0.9,5.2,2.8,6.9c1.8,1.7,4.7,2.5,8.5,2.5h37.7v13h-37.7c-4.4,0-8.2-0.5-11.3-1.5
			c-3.1-1-5.7-2.4-7.7-4.2c-2-1.8-3.5-3.9-4.4-6.4c-0.9-2.5-1.4-5.2-1.4-8c0-4.3,0.9-7.8,2.8-10.6c1.8-2.8,4.5-5,7.9-6.4
			c-7-2.9-10.5-8.4-10.5-16.7c0-2.9,0.5-5.7,1.4-8.1c1-2.5,2.4-4.6,4.5-6.4c2-1.8,4.6-3.2,7.7-4.2c3.1-1,6.9-1.5,11.3-1.5H356.1z"/>
		<path class="st1" d="M413.2,91c4.2,0,7.8,0.6,10.8,1.8c3,1.2,5.5,2.8,7.4,4.8c1.9,2,3.4,4.4,4.3,7.1c0.9,2.7,1.4,5.5,1.4,8.5
			c0,2.4-0.3,4.7-0.9,7c-0.6,2.3-1.5,4.5-2.8,6.5c-1.2,2-2.9,3.8-4.8,5.3s-4.4,2.7-7.3,3.5l17.3,29.7h-14.4l-17-28.7h-19.4
			c-1.2,0-1.9,0.6-1.9,1.9v26.9h-13V136c0-4.2,0.9-7.2,2.8-9c1.8-1.8,4.8-2.8,8.9-2.8h29c1.8,0,3.4-0.3,4.7-0.9
			c1.3-0.6,2.4-1.4,3.2-2.3c0.8-1,1.4-2.1,1.8-3.3c0.4-1.2,0.6-2.5,0.6-3.9c0-2.6-0.8-4.9-2.5-6.9c-1.7-1.9-4.3-2.9-7.9-2.9h-40.7
			V91H413.2z"/>
	</g>
	<g>
		<path class="st1" d="M217.6,183.5c1.3,0,2.4,0.2,3.3,0.5c0.9,0.3,1.7,0.8,2.2,1.4c0.6,0.6,1,1.3,1.3,2.2c0.3,0.8,0.4,1.7,0.4,2.7
			v9.7c0,0.8-0.1,1.4-0.2,1.9c-0.1,0.5-0.3,0.9-0.6,1.3c-0.3,0.3-0.7,0.6-1.3,0.7c-0.6,0.2-1.3,0.2-2.1,0.2h-9.6
			c-2.4,0-4.2-0.6-5.3-1.7c-1.1-1.1-1.6-2.7-1.6-4.6c0-0.9,0.1-1.8,0.4-2.5c0.2-0.7,0.6-1.3,1.2-1.9s1.3-0.9,2.1-1.2
			c0.9-0.3,2-0.4,3.2-0.4h9.8v-1.6c0-0.8-0.2-1.5-0.7-2c-0.5-0.5-1.3-0.8-2.4-0.8h-12.3v-4H217.6z M219.6,200.1
			c0.8,0,1.1-0.4,1.1-1.1v-3.9H211c-1.1,0-1.9,0.2-2.3,0.6s-0.7,1-0.7,1.8s0.2,1.4,0.7,1.8c0.4,0.5,1.2,0.7,2.2,0.7H219.6z"/>
		<path class="st1" d="M234.7,183.5v12.3c0,1.2,0.4,2.2,1.3,3c0.9,0.8,2.1,1.2,3.8,1.2h3.4c1.6,0,2.9-0.4,3.8-1.2
			c0.9-0.8,1.3-1.8,1.3-3v-12.3h4.1V196c0,1.2-0.2,2.3-0.6,3.3c-0.4,1-0.9,1.8-1.7,2.6c-0.8,0.7-1.7,1.3-2.8,1.7
			c-1.1,0.4-2.4,0.6-3.9,0.6h-3.8c-1.5,0-2.8-0.2-3.9-0.6c-1.1-0.4-2-1-2.8-1.7c-0.8-0.7-1.3-1.6-1.7-2.6c-0.4-1-0.6-2.1-0.6-3.3
			v-12.5H234.7z"/>
		<path class="st1" d="M258.8,183.5v-4.9h4.2v4.9h5.7v4H263v9.8c0,1.2,0.2,2,0.6,2.4c0.4,0.4,1.1,0.7,2.1,0.7h2.9v3.8h-3.7
			c-1.1,0-2-0.1-2.8-0.4c-0.8-0.2-1.4-0.6-1.9-1.2c-0.5-0.5-0.9-1.3-1.1-2.2c-0.2-0.9-0.4-2-0.4-3.4v-9.5H256v-4H258.8z"/>
		<path class="st1" d="M285,183.5c2.7,0,4.9,0.9,6.5,2.6c1.6,1.7,2.4,4.3,2.4,7.8c0,3.5-0.8,6.1-2.4,7.8c-1.6,1.7-3.8,2.5-6.5,2.5
			h-4.3c-2.8,0-4.9-0.8-6.5-2.5c-1.6-1.7-2.4-4.3-2.4-7.8c0-3.5,0.8-6.1,2.4-7.8c1.6-1.7,3.8-2.5,6.5-2.5H285z M281.1,187.5
			c-1.8,0-3.1,0.5-3.9,1.5s-1.2,2.6-1.2,4.8c0,2.2,0.4,3.8,1.2,4.8s2.1,1.5,3.9,1.5h3.6c1.8,0,3.1-0.5,3.9-1.5
			c0.8-1,1.2-2.6,1.2-4.8c0-2.2-0.4-3.9-1.2-4.8c-0.8-1-2.1-1.5-3.9-1.5H281.1z"/>
		<path class="st1" d="M323,183.5c3.5,0,6.1,0.8,7.9,2.4c1.7,1.6,2.6,3.8,2.6,6.7v11.6h-4.2v-11.6c0-1.6-0.5-2.9-1.5-3.7
			c-1-0.9-2.6-1.3-4.7-1.3h-4.8v16.6H314v-16.6h-10.5c-0.3,0-0.5,0.2-0.5,0.6v16.1h-4.1v-17.4c0-1.2,0.2-2.1,0.7-2.5
			c0.4-0.5,1.2-0.7,2.2-0.7H323z"/>
		<path class="st1" d="M352.4,183.5c1.3,0,2.4,0.2,3.3,0.5c0.9,0.3,1.7,0.8,2.2,1.4c0.6,0.6,1,1.3,1.3,2.2c0.3,0.8,0.4,1.7,0.4,2.7
			v9.7c0,0.8-0.1,1.4-0.2,1.9c-0.1,0.5-0.3,0.9-0.6,1.3c-0.3,0.3-0.7,0.6-1.3,0.7c-0.6,0.2-1.3,0.2-2.1,0.2h-9.6
			c-2.4,0-4.2-0.6-5.3-1.7c-1.1-1.1-1.6-2.7-1.6-4.6c0-0.9,0.1-1.8,0.4-2.5c0.2-0.7,0.6-1.3,1.2-1.9s1.3-0.9,2.1-1.2
			c0.9-0.3,2-0.4,3.2-0.4h9.8v-1.6c0-0.8-0.2-1.5-0.7-2c-0.5-0.5-1.3-0.8-2.4-0.8H340v-4H352.4z M354.4,200.1c0.8,0,1.1-0.4,1.1-1.1
			v-3.9h-9.7c-1.1,0-1.9,0.2-2.3,0.6s-0.7,1-0.7,1.8s0.2,1.4,0.7,1.8c0.4,0.5,1.2,0.7,2.2,0.7H354.4z"/>
		<path class="st1" d="M366.2,183.5v-4.9h4.2v4.9h5.7v4h-5.7v9.8c0,1.2,0.2,2,0.6,2.4c0.4,0.4,1.1,0.7,2.1,0.7h2.9v3.8h-3.7
			c-1.1,0-2-0.1-2.8-0.4c-0.8-0.2-1.4-0.6-1.9-1.2c-0.5-0.5-0.9-1.3-1.1-2.2c-0.2-0.9-0.4-2-0.4-3.4v-9.5h-2.8v-4H366.2z"/>
		<path class="st1" d="M384.3,175.7v4.8h-4.2v-4.8H384.3z M384.3,183.5v20.6h-4.1v-20.6H384.3z"/>
		<path class="st1" d="M402.5,183.5c2.7,0,4.9,0.9,6.5,2.6c1.6,1.7,2.4,4.3,2.4,7.8c0,3.5-0.8,6.1-2.4,7.8c-1.6,1.7-3.8,2.5-6.5,2.5
			h-4.3c-2.8,0-4.9-0.8-6.5-2.5c-1.6-1.7-2.4-4.3-2.4-7.8c0-3.5,0.8-6.1,2.4-7.8c1.6-1.7,3.8-2.5,6.5-2.5H402.5z M398.6,187.5
			c-1.8,0-3.1,0.5-3.9,1.5s-1.2,2.6-1.2,4.8c0,2.2,0.4,3.8,1.2,4.8s2.1,1.5,3.9,1.5h3.6c1.8,0,3.1-0.5,3.9-1.5s1.2-2.6,1.2-4.8
			c0-2.2-0.4-3.9-1.2-4.8s-2.1-1.5-3.9-1.5H398.6z"/>
		<path class="st1" d="M427.8,183.5c3.5,0,6.1,0.8,7.8,2.4c1.7,1.6,2.6,3.8,2.6,6.7v11.6H434v-11.6c0-1.6-0.5-2.9-1.5-3.7
			c-1-0.9-2.6-1.3-4.7-1.3h-6.8c-0.3,0-0.5,0.2-0.5,0.6v16.1h-4.1v-17.4c0-1.2,0.2-2.1,0.7-2.5c0.4-0.5,1.2-0.7,2.2-0.7H427.8z"/>
	</g>
	<path class="st0" d="M191.5,92.1c-3.2,1.4-6.6,2.6-10.3,3.5c-5.6,1.4-10.3,3.4-14.5,6.2c-0.9,0.6-1.7,1.3-2.5,2
		c-3.3,3.3-4.9,7.8-4.8,12.1l0,0c0,0.5,0,0.9,0,1.4c0,32.3-26.2,58.4-58.4,58.4c-32.3,0-58.4-26.2-58.4-58.4S68.7,58.9,101,58.9
		c0.7,0,1.4,0,2.1,0l0,0c0,0,0.1,0,0.1,0c5.3,0,10.1-2.5,13.1-6.5c2.8-3.9,4.8-8.4,6-13.1c0.7-4.4,2-8.6,3.8-12.7
		c-8-2.2-16.4-3.4-25.1-3.4c-51.9,0-94,42.1-94,94s42.1,94,94,94c51.9,0,94-42.1,94-94C195,108.6,193.8,100.1,191.5,92.1z"/>
	<path class="st0" d="M198.9,19.3c-7.4-7.4-17.4-11.5-28-11.5c-10.6,0-20.5,4.1-28,11.5c-6,6-9.8,13.6-11,22
		c-2.3,9.1-6.7,17-13,23.3c-6.3,6.3-14.2,10.7-22.8,12.9c-8.9,1.4-16.6,5.2-22.5,11.1c-7.4,7.4-11.5,17.4-11.5,28
		c0,10.6,4.1,20.5,11.5,28c15.4,15.4,40.5,15.4,56,0c5.6-5.6,7.8-11.9,10.8-20.6l0.2-0.6c3.3-9.6,6.3-16.9,13.3-23.9
		c6.6-6.6,14.8-11.1,25-13.6c8.4-2,14.8-5.5,20.1-10.7C214.4,59.9,214.4,34.7,198.9,19.3z M170.9,62.9c-8.7,0-15.7-7-15.7-15.7
		c0-8.7,7-15.7,15.7-15.7c8.7,0,15.7,7,15.7,15.7C186.6,55.9,179.6,62.9,170.9,62.9z"/>
	<path class="st1" d="M170.9,62.9c-8.7,0-15.7-7-15.7-15.7c0-8.7,7-15.7,15.7-15.7c8.7,0,15.7,7,15.7,15.7
		C186.6,55.9,179.6,62.9,170.9,62.9z"/>
</g>
</svg>
