<?xml version="1.0" encoding="UTF-8" standalone="no"?>
<svg
   xmlns:dc="http://purl.org/dc/elements/1.1/"
   xmlns:cc="http://creativecommons.org/ns#"
   xmlns:rdf="http://www.w3.org/1999/02/22-rdf-syntax-ns#"
   xmlns:svg="http://www.w3.org/2000/svg"
   xmlns="http://www.w3.org/2000/svg"
   viewBox="0 0 1050.4399 217.88"
   height="217.88"
   width="1050.4399"
   xml:space="preserve"
   id="svg2"
   version="1.1"><metadata
     id="metadata8"><rdf:RDF><cc:Work
         rdf:about=""><dc:format>image/svg+xml</dc:format><dc:type
           rdf:resource="http://purl.org/dc/dcmitype/StillImage" /></cc:Work></rdf:RDF></metadata><defs
     id="defs6" /><g
     transform="matrix(1.3333333,0,0,-1.3333333,0,217.88)"
     id="g10"><g
       transform="scale(0.1)"
       id="g12"><path
         id="path14"
         style="fill:#622275;fill-opacity:1;fill-rule:nonzero;stroke:none"
         d="M 1357.94,0 H 452.66 l 452.621,817.023 z" /><path
         id="path16"
         style="fill:#9350a1;fill-opacity:1;fill-rule:nonzero;stroke:none"
         d="M 0,817.023 H 905.281 L 452.695,0 Z" /><path
         id="path18"
         style="fill:#49a9de;fill-opacity:1;fill-rule:nonzero;stroke:none"
         d="M 0,817.023 H 905.281 L 452.695,1634.08 Z" /><path
         id="path20"
         style="fill:#3880c5;fill-opacity:1;fill-rule:nonzero;stroke:none"
         d="M 1357.94,1634.08 H 452.66 L 905.281,817.023 Z" /><path
         id="path22"
         style="fill:#622275;fill-opacity:1;fill-rule:nonzero;stroke:none"
         d="m 1885,942.02 h 491.19 V 762.84 H 1885 V 358.172 h 491.19 V 179.051 H 1705.82 V 1482.49 l 670.37,-2.99 -1.41,-179.16 -489.78,2.97 V 942.02" /><path
         id="path24"
         style="fill:#622275;fill-opacity:1;fill-rule:nonzero;stroke:none"
         d="M 2819.7,752.359 2691.26,623.961 V 179.039 H 2512.11 V 1480.98 h 179.15 V 877.805 L 3296,1482.49 h 253.78 L 2946.61,879.258 3646.34,179.039 h -253.82 l -572.82,573.32" /><path
         id="path26"
         style="fill:#622275;fill-opacity:1;fill-rule:nonzero;stroke:none"
         d="m 4212.75,179.039 c -62.74,0 -122.97,11.941 -180.67,35.832 -55.78,24.867 -104.55,58.231 -146.31,100.039 -43.86,43.75 -76.65,92.531 -98.58,146.352 -24.87,58.679 -37.31,118.437 -37.31,179.105 v 842.123 h 179.19 V 640.367 c 0,-38.785 7.44,-75.398 22.37,-109.738 14.92,-34.32 35.08,-64.207 60.43,-89.578 25.39,-25.36 55.53,-45.539 90.39,-60.442 34.84,-14.988 71.62,-22.398 110.49,-22.398 38.79,0 75.41,7.41 109.69,22.398 34.35,14.903 64.25,35.082 89.61,60.442 25.39,25.371 45.54,55.258 60.46,89.578 14.95,34.34 22.39,70.953 22.39,109.738 v 842.123 h 179.18 V 640.367 c 0,-62.687 -11.92,-122.418 -35.82,-179.105 -21.88,-53.821 -54.77,-102.602 -98.54,-146.352 -42.81,-42.84 -92.07,-76.129 -147.83,-100.039 -56.7,-23.891 -116.41,-35.832 -179.14,-35.832" /><path
         id="path28"
         style="fill:#622275;fill-opacity:1;fill-rule:nonzero;stroke:none"
         d="m 4817.4,178.43 v 1304.06 h 203.08 l 415.08,-984.51 388.19,984.51 h 198.63 V 178.43 H 5843.2 v 874.08 L 5499.78,178.43 h -120.96 l -382.24,905.41 V 178.43 H 4817.4" /><path
         id="path30"
         style="fill:#622275;fill-opacity:1;fill-rule:nonzero;stroke:none"
         d="M 6335.91,942.02 H 6827.1 V 762.84 H 6335.91 V 358.172 H 6827.1 V 179.051 H 6156.67 V 1482.49 l 670.43,-2.99 -1.48,-179.16 -489.71,2.97 V 942.02" /><path
         id="path32"
         style="fill:#622275;fill-opacity:1;fill-rule:nonzero;stroke:none"
         d="m 7699.06,1479.54 h 179.2 V 173.539 h -129.93 l -604.7,931.211 V 175.422 H 6964.49 V 1482.49 h 146.31 l 588.26,-907.33 v 904.38" /></g></g></svg>