<?xml version="1.0" encoding="UTF-8" standalone="no"?>
<!-- Created with Inkscape (http://www.inkscape.org/) -->

<svg
   version="1.1"
   id="svg1"
   width="1385.4666"
   height="425.86664"
   viewBox="0 0 1385.4666 425.86663"
   sodipodi:docname="Eurecat_no_claim_logo_degradat.ai"
   xmlns:inkscape="http://www.inkscape.org/namespaces/inkscape"
   xmlns:sodipodi="http://sodipodi.sourceforge.net/DTD/sodipodi-0.dtd"
   xmlns="http://www.w3.org/2000/svg"
   xmlns:svg="http://www.w3.org/2000/svg">
  <defs
     id="defs1">
    <linearGradient
       x1="0"
       y1="0"
       x2="1"
       y2="0"
       gradientUnits="userSpaceOnUse"
       gradientTransform="matrix(1089.7424,0,0,1089.7424,370.50342,300.04999)"
       spreadMethod="pad"
       id="linearGradient5">
      <stop
         style="stop-opacity:1;stop-color:#662483"
         offset="0"
         id="stop1" />
      <stop
         style="stop-opacity:1;stop-color:#1d71b8"
         offset="0.5153"
         id="stop2" />
      <stop
         style="stop-opacity:1;stop-color:#b35199"
         offset="0.623"
         id="stop3" />
      <stop
         style="stop-opacity:1;stop-color:#c24592"
         offset="0.6879"
         id="stop4" />
      <stop
         style="stop-opacity:1;stop-color:#c24592"
         offset="1"
         id="stop5" />
    </linearGradient>
    <linearGradient
       x1="0"
       y1="0"
       x2="1"
       y2="0"
       gradientUnits="userSpaceOnUse"
       gradientTransform="matrix(1089.7419,0,0,1089.7419,370.50494,455.60001)"
       spreadMethod="pad"
       id="linearGradient10">
      <stop
         style="stop-opacity:1;stop-color:#662483"
         offset="0"
         id="stop6" />
      <stop
         style="stop-opacity:1;stop-color:#1d71b8"
         offset="0.5153"
         id="stop7" />
      <stop
         style="stop-opacity:1;stop-color:#b35199"
         offset="0.623"
         id="stop8" />
      <stop
         style="stop-opacity:1;stop-color:#c24592"
         offset="0.6879"
         id="stop9" />
      <stop
         style="stop-opacity:1;stop-color:#c24592"
         offset="1"
         id="stop10" />
    </linearGradient>
    <linearGradient
       x1="0"
       y1="0"
       x2="1"
       y2="0"
       gradientUnits="userSpaceOnUse"
       gradientTransform="matrix(1089.7419,0,0,1089.7419,370.50388,455.60001)"
       spreadMethod="pad"
       id="linearGradient15">
      <stop
         style="stop-opacity:1;stop-color:#662483"
         offset="0"
         id="stop11" />
      <stop
         style="stop-opacity:1;stop-color:#1d71b8"
         offset="0.5153"
         id="stop12" />
      <stop
         style="stop-opacity:1;stop-color:#b35199"
         offset="0.623"
         id="stop13" />
      <stop
         style="stop-opacity:1;stop-color:#c24592"
         offset="0.6879"
         id="stop14" />
      <stop
         style="stop-opacity:1;stop-color:#c24592"
         offset="1"
         id="stop15" />
    </linearGradient>
    <linearGradient
       x1="0"
       y1="0"
       x2="1"
       y2="0"
       gradientUnits="userSpaceOnUse"
       gradientTransform="matrix(1089.7411,0,0,1089.7411,370.50446,449.10001)"
       spreadMethod="pad"
       id="linearGradient20">
      <stop
         style="stop-opacity:1;stop-color:#662483"
         offset="0"
         id="stop16" />
      <stop
         style="stop-opacity:1;stop-color:#1d71b8"
         offset="0.5153"
         id="stop17" />
      <stop
         style="stop-opacity:1;stop-color:#b35199"
         offset="0.623"
         id="stop18" />
      <stop
         style="stop-opacity:1;stop-color:#c24592"
         offset="0.6879"
         id="stop19" />
      <stop
         style="stop-opacity:1;stop-color:#c24592"
         offset="1"
         id="stop20" />
    </linearGradient>
    <linearGradient
       x1="0"
       y1="0"
       x2="1"
       y2="0"
       gradientUnits="userSpaceOnUse"
       gradientTransform="matrix(1089.741,0,0,1089.741,370.50455,455.64999)"
       spreadMethod="pad"
       id="linearGradient25">
      <stop
         style="stop-opacity:1;stop-color:#662483"
         offset="0"
         id="stop21" />
      <stop
         style="stop-opacity:1;stop-color:#1d71b8"
         offset="0.5153"
         id="stop22" />
      <stop
         style="stop-opacity:1;stop-color:#b35199"
         offset="0.623"
         id="stop23" />
      <stop
         style="stop-opacity:1;stop-color:#c24592"
         offset="0.6879"
         id="stop24" />
      <stop
         style="stop-opacity:1;stop-color:#c24592"
         offset="1"
         id="stop25" />
    </linearGradient>
    <linearGradient
       x1="0"
       y1="0"
       x2="1"
       y2="0"
       gradientUnits="userSpaceOnUse"
       gradientTransform="matrix(1089.7418,0,0,1089.7418,370.50476,455.29999)"
       spreadMethod="pad"
       id="linearGradient30">
      <stop
         style="stop-opacity:1;stop-color:#662483"
         offset="0"
         id="stop26" />
      <stop
         style="stop-opacity:1;stop-color:#1d71b8"
         offset="0.5153"
         id="stop27" />
      <stop
         style="stop-opacity:1;stop-color:#b35199"
         offset="0.623"
         id="stop28" />
      <stop
         style="stop-opacity:1;stop-color:#c24592"
         offset="0.6879"
         id="stop29" />
      <stop
         style="stop-opacity:1;stop-color:#c24592"
         offset="1"
         id="stop30" />
    </linearGradient>
    <linearGradient
       x1="0"
       y1="0"
       x2="1"
       y2="0"
       gradientUnits="userSpaceOnUse"
       gradientTransform="matrix(1089.7411,0,0,1089.7411,370.50497,454.89999)"
       spreadMethod="pad"
       id="linearGradient35">
      <stop
         style="stop-opacity:1;stop-color:#662483"
         offset="0"
         id="stop31" />
      <stop
         style="stop-opacity:1;stop-color:#1d71b8"
         offset="0.5153"
         id="stop32" />
      <stop
         style="stop-opacity:1;stop-color:#b35199"
         offset="0.623"
         id="stop33" />
      <stop
         style="stop-opacity:1;stop-color:#c24592"
         offset="0.6879"
         id="stop34" />
      <stop
         style="stop-opacity:1;stop-color:#c24592"
         offset="1"
         id="stop35" />
    </linearGradient>
    <linearGradient
       x1="0"
       y1="0"
       x2="1"
       y2="0"
       gradientUnits="userSpaceOnUse"
       gradientTransform="matrix(1089.7412,0,0,1089.7412,370.50427,476.89999)"
       spreadMethod="pad"
       id="linearGradient40">
      <stop
         style="stop-opacity:1;stop-color:#662483"
         offset="0"
         id="stop36" />
      <stop
         style="stop-opacity:1;stop-color:#1d71b8"
         offset="0.5153"
         id="stop37" />
      <stop
         style="stop-opacity:1;stop-color:#b35199"
         offset="0.623"
         id="stop38" />
      <stop
         style="stop-opacity:1;stop-color:#c24592"
         offset="0.6879"
         id="stop39" />
      <stop
         style="stop-opacity:1;stop-color:#c24592"
         offset="1"
         id="stop40" />
    </linearGradient>
  </defs>
  <sodipodi:namedview
     id="namedview1"
     pagecolor="#ffffff"
     bordercolor="#666666"
     borderopacity="1.0"
     inkscape:showpageshadow="2"
     inkscape:pageopacity="0.0"
     inkscape:pagecheckerboard="0"
     inkscape:deskcolor="#d1d1d1" />
  <g
     id="layer-MC0"
     inkscape:groupmode="layer"
     inkscape:label="Capa 1"
     transform="translate(-121.73333,-335.86665)">
    <path
       id="path5"
       d="m 1052.9,299.8 c 0,-16.9 12.3,-29.2 29.2,-29.2 v 0 c 17.4,0 29.7,12.3 29.7,29.2 v 0 c -0.1,17.9 -11.9,29.7 -29.7,29.7 v 0 c -17.4,0 -29.2,-11.9 -29.2,-29.7"
       transform="matrix(1.3333333,0,0,-1.3333333,0,1122.5333)"
       style="fill:url(#linearGradient5);stroke:none" />
    <path
       id="path10"
       d="m 116.1,520.6 c -16,-17 -24.8,-40.7 -24.8,-66.5 v 0 c 0,-25.3 8.6,-48.3 24.3,-64.6 v 0 c 15.7,-16.3 37.6,-25.3 61.9,-25.3 v 0 c 30.7,0 55,9.9 74.1,30.2 v 0 l 0.6,0.6 -16.3,25.3 -1,-1 c -14.1,-11.9 -30.1,-17.9 -47.6,-17.9 v 0 c -27,0 -47.5,20 -50.2,48.8 v 0 h 96.6 l 18.2,26.5 c 0,19.3 -7.5,37.1 -21.1,50.1 v 0 c -13.6,13 -32.1,20.2 -52.2,20.2 v 0 c -24.3,0 -46.5,-9.4 -62.5,-26.4 m 59.4,-6.6 c 20.1,0 35.3,-13.9 37.3,-34 v 0 h -76 c 5.2,21.1 19.9,34 38.7,34"
       transform="matrix(1.3333333,0,0,-1.3333333,0,1122.5333)"
       style="fill:url(#linearGradient10);stroke:none" />
    <path
       id="path15"
       d="m 584.4,520.6 c -16,-17 -24.8,-40.7 -24.8,-66.5 v 0 c 0,-25.3 8.6,-48.3 24.3,-64.6 v 0 c 15.7,-16.3 37.6,-25.3 61.9,-25.3 v 0 c 30.7,0 55,9.9 74.1,30.2 v 0 l 0.6,0.6 -16.3,25.3 -1,-1 c -14.1,-11.9 -30.1,-17.9 -47.6,-17.9 v 0 c -27,0 -47.5,20 -50.2,48.8 v 0 H 702 l 18.2,26.5 c 0,19.3 -7.5,37.1 -21.1,50.1 v 0 C 685.5,539.8 667,547 646.9,547 v 0 c -24.3,0 -46.5,-9.4 -62.5,-26.4 m 59.4,-6.6 c 20.1,0 35.3,-13.9 37.3,-34 v 0 h -76 c 5.2,21.1 19.9,34 38.7,34"
       transform="matrix(1.3333333,0,0,-1.3333333,0,1122.5333)"
       style="fill:url(#linearGradient15);stroke:none" />
    <path
       id="path20"
       d="M 374.9,534.4 V 421.1 c -13.7,-14 -22.3,-18.2 -36.7,-18.2 v 0 c -19.9,0 -29.1,11.8 -29.1,37 v 0 94.4 h -45.7 v -99 c 0,-22.4 2,-34.2 7.7,-44.8 v 0 c 8.9,-16.2 29.7,-26.7 53.2,-26.7 v 0 c 21.3,0 37,6.7 55.3,23.9 v 0 c 4.7,-16.3 16.6,-23.6 38.4,-23.6 v 0 c 5.6,0 16,2.7 25,4.6 v 0 l 0.7,0.2 V 396 l -1.9,-0.6 h -2 -1.4 c -5.4,0 -10.8,1.9 -13.2,4.6 v 0 c -3.9,3.9 -4.6,8.2 -4.6,29.1 v 0 105.3 z"
       transform="matrix(1.3333333,0,0,-1.3333333,0,1122.5333)"
       style="fill:url(#linearGradient20);stroke:none" />
    <path
       id="path25"
       d="m 499.099,510.4 c -0.599,18.9 -5.199,30.1 -14.799,36 v 0 l -0.4,0.3 -40.3,-12.4 1.1,-1.3 c 9.3,-11.2 11.1,-20.7 11.1,-60.1 v 0 -108.6 h 45.7 v 108.1 l 0.4,0.4 0.2,0.2 c 13.6,21.3 25.9,30.8 39.9,30.8 v 0 c 5.2,0 4.4,1.1 16.4,-3 v 0 l 1.2,-0.4 15.4,38.5 -0.9,0.4 c -13.5,5.9 -19.5,7.7 -26.9,7.7 v 0 c -18.6,0 -35.5,-13 -48.101,-36.6"
       transform="matrix(1.3333333,0,0,-1.3333333,0,1122.5333)"
       style="fill:url(#linearGradient25);stroke:none" />
    <path
       id="path30"
       d="m 752.8,519.9 c -16.7,-17.3 -26,-40.9 -26,-66.5 v 0 c 0,-25.2 8.6,-48 24.3,-64.3 v 0 c 15.7,-16.3 37.7,-25.3 61.9,-25.3 v 0 c 23.6,0 43.7,6.6 61.5,20.3 v 0 l 0.701,0.6 -15.201,31.5 -1.1,-0.6 C 844.6,407.2 834.6,404 822.1,404 v 0 c -14.3,0 -26.4,5.2 -35.1,14.9 v 0 c -8.7,9.8 -13.3,23.4 -13.3,39.5 v 0 c 0,13.8 4.5,26.4 12.6,35.5 v 0 c 8.1,9 19.3,14 31.6,14 v 0 c 12.9,0 21.7,-3.1 36,-12.7 v 0 l 1,-0.7 18.9,33.7 -0.8,0.6 c -17,12.1 -35.1,18 -55.5,18 v 0 c -24.9,0 -47.9,-9.6 -64.7,-26.9"
       transform="matrix(1.3333333,0,0,-1.3333333,0,1122.5333)"
       style="fill:url(#linearGradient30);stroke:none" />
    <path
       id="path35"
       d="m 886.9,527.5 -0.6,-0.3 v -35.1 l 1.7,0.9 c 23.9,12.5 40,17.6 55.4,17.6 v 0 c 20.3,0 29.1,-8.3 29.5,-27.7 v 0 l 0.3,-4.6 c -14.299,-1.7 -29,-3.6 -40.2,-6.3 v 0 c -37.5,-8 -56.5,-26.7 -56.5,-55.5 v 0 c 0,-32.4 19.8,-52.5 51.8,-52.5 v 0 c 17.5,0 28.5,4.3 50.4,19.7 v 0 c 4.4,-12.7 17.1,-19.3 36.9,-19.3 v 0 c 5.6,0 9.8,0.3 18.8,2.3 v 0 l 0.7,0.2 6.2,29.5 -1.9,-0.6 c -0.9,-0.4 -1.6,-0.4 -2,-0.4 v 0 h -1.4 c -5.4,0 -10.8,1.9 -13.2,4.6 v 0 c -3.9,3.9 -4.6,8.2 -4.6,29.1 v 0 49.8 c 0,23.7 -4.2,39 -13.2,48.4 v 0 c -11.7,12.1 -29.6,18.5 -51.8,18.5 v 0 c -21.2,0 -42.9,-6 -66.3,-18.3 M 920,417.6 c 0,19.5 15.5,29.7 53.3,35 v 0 -45.3 c -13,-8.2 -21.9,-11.6 -30.6,-11.6 v 0 c -13.6,0 -22.7,8.8 -22.7,21.9"
       transform="matrix(1.3333333,0,0,-1.3333333,0,1122.5333)"
       style="fill:url(#linearGradient35);stroke:none" />
    <path
       id="path40"
       d="m 1070.3,590 h -21.1 v -46.2 l -0.1,-0.3 v -63 h -0.1 v -65 c 0,-17 4.6,-30.2 13.6,-39.1 v 0 c 5.5,-5.5 13,-9.9 21.7,-11.7 v 0 c 2.9,-0.6 6,-0.9 9.2,-0.9 v 0 h 0.9 c 1.5,0 2.9,0.1 4.4,0.2 v 0 c -3.9,19.1 -4.4,44.4 -4.4,44.4 v 0 61.6 0.5 39.9 h 20.9 l 15.1,34 h -0.3 -35.7 l -0.1,0.7 -8.3,44.9 z"
       transform="matrix(1.3333333,0,0,-1.3333333,0,1122.5333)"
       style="fill:url(#linearGradient40);stroke:none" />
  </g>
</svg>
