<?xml version="1.0" encoding="UTF-8" standalone="no"?>
<!-- Generator: Adobe Illustrator 28.0.0, SVG Export Plug-In . SVG Version: 6.00 Build 0)  -->

<svg
   version="1.1"
   id="Layer_1"
   x="0px"
   y="0px"
   viewBox="0 0 1093.1 288"
   xml:space="preserve"
   sodipodi:docname="pal.svg"
   width="1093.1"
   height="288"
   inkscape:version="1.3.2 (091e20ef0f, 2023-11-25)"
   xmlns:inkscape="http://www.inkscape.org/namespaces/inkscape"
   xmlns:sodipodi="http://sodipodi.sourceforge.net/DTD/sodipodi-0.dtd"
   xmlns="http://www.w3.org/2000/svg"
   xmlns:svg="http://www.w3.org/2000/svg"><defs
   id="defs3" /><sodipodi:namedview
   id="namedview3"
   pagecolor="#ffffff"
   bordercolor="#666666"
   borderopacity="1.0"
   inkscape:showpageshadow="2"
   inkscape:pageopacity="0.0"
   inkscape:pagecheckerboard="0"
   inkscape:deskcolor="#d1d1d1"
   inkscape:zoom="0.93073899"
   inkscape:cx="546.34007"
   inkscape:cy="143.97162"
   inkscape:window-width="1920"
   inkscape:window-height="1012"
   inkscape:window-x="0"
   inkscape:window-y="40"
   inkscape:window-maximized="1"
   inkscape:current-layer="Layer_1" />
<style
   type="text/css"
   id="style1">
	.st0{fill:#F9A67D;}
</style>
<path
   class="st0"
   d="M 219.2,0 H 11.6 C 3.9,0 0,4.1 0,12.3 v 46.6 h 207.3 c 13.2,0 22.4,3 27.8,9.1 5.4,6 8.1,15.2 8.1,27.6 V 109 c 0,12.3 -2.7,21.5 -8.1,27.6 -5.4,6 -14.7,9 -27.8,9 H 0 v 133.3 c 0,6 3,9 8.9,9 h 41.8 c 5.7,0 8.5,-3 8.5,-9 v -79 h 160.1 c 29.6,0 50.9,-7.1 63.8,-21.4 12.9,-14.3 19.3,-35.4 19.3,-63.3 V 84.8 C 302.4,56.8 296,35.7 283.1,21.5 270.2,7.2 248.9,0.1 219.3,0.1 Z"
   id="path1" />
<path
   class="st0"
   d="M 1084.5,229 H 927.9 c -10.1,0 -18.4,-0.9 -24.9,-2.7 -6.6,-1.8 -11.8,-4.8 -15.7,-9 -3.9,-4.2 -6.6,-10 -8.3,-17.3 -1.7,-7.3 -2.5,-16.4 -2.5,-27.4 V 9.1 c 0,-6 -2.8,-9 -8.5,-9 h -41.7 c -5.9,0 -8.9,3 -8.9,9 v 169.7 c 0,19.7 2,36.5 6,50.4 4,13.8 10.3,25.7 18.9,34.3 8.7,8.6 19.8,14.9 33.5,18.7 13.7,3.8 30.3,5.8 49.9,5.8 h 158.9 c 5.7,0 8.5,-3 8.5,-9 v -40.9 c 0,-6 -2.9,-9 -8.5,-9 z"
   id="path2" />
<path
   class="st0"
   d="M 723.4,278.5 596.6,31.3 C 590.2,19 583.8,10.7 577.6,6.4 571.4,2.1 564.2,0 556,0 h -27.8 c -8.3,0 -15.5,2.1 -21.6,6.4 -6.2,4.3 -12.5,12.5 -19,24.9 L 360.8,278.5 c -1.3,2.7 -1.6,5 -1,6.8 0.6,1.8 2.6,2.7 6,2.7 h 50.3 c 4.1,0 7.1,-1.8 8.9,-5.3 l 6.6,-13.2 v -0.2 l 20,-39.7 h 0.1 l 37.5,-74 47.4,-94.2 c 1,-1.9 2.5,-2.9 4.3,-2.9 h 2.3 c 1.8,0 3.2,1 4.3,2.9 l 47.4,94.2 37.5,74 h 0.1 l 20,39.7 v 0.2 l 6.7,13.2 c 1.8,3.6 4.8,5.3 8.9,5.3 h 50.3 c 3.3,0 5.3,-0.9 6,-2.7 0.7,-1.8 0.3,-4 -1,-6.8 z"
   id="path3" />
</svg>
