<?xml version="1.0" encoding="UTF-8" standalone="no"?>
<!-- Created with Inkscape (http://www.inkscape.org/) -->

<svg
   version="1.1"
   id="svg1"
   width="687.19092"
   height="159.34532"
   viewBox="0 0 687.19091 159.34532"
   sodipodi:docname="catec.svg"
   inkscape:version="1.3.2 (091e20ef0f, 2023-11-25)"
   xmlns:inkscape="http://www.inkscape.org/namespaces/inkscape"
   xmlns:sodipodi="http://sodipodi.sourceforge.net/DTD/sodipodi-0.dtd"
   xmlns:xlink="http://www.w3.org/1999/xlink"
   xmlns="http://www.w3.org/2000/svg"
   xmlns:svg="http://www.w3.org/2000/svg">
  <defs
     id="defs1">
    <clipPath
       clipPathUnits="userSpaceOnUse"
       id="clipPath2">
      <path
         d="M 0,595.276 H 841.89 V 0 H 0 Z"
         transform="translate(-163.2483,-297.88931)"
         id="path2" />
    </clipPath>
    <clipPath
       clipPathUnits="userSpaceOnUse"
       id="clipPath4">
      <path
         d="M 0,595.276 H 841.89 V 0 H 0 Z"
         transform="translate(-466.78601,-355.38051)"
         id="path4" />
    </clipPath>
    <clipPath
       clipPathUnits="userSpaceOnUse"
       id="clipPath6">
      <path
         d="M 0,595.276 H 841.89 V 0 H 0 Z"
         transform="translate(-509.68991,-262.85861)"
         id="path6" />
    </clipPath>
    <clipPath
       clipPathUnits="userSpaceOnUse"
       id="clipPath8">
      <path
         d="M 0,595.276 H 841.89 V 0 H 0 Z"
         transform="translate(-571.36852,-297.88931)"
         id="path8" />
    </clipPath>
    <clipPath
       clipPathUnits="userSpaceOnUse"
       id="clipPath10">
      <path
         d="M 0,595.276 H 841.89 V 0 H 0 Z"
         transform="translate(-387.00601,-239.89511)"
         id="path10" />
    </clipPath>
  </defs>
  <sodipodi:namedview
     id="namedview1"
     pagecolor="#ffffff"
     bordercolor="#666666"
     borderopacity="1.0"
     inkscape:showpageshadow="2"
     inkscape:pageopacity="0.0"
     inkscape:pagecheckerboard="0"
     inkscape:deskcolor="#d1d1d1"
     inkscape:zoom="0.96509851"
     inkscape:cx="343.48825"
     inkscape:cy="79.784601"
     inkscape:window-width="1920"
     inkscape:window-height="1012"
     inkscape:window-x="0"
     inkscape:window-y="40"
     inkscape:window-maximized="1"
     inkscape:current-layer="g1">
    <inkscape:page
       x="0"
       y="0"
       inkscape:label="1"
       id="page1"
       width="687.19092"
       height="159.34532"
       margin="0"
       bleed="0"
       inkscape:export-filename="catec.svg"
       inkscape:export-xdpi="96"
       inkscape:export-ydpi="96" />
  </sodipodi:namedview>
  <g
     id="g1"
     inkscape:groupmode="layer"
     inkscape:label="1"
     transform="translate(-217.6644,-317.17826)">
    <path
       id="path1"
       d="m 0,0 c 0,32.517 26.148,59.503 58.665,59.503 20.281,0 38.048,-10.224 48.608,-25.645 L 86.824,19.612 C 80.79,28.998 71.906,34.697 59.838,34.697 40.394,34.697 26.483,19.109 26.483,0 c 0,-19.107 13.408,-35.198 33.188,-35.198 12.235,0 21.119,5.699 27.153,15.085 L 107.273,-34.36 C 96.713,-49.782 78.946,-60.006 58.665,-60.006 26.148,-60.006 0,-32.853 0,0"
       style="fill:#00365f;fill-opacity:1;fill-rule:nonzero;stroke:none"
       transform="matrix(1.3333333,0,0,-1.3333333,217.6644,396.5156)"
       clip-path="url(#clipPath2)" />
    <path
       id="path3"
       d="m 0,0 v -22.962 h -30.505 v -92.523 h -26.314 v 92.523 H -87.327 V 0 Z"
       style="fill:#00365f;fill-opacity:1;fill-rule:nonzero;stroke:none"
       transform="matrix(1.3333333,0,0,-1.3333333,622.38133,319.86067)"
       clip-path="url(#clipPath4)" />
    <path
       id="path5"
       d="M 0,0 H 49.277 V -22.963 H -26.314 V 92.522 H 47.771 V 69.56 H 0 V 45.758 H 41.903 V 22.125 H 0 Z"
       style="fill:#00365f;fill-opacity:1;fill-rule:nonzero;stroke:none"
       transform="matrix(1.3333333,0,0,-1.3333333,679.58653,443.2232)"
       clip-path="url(#clipPath6)" />
    <path
       id="path7"
       d="m 0,0 c 0,32.517 26.149,59.503 58.666,59.503 20.281,0 38.047,-10.224 48.607,-25.645 L 86.824,19.612 C 80.791,28.998 71.908,34.697 59.84,34.697 40.397,34.697 26.484,19.109 26.484,0 c 0,-19.107 13.41,-35.198 33.188,-35.198 12.236,0 21.119,5.699 27.152,15.085 L 107.273,-34.36 C 96.713,-49.782 78.947,-60.006 58.666,-60.006 26.149,-60.006 0,-32.853 0,0"
       style="fill:#00365f;fill-opacity:1;fill-rule:nonzero;stroke:none"
       transform="matrix(1.3333333,0,0,-1.3333333,761.82467,396.5156)"
       clip-path="url(#clipPath8)" />
    <path
       id="path9"
       d="m 0,0 -37.828,104.161 c -2.968,8.016 -10.613,13.336 -19.16,13.336 v 0 c -8.548,0 -16.192,-5.32 -19.16,-13.336 L -113.977,0 h 28.288 L -56.988,79.514 -28.288,0 Z"
       style="fill:#00365f;fill-opacity:1;fill-rule:nonzero;stroke:none"
       transform="matrix(1.3333333,0,0,-1.3333333,516.008,473.8412)"
       clip-path="url(#clipPath10)" />
  </g>
</svg>
