<?xml version="1.0" encoding="UTF-8" standalone="no"?>
<!-- Created with Inkscape (http://www.inkscape.org/) -->

<svg
   version="1.1"
   id="svg1"
   width="430.26227"
   height="154.55641"
   viewBox="0 0 430.26226 154.55641"
   sodipodi:docname="EPS-logo (1).pdf"
   xmlns:inkscape="http://www.inkscape.org/namespaces/inkscape"
   xmlns:sodipodi="http://sodipodi.sourceforge.net/DTD/sodipodi-0.dtd"
   xmlns="http://www.w3.org/2000/svg"
   xmlns:svg="http://www.w3.org/2000/svg">
  <defs
     id="defs1">
    <clipPath
       clipPathUnits="userSpaceOnUse"
       id="clipPath6">
      <path
         d="M 0,595.28 H 841.89 V 0 H 0 Z"
         transform="translate(-128.2603,-451.11201)"
         id="path6" />
    </clipPath>
    <clipPath
       clipPathUnits="userSpaceOnUse"
       id="clipPath8">
      <path
         d="M 0,595.28 H 841.89 V 0 H 0 Z"
         transform="translate(-169.5625,-451.99781)"
         id="path8" />
    </clipPath>
    <clipPath
       clipPathUnits="userSpaceOnUse"
       id="clipPath10">
      <path
         d="M 0,595.28 H 841.89 V 0 H 0 Z"
         transform="translate(-184.57761,-465.24091)"
         id="path10" />
    </clipPath>
    <clipPath
       clipPathUnits="userSpaceOnUse"
       id="clipPath12">
      <path
         d="M 0,595.28 H 841.89 V 0 H 0 Z"
         transform="translate(-213.0508,-444.29711)"
         id="path12" />
    </clipPath>
    <clipPath
       clipPathUnits="userSpaceOnUse"
       id="clipPath14">
      <path
         d="M 0,595.28 H 841.89 V 0 H 0 Z"
         transform="translate(-239.99511,-444.29711)"
         id="path14" />
    </clipPath>
    <clipPath
       clipPathUnits="userSpaceOnUse"
       id="clipPath16">
      <path
         d="M 0,595.28 H 841.89 V 0 H 0 Z"
         transform="translate(-276.16851,-452.58321)"
         id="path16" />
    </clipPath>
    <clipPath
       clipPathUnits="userSpaceOnUse"
       id="clipPath18">
      <path
         d="M 0,595.28 H 841.89 V 0 H 0 Z"
         transform="translate(-106.7305,-429.18821)"
         id="path18" />
    </clipPath>
    <clipPath
       clipPathUnits="userSpaceOnUse"
       id="clipPath20">
      <path
         d="M 0,595.28 H 841.89 V 0 H 0 Z"
         transform="translate(-132.832,-422.27371)"
         id="path20" />
    </clipPath>
    <clipPath
       clipPathUnits="userSpaceOnUse"
       id="clipPath22">
      <path
         d="M 0,595.28 H 841.89 V 0 H 0 Z"
         transform="translate(-159.519,-411.78731)"
         id="path22" />
    </clipPath>
    <clipPath
       clipPathUnits="userSpaceOnUse"
       id="clipPath24">
      <path
         d="M 0,595.28 H 841.89 V 0 H 0 Z"
         id="path24" />
    </clipPath>
    <clipPath
       clipPathUnits="userSpaceOnUse"
       id="clipPath26">
      <path
         d="M 0,595.28 H 841.89 V 0 H 0 Z"
         transform="translate(-204.75001,-411.78731)"
         id="path26" />
    </clipPath>
    <clipPath
       clipPathUnits="userSpaceOnUse"
       id="clipPath28">
      <path
         d="M 0,595.28 H 841.89 V 0 H 0 Z"
         transform="translate(-230.5942,-433.93141)"
         id="path28" />
    </clipPath>
    <clipPath
       clipPathUnits="userSpaceOnUse"
       id="clipPath30">
      <path
         d="M 0,595.28 H 841.89 V 0 H 0 Z"
         transform="translate(-265.4536,-419.48801)"
         id="path30" />
    </clipPath>
    <clipPath
       clipPathUnits="userSpaceOnUse"
       id="clipPath32">
      <path
         d="M 0,595.28 H 841.89 V 0 H 0 Z"
         transform="translate(-280.54,-411.78731)"
         id="path32" />
    </clipPath>
    <clipPath
       clipPathUnits="userSpaceOnUse"
       id="clipPath34">
      <path
         d="M 0,595.28 H 841.89 V 0 H 0 Z"
         id="path34" />
    </clipPath>
    <clipPath
       clipPathUnits="userSpaceOnUse"
       id="clipPath36">
      <path
         d="M 0,595.28 H 841.89 V 0 H 0 Z"
         transform="translate(-337.78611,-419.48801)"
         id="path36" />
    </clipPath>
    <clipPath
       clipPathUnits="userSpaceOnUse"
       id="clipPath38">
      <path
         d="M 0,595.28 H 841.89 V 0 H 0 Z"
         transform="translate(-363.93021,-420.07351)"
         id="path38" />
    </clipPath>
    <clipPath
       clipPathUnits="userSpaceOnUse"
       id="clipPath40">
      <path
         d="M 0,595.28 H 841.89 V 0 H 0 Z"
         transform="translate(-101.43021,-386.09251)"
         id="path40" />
    </clipPath>
    <clipPath
       clipPathUnits="userSpaceOnUse"
       id="clipPath42">
      <path
         d="M 0,595.28 H 841.89 V 0 H 0 Z"
         transform="translate(-129.30321,-400.22191)"
         id="path42" />
    </clipPath>
    <clipPath
       clipPathUnits="userSpaceOnUse"
       id="clipPath44">
      <path
         d="M 0,595.28 H 841.89 V 0 H 0 Z"
         transform="translate(-162.0049,-396.67891)"
         id="path44" />
    </clipPath>
    <clipPath
       clipPathUnits="userSpaceOnUse"
       id="clipPath46">
      <path
         d="M 0,595.28 H 841.89 V 0 H 0 Z"
         transform="translate(-184.60641,-379.27761)"
         id="path46" />
    </clipPath>
    <clipPath
       clipPathUnits="userSpaceOnUse"
       id="clipPath48">
      <path
         d="M 0,595.28 H 841.89 V 0 H 0 Z"
         transform="translate(-215.67921,-391.36401)"
         id="path48" />
    </clipPath>
    <clipPath
       clipPathUnits="userSpaceOnUse"
       id="clipPath50">
      <path
         d="M 0,595.28 H 841.89 V 0 H 0 Z"
         id="path50" />
    </clipPath>
    <clipPath
       clipPathUnits="userSpaceOnUse"
       id="clipPath52">
      <path
         d="M 0,595.28 H 841.89 V 0 H 0 Z"
         transform="translate(-258.82471,-389.76391)"
         id="path52" />
    </clipPath>
    <clipPath
       clipPathUnits="userSpaceOnUse"
       id="clipPath54">
      <path
         d="M 0,595.28 H 841.89 V 0 H 0 Z"
         transform="translate(-289.64061,-391.36401)"
         id="path54" />
    </clipPath>
    <clipPath
       clipPathUnits="userSpaceOnUse"
       id="clipPath56">
      <path
         d="M 0,595.28 H 841.89 V 0 H 0 Z"
         transform="translate(-102.3574,-369.79951)"
         id="path56" />
    </clipPath>
    <clipPath
       clipPathUnits="userSpaceOnUse"
       id="clipPath58">
      <path
         d="M 0,595.28 H 841.89 V 0 H 0 Z"
         transform="translate(-133.2402,-366.45331)"
         id="path58" />
    </clipPath>
    <clipPath
       clipPathUnits="userSpaceOnUse"
       id="clipPath60">
      <path
         d="M 0,595.28 H 841.89 V 0 H 0 Z"
         transform="translate(-157.8936,-359.92261)"
         id="path60" />
    </clipPath>
    <clipPath
       clipPathUnits="userSpaceOnUse"
       id="clipPath62">
      <path
         d="M 0,595.28 H 841.89 V 0 H 0 Z"
         transform="translate(-49.019501,-425.24531)"
         id="path62" />
    </clipPath>
  </defs>
  <sodipodi:namedview
     id="namedview1"
     pagecolor="#ffffff"
     bordercolor="#666666"
     borderopacity="1.0"
     inkscape:showpageshadow="2"
     inkscape:pageopacity="0.0"
     inkscape:pagecheckerboard="0"
     inkscape:deskcolor="#d1d1d1" />
  <g
     id="g1"
     inkscape:groupmode="layer"
     inkscape:label="1"
     transform="translate(-44.205156,-86.416347)">
    <g
       id="g375"
       transform="translate(-9.2114644,-33.581157)">
      <path
         id="path4"
         d="m 124.72662,148.39977 v -27.92533 h 20.70533 v 4.724 h -15.06666 v 6.19066 h 14.02 v 4.70534 h -14.02 v 7.6 h 15.6 v 4.70533 z"
         style="fill:#f9b118;fill-opacity:1;fill-rule:nonzero;stroke:none;stroke-width:1.33333" />
      <path
         id="path5"
         d="m 0,0 4.115,0.4 c 0.247,-1.381 0.749,-2.396 1.508,-3.043 0.755,-0.648 1.777,-0.972 3.064,-0.972 1.361,0 2.387,0.288 3.079,0.865 0.689,0.576 1.035,1.25 1.035,2.021 0,0.496 -0.146,0.917 -0.435,1.265 -0.292,0.347 -0.799,0.65 -1.522,0.907 C 10.348,1.614 9.22,1.919 7.458,2.357 5.191,2.919 3.6,3.609 2.686,4.429 1.4,5.581 0.757,6.986 0.757,8.643 c 0,1.067 0.302,2.065 0.907,2.993 0.605,0.929 1.476,1.636 2.616,2.122 1.137,0.485 2.511,0.728 4.12,0.728 2.629,0 4.607,-0.576 5.937,-1.728 1.328,-1.153 2.026,-2.691 2.093,-4.615 L 12.201,7.958 c -0.181,1.076 -0.57,1.85 -1.165,2.321 -0.596,0.471 -1.488,0.707 -2.678,0.707 -1.229,0 -2.191,-0.252 -2.886,-0.757 C 5.024,9.905 4.8,9.472 4.8,8.929 4.8,8.434 5.01,8.01 5.429,7.657 5.962,7.209 7.258,6.743 9.315,6.257 11.372,5.771 12.893,5.269 13.88,4.75 c 0.984,-0.519 1.756,-1.229 2.315,-2.129 0.555,-0.9 0.835,-2.012 0.835,-3.335 0,-1.201 -0.334,-2.325 -1,-3.372 -0.667,-1.048 -1.61,-1.827 -2.829,-2.336 -1.219,-0.51 -2.739,-0.765 -4.557,-0.765 -2.648,0 -4.682,0.613 -6.101,1.836 C 1.124,-4.126 0.276,-2.343 0,0"
         style="fill:#15366f;fill-opacity:1;fill-rule:nonzero;stroke:none"
         transform="matrix(1.3333333,0,0,-1.3333333,159.07102,139.31324)"
         clip-path="url(#clipPath6)" />
      <path
         id="path7"
         d="M 0,0 4.1,-1.3 C 3.472,-3.586 2.426,-5.284 0.964,-6.394 -0.499,-7.503 -2.353,-8.058 -4.6,-8.058 c -2.781,0 -5.067,0.95 -6.858,2.85 -1.79,1.9 -2.686,4.498 -2.686,7.793 0,3.486 0.9,6.194 2.701,8.123 1.8,1.928 4.167,2.893 7.1,2.893 2.562,0 4.643,-0.758 6.243,-2.272 0.953,-0.895 1.667,-2.181 2.143,-3.857 l -4.186,-1 C -0.391,7.557 -0.906,8.415 -1.694,9.043 -2.478,9.672 -3.434,9.986 -4.557,9.986 -6.11,9.986 -7.37,9.429 -8.335,8.314 -9.304,7.2 -9.786,5.396 -9.786,2.9 c 0,-2.648 0.476,-4.534 1.429,-5.657 0.952,-1.124 2.19,-1.686 3.714,-1.686 1.124,0 2.091,0.357 2.9,1.071 0.81,0.714 1.39,1.838 1.743,3.372"
         style="fill:#15366f;fill-opacity:1;fill-rule:nonzero;stroke:none"
         transform="matrix(1.3333333,0,0,-1.3333333,214.14062,138.13217)"
         clip-path="url(#clipPath8)" />
      <path
         id="path9"
         d="m 0,0 h 4.229 v -11.343 c 0,-1.801 0.052,-2.967 0.157,-3.5 0.181,-0.858 0.611,-1.546 1.292,-2.065 0.681,-0.519 1.613,-0.779 2.794,-0.779 1.2,0 2.105,0.246 2.715,0.736 0.609,0.491 0.976,1.093 1.1,1.807 0.123,0.715 0.185,1.901 0.185,3.558 V 0 h 4.229 v -11 c 0,-2.515 -0.115,-4.291 -0.343,-5.329 -0.229,-1.038 -0.651,-1.915 -1.263,-2.629 -0.616,-0.714 -1.437,-1.283 -2.466,-1.707 -1.028,-0.424 -2.371,-0.636 -4.028,-0.636 -2,0 -3.518,0.231 -4.552,0.693 -1.033,0.462 -1.849,1.062 -2.449,1.8 C 1,-18.07 0.605,-17.296 0.415,-16.486 0.138,-15.286 0,-13.515 0,-11.172 Z"
         style="fill:#15366f;fill-opacity:1;fill-rule:nonzero;stroke:none"
         transform="matrix(1.3333333,0,0,-1.3333333,234.16076,120.47471)"
         clip-path="url(#clipPath10)" />
      <path
         id="path11"
         d="M 0,0 V 20.944 H 15.529 V 17.401 H 4.229 V 12.758 H 14.744 V 9.229 H 4.229 v -5.7 h 11.7 V 0 Z"
         style="fill:#15366f;fill-opacity:1;fill-rule:nonzero;stroke:none"
         transform="matrix(1.3333333,0,0,-1.3333333,272.12502,148.39977)"
         clip-path="url(#clipPath12)" />
      <path
         id="path13"
         d="M 0,0 V 20.772 H 4.229 V 3.529 H 14.744 V 0 Z"
         style="fill:#15366f;fill-opacity:1;fill-rule:nonzero;stroke:none"
         transform="matrix(1.3333333,0,0,-1.3333333,308.05076,148.39977)"
         clip-path="url(#clipPath14)" />
      <path
         id="path15"
         d="M 0,0 -2.886,7.772 -5.715,0 Z m 7.786,-8.286 h -4.6 l -1.829,4.757 h -8.372 l -1.729,-4.757 h -4.485 l 8.157,20.944 H -0.6 Z"
         style="fill:#15366f;fill-opacity:1;fill-rule:nonzero;stroke:none"
         transform="matrix(1.3333333,0,0,-1.3333333,356.28196,137.35164)"
         clip-path="url(#clipPath16)" />
      <path
         id="path17"
         d="m 0,0 v -5.943 h 2.314 c 1.667,0 2.782,0.11 3.344,0.329 0.562,0.218 1.001,0.562 1.322,1.028 0.317,0.467 0.478,1.01 0.478,1.629 0,0.762 -0.224,1.391 -0.672,1.886 -0.448,0.495 -1.014,0.804 -1.7,0.928 C 4.582,-0.047 3.567,0 2.043,0 Z M -4.229,-17.401 V 3.543 h 6.787 c 2.571,0 4.247,-0.105 5.028,-0.314 1.2,-0.314 2.205,-0.998 3.015,-2.05 0.809,-1.053 1.214,-2.412 1.214,-4.079 0,-1.286 -0.233,-2.367 -0.7,-3.243 -0.467,-0.876 -1.06,-1.565 -1.78,-2.065 C 8.617,-8.708 7.886,-9.039 7.144,-9.2 6.134,-9.4 4.672,-9.5 2.757,-9.5 H 0 v -7.901 z"
         style="fill:#f9b118;fill-opacity:1;fill-rule:nonzero;stroke:none"
         transform="matrix(1.3333333,0,0,-1.3333333,130.36462,168.54497)"
         clip-path="url(#clipPath18)" />
      <path
         id="path19"
         d="m 0,0 c 0,-2.372 0.548,-4.169 1.643,-5.393 1.095,-1.224 2.486,-1.836 4.171,-1.836 1.686,0 3.069,0.607 4.152,1.822 1.079,1.214 1.62,3.035 1.62,5.464 0,2.401 -0.526,4.191 -1.579,5.372 C 8.955,6.61 7.558,7.201 5.814,7.201 4.072,7.201 2.667,6.603 1.6,5.408 0.533,4.212 0,2.41 0,0 m -4.357,-0.143 c 0,2.134 0.319,3.924 0.957,5.372 0.476,1.066 1.125,2.024 1.949,2.872 0.824,0.847 1.727,1.476 2.708,1.885 1.305,0.553 2.81,0.829 4.515,0.829 3.085,0 5.554,-0.957 7.407,-2.872 1.852,-1.914 2.779,-4.576 2.779,-7.986 0,-3.381 -0.919,-6.026 -2.757,-7.936 -1.839,-1.91 -4.296,-2.864 -7.372,-2.864 -3.115,0 -5.591,0.949 -7.429,2.85 -1.838,1.9 -2.757,4.517 -2.757,7.85"
         style="fill:#15366f;fill-opacity:1;fill-rule:nonzero;stroke:none"
         transform="matrix(1.3333333,0,0,-1.3333333,165.16662,177.76431)"
         clip-path="url(#clipPath20)" />
      <path
         id="path21"
         d="M 0,0 V 20.772 H 4.229 V 3.529 H 14.744 V 0 Z"
         style="fill:#15366f;fill-opacity:1;fill-rule:nonzero;stroke:none"
         transform="matrix(1.3333333,0,0,-1.3333333,200.74929,191.74617)"
         clip-path="url(#clipPath22)" />
      <path
         id="path23"
         d="m 184.463,432.732 h 4.229 v -20.944 h -4.229 z"
         style="fill:#15366f;fill-opacity:1;fill-rule:nonzero;stroke:none"
         transform="matrix(1.3333333,0,0,-1.3333333,-11.942713,740.79591)"
         clip-path="url(#clipPath24)" />
      <path
         id="path25"
         d="m 0,0 v 17.401 h -6.214 v 3.543 h 16.643 v -3.543 h -6.2 V 0 Z"
         style="fill:#15366f;fill-opacity:1;fill-rule:nonzero;stroke:none"
         transform="matrix(1.3333333,0,0,-1.3333333,261.05729,191.74617)"
         clip-path="url(#clipPath26)" />
      <path
         id="path27"
         d="m 0,0 1.972,4.272 h 4.5 L 2.543,0 Z M -5.372,-22.144 V -1.2 h 15.53 V -4.743 H -1.143 V -9.386 H 9.372 v -3.529 H -1.143 v -5.7 h 11.701 v -3.529 z"
         style="fill:#15366f;fill-opacity:1;fill-rule:nonzero;stroke:none"
         transform="matrix(1.3333333,0,0,-1.3333333,295.51622,162.22071)"
         clip-path="url(#clipPath28)" />
      <path
         id="path29"
         d="M 0,0 4.1,-1.3 C 3.472,-3.586 2.425,-5.284 0.963,-6.394 c -1.462,-1.109 -3.316,-1.664 -5.564,-1.664 -2.78,0 -5.066,0.95 -6.857,2.85 -1.791,1.9 -2.686,4.499 -2.686,7.794 0,3.486 0.9,6.193 2.7,8.122 1.8,1.928 4.167,2.893 7.101,2.893 2.562,0 4.643,-0.758 6.243,-2.272 0.953,-0.895 1.667,-2.181 2.143,-3.857 l -4.186,-1 C -0.391,7.558 -0.907,8.415 -1.694,9.043 -2.478,9.672 -3.434,9.986 -4.558,9.986 -6.11,9.986 -7.371,9.429 -8.335,8.314 -9.304,7.2 -9.787,5.396 -9.787,2.9 c 0,-2.648 0.477,-4.534 1.429,-5.657 0.953,-1.124 2.191,-1.686 3.715,-1.686 1.123,0 2.09,0.357 2.9,1.071 C -0.934,-2.657 -0.353,-1.534 0,0"
         style="fill:#15366f;fill-opacity:1;fill-rule:nonzero;stroke:none"
         transform="matrix(1.3333333,0,0,-1.3333333,341.99542,181.47857)"
         clip-path="url(#clipPath30)" />
      <path
         id="path31"
         d="M 0,0 V 20.944 H 4.114 L 12.687,6.958 v 13.986 h 3.928 V 0 H 12.372 L 3.929,13.658 V 0 Z"
         style="fill:#15366f;fill-opacity:1;fill-rule:nonzero;stroke:none"
         transform="matrix(1.3333333,0,0,-1.3333333,362.11062,191.74617)"
         clip-path="url(#clipPath32)" />
      <path
         id="path33"
         d="m 308.813,432.732 h 4.229 v -20.944 h -4.229 z"
         style="fill:#15366f;fill-opacity:1;fill-rule:nonzero;stroke:none"
         transform="matrix(1.3333333,0,0,-1.3333333,-11.942713,740.79591)"
         clip-path="url(#clipPath34)" />
      <path
         id="path35"
         d="M 0,0 4.1,-1.3 C 3.472,-3.586 2.425,-5.284 0.963,-6.394 c -1.462,-1.109 -3.316,-1.664 -5.564,-1.664 -2.78,0 -5.066,0.95 -6.857,2.85 -1.791,1.9 -2.686,4.499 -2.686,7.794 0,3.486 0.9,6.193 2.7,8.122 1.8,1.928 4.167,2.893 7.101,2.893 2.562,0 4.643,-0.758 6.243,-2.272 0.953,-0.895 1.667,-2.181 2.143,-3.857 l -4.186,-1 C -0.391,7.558 -0.907,8.415 -1.694,9.043 -2.478,9.672 -3.434,9.986 -4.558,9.986 -6.11,9.986 -7.371,9.429 -8.335,8.314 -9.304,7.2 -9.787,5.396 -9.787,2.9 c 0,-2.648 0.477,-4.534 1.429,-5.657 0.953,-1.124 2.191,-1.686 3.715,-1.686 1.123,0 2.09,0.357 2.9,1.071 C -0.934,-2.657 -0.353,-1.534 0,0"
         style="fill:#15366f;fill-opacity:1;fill-rule:nonzero;stroke:none"
         transform="matrix(1.3333333,0,0,-1.3333333,438.43876,181.47857)"
         clip-path="url(#clipPath36)" />
      <path
         id="path37"
         d="M 0,0 -2.886,7.772 -5.714,0 Z m 7.786,-8.286 h -4.6 l -1.829,4.757 h -8.372 l -1.728,-4.757 h -4.486 l 8.157,20.944 H -0.6 Z"
         style="fill:#15366f;fill-opacity:1;fill-rule:nonzero;stroke:none"
         transform="matrix(1.3333333,0,0,-1.3333333,473.29756,180.69791)"
         clip-path="url(#clipPath38)" />
      <path
         id="path39"
         d="m 0,0 4.115,0.4 c 0.247,-1.381 0.749,-2.396 1.508,-3.043 0.755,-0.648 1.777,-0.972 3.064,-0.972 1.361,0 2.387,0.288 3.079,0.865 0.689,0.576 1.035,1.25 1.035,2.021 0,0.496 -0.146,0.917 -0.435,1.265 -0.292,0.347 -0.799,0.65 -1.522,0.907 C 10.348,1.614 9.22,1.919 7.458,2.357 5.191,2.919 3.601,3.61 2.686,4.429 1.4,5.581 0.757,6.986 0.757,8.643 c 0,1.067 0.302,2.065 0.907,2.993 0.605,0.929 1.476,1.636 2.616,2.122 1.137,0.486 2.511,0.728 4.12,0.728 2.629,0 4.607,-0.576 5.937,-1.728 1.328,-1.153 2.026,-2.691 2.093,-4.615 L 12.201,7.958 c -0.181,1.076 -0.57,1.85 -1.165,2.321 -0.596,0.471 -1.488,0.707 -2.678,0.707 -1.229,0 -2.191,-0.252 -2.886,-0.757 C 5.024,9.905 4.8,9.472 4.8,8.929 4.8,8.434 5.01,8.01 5.429,7.657 5.962,7.21 7.258,6.743 9.315,6.257 11.372,5.771 12.893,5.269 13.88,4.75 14.864,4.231 15.636,3.521 16.195,2.622 16.75,1.721 17.03,0.609 17.03,-0.714 c 0,-1.201 -0.334,-2.325 -1,-3.372 -0.667,-1.048 -1.61,-1.826 -2.829,-2.336 -1.219,-0.51 -2.739,-0.764 -4.557,-0.764 -2.648,0 -4.682,0.612 -6.101,1.835 C 1.124,-4.126 0.276,-2.343 0,0"
         style="fill:#f9b118;fill-opacity:1;fill-rule:nonzero;stroke:none"
         transform="matrix(1.3333333,0,0,-1.3333333,123.29756,226.00591)"
         clip-path="url(#clipPath40)" />
      <path
         id="path41"
         d="m 0,0 h 4.229 v -11.344 c 0,-1.8 0.052,-2.967 0.157,-3.5 0.181,-0.857 0.611,-1.545 1.292,-2.064 0.681,-0.519 1.613,-0.779 2.794,-0.779 1.2,0 2.105,0.246 2.715,0.736 0.609,0.491 0.976,1.093 1.1,1.807 0.123,0.714 0.185,1.9 0.185,3.558 V 0 h 4.229 v -11.001 c 0,-2.514 -0.115,-4.291 -0.343,-5.329 -0.229,-1.038 -0.651,-1.914 -1.263,-2.628 -0.616,-0.715 -1.437,-1.284 -2.466,-1.708 -1.028,-0.423 -2.371,-0.635 -4.028,-0.635 -2,0 -3.518,0.231 -4.552,0.693 -1.033,0.462 -1.849,1.062 -2.449,1.8 C 1,-18.07 0.605,-17.296 0.415,-16.487 0.138,-15.287 0,-13.515 0,-11.172 Z"
         style="fill:#15366f;fill-opacity:1;fill-rule:nonzero;stroke:none"
         transform="matrix(1.3333333,0,0,-1.3333333,160.46156,207.16671)"
         clip-path="url(#clipPath42)" />
      <path
         id="path43"
         d="m 0,0 v -5.943 h 2.314 c 1.667,0 2.782,0.109 3.344,0.328 0.562,0.219 1.001,0.562 1.322,1.029 0.317,0.466 0.478,1.009 0.478,1.628 0,0.762 -0.224,1.391 -0.672,1.886 -0.448,0.495 -1.014,0.805 -1.7,0.929 C 4.582,-0.048 3.567,0 2.043,0 Z M -4.229,-17.401 V 3.543 h 6.787 c 2.571,0 4.247,-0.105 5.028,-0.314 1.2,-0.315 2.205,-0.998 3.015,-2.051 0.809,-1.052 1.214,-2.411 1.214,-4.078 0,-1.286 -0.233,-2.367 -0.7,-3.244 -0.467,-0.876 -1.06,-1.564 -1.78,-2.064 -0.718,-0.5 -1.449,-0.831 -2.191,-0.993 -1.01,-0.2 -2.472,-0.3 -4.387,-0.3 H 0 v -7.9 z"
         style="fill:#15366f;fill-opacity:1;fill-rule:nonzero;stroke:none"
         transform="matrix(1.3333333,0,0,-1.3333333,204.06382,211.89071)"
         clip-path="url(#clipPath44)" />
      <path
         id="path45"
         d="M 0,0 V 20.944 H 15.529 V 17.401 H 4.229 V 12.758 H 14.744 V 9.229 H 4.229 v -5.7 h 11.7 V 0 Z"
         style="fill:#15366f;fill-opacity:1;fill-rule:nonzero;stroke:none"
         transform="matrix(1.3333333,0,0,-1.3333333,234.19916,235.09244)"
         clip-path="url(#clipPath46)" />
      <path
         id="path47"
         d="m 0,0 h 3.129 c 2.029,0 3.295,0.086 3.8,0.257 0.505,0.172 0.9,0.467 1.186,0.886 C 8.4,1.562 8.543,2.086 8.543,2.714 8.543,3.419 8.354,3.988 7.979,4.422 7.602,4.855 7.072,5.129 6.386,5.243 6.043,5.291 5.015,5.315 3.3,5.315 H 0 Z M -4.229,-12.086 V 8.858 h 8.901 c 2.238,0 3.865,-0.189 4.878,-0.565 1.016,-0.376 1.827,-1.045 2.436,-2.007 0.61,-0.962 0.915,-2.062 0.915,-3.3 0,-1.571 -0.462,-2.869 -1.386,-3.893 C 10.591,-1.931 9.21,-2.576 7.372,-2.843 8.286,-3.376 9.041,-3.962 9.636,-4.6 10.231,-5.238 11.034,-6.372 12.043,-8 l 2.558,-4.086 H 9.543 L 6.486,-7.529 C 5.4,-5.9 4.658,-4.874 4.257,-4.45 3.857,-4.026 3.434,-3.736 2.986,-3.579 2.539,-3.421 1.829,-3.343 0.857,-3.343 H 0 v -8.743 z"
         style="fill:#15366f;fill-opacity:1;fill-rule:nonzero;stroke:none"
         transform="matrix(1.3333333,0,0,-1.3333333,275.62956,218.97724)"
         clip-path="url(#clipPath48)" />
      <path
         id="path49"
         d="m 239.752,400.222 h 4.229 v -20.944 h -4.229 z"
         style="fill:#15366f;fill-opacity:1;fill-rule:nonzero;stroke:none"
         transform="matrix(1.3333333,0,0,-1.3333333,-11.942713,740.79591)"
         clip-path="url(#clipPath50)" />
      <path
         id="path51"
         d="m 0,0 c 0,-2.372 0.547,-4.169 1.643,-5.393 1.095,-1.224 2.485,-1.836 4.171,-1.836 1.686,0 3.069,0.607 4.151,1.822 1.08,1.214 1.621,3.035 1.621,5.464 0,2.401 -0.527,4.191 -1.579,5.372 C 8.954,6.61 7.558,7.201 5.814,7.201 4.071,7.201 2.667,6.603 1.6,5.408 0.533,4.212 0,2.41 0,0 m -4.357,-0.143 c 0,2.134 0.318,3.924 0.957,5.372 0.476,1.067 1.125,2.024 1.949,2.872 0.824,0.847 1.727,1.476 2.708,1.885 1.305,0.553 2.81,0.829 4.514,0.829 3.086,0 5.555,-0.957 7.407,-2.872 1.853,-1.914 2.78,-4.576 2.78,-7.985 0,-3.382 -0.919,-6.027 -2.757,-7.937 -1.839,-1.91 -4.296,-2.864 -7.372,-2.864 -3.115,0 -5.591,0.95 -7.429,2.85 -1.838,1.9 -2.757,4.517 -2.757,7.85"
         style="fill:#15366f;fill-opacity:1;fill-rule:nonzero;stroke:none"
         transform="matrix(1.3333333,0,0,-1.3333333,333.15689,221.11071)"
         clip-path="url(#clipPath52)" />
      <path
         id="path53"
         d="M 0,0 H 3.128 C 5.157,0 6.424,0.086 6.929,0.257 7.434,0.429 7.829,0.724 8.115,1.143 8.4,1.562 8.543,2.086 8.543,2.714 8.543,3.419 8.354,3.988 7.978,4.422 7.602,4.855 7.072,5.129 6.386,5.243 6.043,5.291 5.015,5.315 3.3,5.315 H 0 Z M -4.229,-12.086 V 8.858 h 8.9 C 6.91,8.858 8.537,8.669 9.55,8.293 10.565,7.917 11.376,7.248 11.986,6.286 12.596,5.324 12.9,4.224 12.9,2.986 12.9,1.415 12.438,0.117 11.515,-0.907 10.591,-1.931 9.21,-2.576 7.372,-2.843 8.286,-3.376 9.04,-3.962 9.635,-4.6 10.23,-5.238 11.034,-6.372 12.043,-8 l 2.558,-4.086 H 9.543 L 6.486,-7.529 C 5.4,-5.9 4.657,-4.874 4.257,-4.45 3.857,-4.026 3.434,-3.736 2.986,-3.579 2.538,-3.421 1.829,-3.343 0.857,-3.343 H 0 v -8.743 z"
         style="fill:#15366f;fill-opacity:1;fill-rule:nonzero;stroke:none"
         transform="matrix(1.3333333,0,0,-1.3333333,374.24476,218.97724)"
         clip-path="url(#clipPath54)" />
      <path
         id="path55"
         d="m 0,0 h 3.994 v -10.713 c 0,-1.701 0.049,-2.802 0.148,-3.306 0.171,-0.81 0.577,-1.46 1.22,-1.95 0.643,-0.49 1.522,-0.735 2.638,-0.735 1.134,0 1.988,0.232 2.564,0.695 0.576,0.463 0.922,1.032 1.04,1.707 0.116,0.674 0.174,1.794 0.174,3.359 V 0 h 3.994 v -10.39 c 0,-2.374 -0.108,-4.052 -0.324,-5.032 -0.216,-0.98 -0.614,-1.808 -1.193,-2.483 -0.581,-0.675 -1.356,-1.212 -2.327,-1.612 -0.972,-0.401 -2.242,-0.601 -3.807,-0.601 -1.889,0 -3.321,0.219 -4.297,0.655 -0.976,0.436 -1.748,1.003 -2.313,1.7 -0.568,0.697 -0.941,1.428 -1.12,2.192 C 0.13,-14.438 0,-12.764 0,-10.551 Z"
         style="fill:#15366f;fill-opacity:1;fill-rule:nonzero;stroke:none"
         transform="matrix(1.3333333,0,0,-1.3333333,124.53382,247.72991)"
         clip-path="url(#clipPath56)" />
      <path
         id="path57"
         d="m 0,0 v -5.613 h 2.187 c 1.573,0 2.625,0.103 3.156,0.31 0.532,0.207 0.948,0.531 1.249,0.972 0.302,0.44 0.452,0.953 0.452,1.538 0,0.72 -0.212,1.314 -0.634,1.781 C 5.987,-0.544 5.451,-0.251 4.803,-0.135 4.327,-0.045 3.37,0 1.93,0 Z m -3.994,-16.434 v 19.78 h 6.41 c 2.428,0 4.011,-0.099 4.749,-0.297 1.134,-0.297 2.083,-0.942 2.848,-1.936 0.763,-0.994 1.146,-2.278 1.146,-3.852 0,-1.215 -0.221,-2.235 -0.66,-3.063 C 10.058,-6.63 9.497,-7.28 8.818,-7.751 8.138,-8.224 7.448,-8.536 6.746,-8.689 5.794,-8.878 4.413,-8.973 2.604,-8.973 H 0 v -7.461 z"
         style="fill:#15366f;fill-opacity:1;fill-rule:nonzero;stroke:none"
         transform="matrix(1.3333333,0,0,-1.3333333,165.71089,252.19151)"
         clip-path="url(#clipPath58)" />
      <path
         id="path59"
         d="m 0,0 c 0,-2.24 0.518,-3.938 1.551,-5.094 1.035,-1.156 2.349,-1.733 3.94,-1.733 1.593,0 2.9,0.573 3.921,1.721 1.021,1.146 1.53,2.866 1.53,5.16 0,2.267 -0.497,3.958 -1.49,5.073 C 8.458,6.243 7.139,6.8 5.491,6.8 3.846,6.8 2.52,6.236 1.511,5.107 0.503,3.978 0,2.276 0,0 m -4.116,-0.135 c 0,2.015 0.302,3.706 0.905,5.073 0.449,1.008 1.064,1.912 1.841,2.712 0.778,0.801 1.63,1.395 2.557,1.782 1.232,0.521 2.655,0.782 4.264,0.782 2.915,0 5.247,-0.904 6.996,-2.712 1.749,-1.808 2.625,-4.322 2.625,-7.543 0,-3.192 -0.868,-5.691 -2.605,-7.494 -1.736,-1.804 -4.057,-2.706 -6.962,-2.706 -2.941,0 -5.279,0.898 -7.016,2.692 -1.737,1.795 -2.605,4.266 -2.605,7.414"
         style="fill:#15366f;fill-opacity:1;fill-rule:nonzero;stroke:none"
         transform="matrix(1.3333333,0,0,-1.3333333,198.58209,260.89911)"
         clip-path="url(#clipPath60)" />
      <path
         id="path61"
         d="m 0,0 c 2.32,0.059 4.21,0.684 5.672,1.875 1.462,1.19 2.433,2.825 2.916,4.905 0.482,2.077 0.738,5.634 0.768,10.665 0.029,5.033 0.12,8.347 0.271,9.944 0.271,2.531 0.776,4.565 1.514,6.102 0.738,1.536 1.65,2.765 2.735,3.684 1.084,0.919 2.47,1.619 4.158,2.102 1.145,0.3 3.012,0.452 5.605,0.452 h 2.531 v -7.097 h -1.401 c -3.134,0 -5.214,-0.565 -6.238,-1.694 -1.025,-1.13 -1.536,-3.654 -1.536,-7.572 0,-7.894 -0.166,-12.881 -0.498,-14.959 -0.542,-3.226 -1.468,-5.712 -2.78,-7.458 -1.31,-1.749 -3.366,-3.3 -6.169,-4.656 3.314,-1.387 5.718,-3.503 7.209,-6.351 1.492,-2.846 2.238,-7.51 2.238,-13.988 0,-5.876 0.059,-9.37 0.181,-10.486 0.24,-2.05 0.85,-3.48 1.83,-4.294 0.978,-0.813 2.899,-1.22 5.763,-1.22 h 1.401 v -7.096 h -2.531 c -2.954,0 -5.093,0.241 -6.418,0.724 -1.929,0.692 -3.526,1.814 -4.792,3.366 -1.265,1.553 -2.086,3.518 -2.463,5.899 -0.377,2.38 -0.581,6.281 -0.61,11.706 -0.03,5.424 -0.286,9.175 -0.768,11.254 -0.483,2.08 -1.454,3.721 -2.916,4.927 C 4.21,-8.061 2.32,-7.429 0,-7.369 Z"
         style="fill:#f9b118;fill-opacity:1;fill-rule:nonzero;stroke:none"
         transform="matrix(1.3333333,0,0,-1.3333333,53.41662,173.80217)"
         clip-path="url(#clipPath62)" />
    </g>
  </g>
</svg>
