<svg xmlns="http://www.w3.org/2000/svg" id="Capa_1" x="0" y="0" viewBox="0 0 417.1 131.3" style="enable-background:new 0 0 417.1 131.3" xml:space="preserve"><style>.st1{fill:url(#SVGID_00000142898030141659372400000009366143194075341194_)}.st2{fill:url(#SVGID_00000029750432023410773150000002333879657985388459_)}.st3{fill:url(#SVGID_00000088109261892553073680000007659676371783762312_)}.st4{fill:url(#SVGID_00000013913077602501414540000016889576811207293872_)}.st5{fill:url(#SVGID_00000005981993141713269120000014889890565399100825_)}.st6{fill:url(#SVGID_00000118372333493927310440000016848810607956111263_)}.st7{fill:url(#SVGID_00000055694549351730385010000015631703145701212056_)}.st8{fill:url(#SVGID_00000098179125217491109920000018212249066260791463_)}.st9{fill:url(#SVGID_00000162347064854224865510000005110431041773845137_)}.st10{fill:url(#SVGID_00000168091880909355410390000017182252593782318990_)}.st11{fill:url(#SVGID_00000170264204296450865550000005252945885377909906_)}.st12{fill:url(#SVGID_00000069377566804797672390000008561580764369425579_)}.st13{fill:url(#SVGID_00000044176551397235600370000003124618095513339065_)}.st14{fill:url(#SVGID_00000050656089558475856600000014106186978405732783_)}</style><linearGradient id="SVGID_1_" gradientUnits="userSpaceOnUse" x1="271.497" y1="63.411" x2="196.479" y2="34.892"><stop offset=".016" style="stop-color:#0032ce"></stop><stop offset=".132" style="stop-color:#013dcd"></stop><stop offset=".337" style="stop-color:#055bca"></stop><stop offset=".605" style="stop-color:#0c8ac5"></stop><stop offset=".924" style="stop-color:#15ccbf"></stop><stop offset=".996" style="stop-color:#17dcbd"></stop></linearGradient><path d="M237.2 40.5c4.4 0 8.2-3.2 9-7.5l.4-2.2h7.9v37.3c0 8.5-3.7 10.8-10.6 11 1.2-1.2.9-7.3.9-31.3h-4.5l-3.1-7.3z" style="fill:url(#SVGID_1_)"></path><linearGradient id="SVGID_00000145044108796957209890000009739265737364548532_" gradientUnits="userSpaceOnUse" x1="275.156" y1="53.786" x2="200.139" y2="25.267"><stop offset=".016" style="stop-color:#0032ce"></stop><stop offset=".999" style="stop-color:#17dcbd"></stop></linearGradient><path style="fill:url(#SVGID_00000145044108796957209890000009739265737364548532_)" d="M278.2 30.4c-12.2 0-19.8 11.1-19.8 24.7s7.9 24.4 19.8 24.4S298 68.7 298 55.1s-7.6-24.7-19.8-24.7zm0 39.6c-6.3 0-9.7-6.5-9.7-14.9s3.2-15.2 9.7-15.2 9.7 6.8 9.7 15.2c-.1 8.3-3.4 14.9-9.7 14.9z"></path><linearGradient id="SVGID_00000142139681829711904010000004777758465599623836_" gradientUnits="userSpaceOnUse" x1="318.052" y1="81.565" x2="235.488" y2="55.942"><stop offset=".016" style="stop-color:#0032ce"></stop><stop offset="1" style="stop-color:#17dcbd;stop-opacity:.1"></stop></linearGradient><path style="fill:url(#SVGID_00000142139681829711904010000004777758465599623836_)" d="M332.1 60.8C329.5 24.7 298-2.4 261.9.3s-63.2 34.1-60.5 70.2c2.7 36.1 34.1 63.2 70.2 60.5s63.2-34.1 60.5-70.2zm-116.8 8.7c-2.1-28.4 19.2-53.2 47.6-55.3 28.4-2.1 53.2 19.2 55.3 47.6S299 115 270.6 117.1c-28.4 2.1-53.2-19.2-55.3-47.6z"></path><linearGradient id="SVGID_00000142882346700132264820000012061397378273282226_" gradientUnits="userSpaceOnUse" x1="62.319" y1="54.937" x2="297.016" y2="54.937"><stop offset="0" style="stop-color:#6f1e84"></stop><stop offset=".327" style="stop-color:#0072b6"></stop><stop offset=".515" style="stop-color:#0072b6"></stop><stop offset=".605" style="stop-color:#b94a95"></stop><stop offset=".688" style="stop-color:#cb388e"></stop></linearGradient><path style="fill:url(#SVGID_00000142882346700132264820000012061397378273282226_)" d="M222.6 40.5c-4.4 0-8.2-3.2-9-7.5l-.4-2.2h-7.9v37.3c0 8.5 3.7 10.8 10.6 11-1.2-1.2-.9-7.3-.9-31.3h4.5l3.1-7.3z"></path><linearGradient id="SVGID_00000175319794959172371440000015024073304517211547_" gradientUnits="userSpaceOnUse" x1="62.319" y1="91.097" x2="297.016" y2="91.097"><stop offset="0" style="stop-color:#6f1e84"></stop><stop offset=".327" style="stop-color:#0072b6"></stop><stop offset=".515" style="stop-color:#0072b6"></stop><stop offset=".623" style="stop-color:#b94a95"></stop><stop offset=".688" style="stop-color:#cb388e"></stop></linearGradient><circle style="fill:url(#SVGID_00000175319794959172371440000015024073304517211547_)" cx="211.1" cy="91.1" r="6.5"></circle><linearGradient id="SVGID_00000027593039191722334950000005872135483182726309_" gradientUnits="userSpaceOnUse" x1="62.319" y1="59.055" x2="297.016" y2="59.055"><stop offset="0" style="stop-color:#6f1e84"></stop><stop offset=".327" style="stop-color:#0072b6"></stop><stop offset=".515" style="stop-color:#0072b6"></stop><stop offset=".623" style="stop-color:#b94a95"></stop><stop offset=".688" style="stop-color:#cb388e"></stop></linearGradient><path style="fill:url(#SVGID_00000027593039191722334950000005872135483182726309_)" d="M24.8 40.5C12 36.1 0 45.5 0 59.7c0 18.8 22.3 25 34.3 12.3-.8-1.3-2.5-4.1-3.3-5.4-2.4 2.3-6.1 4.1-10.1 4.1-6.7 0-10.1-4.3-11.2-10.4h25.1c.3-8.7-2.9-17.1-10-19.8zm-15 13.3c.7-4 4.1-7.3 8.2-7.3 4.2 0 7.5 3.2 8 7.3H9.8z"></path><linearGradient id="SVGID_00000060019264168936161430000004523906706478841533_" gradientUnits="userSpaceOnUse" x1="62.319" y1="59.055" x2="297.016" y2="59.055"><stop offset="0" style="stop-color:#6f1e84"></stop><stop offset=".327" style="stop-color:#0072b6"></stop><stop offset=".515" style="stop-color:#0072b6"></stop><stop offset=".623" style="stop-color:#b94a95"></stop><stop offset=".688" style="stop-color:#cb388e"></stop></linearGradient><path style="fill:url(#SVGID_00000060019264168936161430000004523906706478841533_)" d="M124.9 40.5c-12.8-4.4-24.8 4.9-24.8 19.2 0 18.8 22.3 25 34.3 12.3-.8-1.3-2.5-4.1-3.3-5.4-2.4 2.3-6.1 4.1-10.1 4.1-6.7 0-10.1-4.3-11.2-10.4h25.1c.3-8.7-2.9-17.1-10-19.8zm-15.1 13.3c.7-4 4.1-7.3 8.2-7.3 4.2 0 7.5 3.2 8 7.3h-16.2z"></path><linearGradient id="SVGID_00000012437951518751430450000001996320160144531378_" gradientUnits="userSpaceOnUse" x1="62.319" y1="60.159" x2="297.016" y2="60.159"><stop offset="0" style="stop-color:#6f1e84"></stop><stop offset=".327" style="stop-color:#0072b6"></stop><stop offset=".515" style="stop-color:#0072b6"></stop><stop offset=".623" style="stop-color:#b94a95"></stop><stop offset=".688" style="stop-color:#cb388e"></stop></linearGradient><path style="fill:url(#SVGID_00000012437951518751430450000001996320160144531378_)" d="M70.6 67.1V41.7h-9.8v22.8c0 1.5-.7 2.9-1.8 3.8-1.3 1-3.3 2.1-5.9 2.1-6.8 0-6.2-7.4-6.2-7.4V41.7h-9.6v24.1c0 9.6 6.4 12.9 12.5 12.9 8.5 0 12.1-5.1 12.1-5.1s1.2 5 7.8 5c3.7 0 6-1 6-1l-.1-5.7c-3.8.4-5-1.5-5-4.8z"></path><linearGradient id="SVGID_00000137840605588778830080000007389837503240146306_" gradientUnits="userSpaceOnUse" x1="62.319" y1="59.468" x2="297.016" y2="59.468"><stop offset="0" style="stop-color:#6f1e84"></stop><stop offset=".327" style="stop-color:#0072b6"></stop><stop offset=".515" style="stop-color:#0072b6"></stop><stop offset=".623" style="stop-color:#b94a95"></stop><stop offset=".688" style="stop-color:#cb388e"></stop></linearGradient><path style="fill:url(#SVGID_00000137840605588778830080000007389837503240146306_)" d="M77.9 41.7h9.5l.1 4.8s4.9-9.5 16-4.7l-3.2 8c-7.4-1.8-12.1 2-12.1 8.9v19.7h-9.8V50.5c0-3.8-.5-8.8-.5-8.8z"></path><linearGradient id="SVGID_00000011729442363057717030000016291072419031877510_" gradientUnits="userSpaceOnUse" x1="62.319" y1="59.089" x2="297.016" y2="59.089"><stop offset="0" style="stop-color:#6f1e84"></stop><stop offset=".327" style="stop-color:#0072b6"></stop><stop offset=".515" style="stop-color:#0072b6"></stop><stop offset=".623" style="stop-color:#b94a95"></stop><stop offset=".688" style="stop-color:#cb388e"></stop></linearGradient><path style="fill:url(#SVGID_00000011729442363057717030000016291072419031877510_)" d="M156 70.2c-5.4 0-9.8-5-9.8-11.1S150.6 48 156 48c2.3 0 5 .9 7.5 2.3l3.8-6.8c-3.3-2.5-7.3-3.9-11.7-3.9-10.8 0-19.1 8.7-19.1 19.5s8.4 19.5 19.1 19.5c4.6 0 8.9-1.6 12.2-4.3l-3.3-7.1c-2.6 1.9-5.9 3-8.5 3z"></path><linearGradient id="SVGID_00000046318756817946993390000000444966521847070610_" gradientUnits="userSpaceOnUse" x1="62.319" y1="59.234" x2="297.016" y2="59.234"><stop offset="0" style="stop-color:#6f1e84"></stop><stop offset=".327" style="stop-color:#0072b6"></stop><stop offset=".515" style="stop-color:#0072b6"></stop><stop offset=".601" style="stop-color:#b94a95"></stop><stop offset=".688" style="stop-color:#cb388e"></stop></linearGradient><path style="fill:url(#SVGID_00000046318756817946993390000000444966521847070610_)" d="M198.3 66.6V54c0-6-.6-14.3-14.2-14.3-7.4 0-13.9 4.1-13.9 4.1v7.5s5.9-4.1 12.4-4.1c7.1 0 6.2 7 6.2 7s-20.9 0-20.9 13.3c0 7.3 5.2 11.1 11.2 11.1 6.6 0 10.8-4.4 10.8-4.4 1.4 3.5 5.1 5 11.9 3.7l1.3-6.3c-2.4.3-4.8-.1-4.8-5zm-9.4 2.8s-3.3 2.4-6.5 2.4-4.8-2.1-4.8-4.3c0-7.3 10.1-7.9 11.4-7.9-.1 1.7-.1 9.8-.1 9.8z"></path><linearGradient id="SVGID_00000086679982323568354020000015001946090610083501_" gradientUnits="userSpaceOnUse" x1="259.472" y1="95.548" x2="207.469" y2="76.303"><stop offset=".016" style="stop-color:#0032ce"></stop><stop offset="1" style="stop-color:#17dcbd"></stop></linearGradient><path style="fill:url(#SVGID_00000086679982323568354020000015001946090610083501_)" d="M253.6 96.9c-.4.1-.8.1-1.2.1-1 0-2.1-.2-2.4-1.3-1.1.8-2 1.3-3.4 1.3-2.1 0-3.3-1.3-3.3-3.4 0-3.3 3.9-3.7 6.4-4-.1-1.5-.4-2.3-2-2.3-1.3 0-2.5.6-3.7 1.2v-2.1c1.3-.7 2.8-1.2 4.3-1.2 1.2 0 2.5.3 3.4 1.2.7.8.8 2.1.8 3.1v3.3c0 1-.2 2.3 1.2 2.3h.2l-.3 1.8zm-3.9-5.7c-1.4.2-3.7.5-3.7 2.4 0 .9.6 1.5 1.6 1.5.8 0 1.5-.4 2.1-.8v-3.1z"></path><linearGradient id="SVGID_00000050624592119099705930000007213402125598514607_" gradientUnits="userSpaceOnUse" x1="261.739" y1="89.423" x2="209.735" y2="70.178"><stop offset=".016" style="stop-color:#0032ce"></stop><stop offset="1" style="stop-color:#17dcbd"></stop></linearGradient><path style="fill:url(#SVGID_00000050624592119099705930000007213402125598514607_)" d="M263.2 96.7v-6.5c0-1.4-.3-2.7-2-2.7-1.2 0-1.9.6-2.7 1.5v7.7h-2.9V90c0-1.3.1-3-.7-4l2.5-.8c.6.4.8 1.2.9 1.9 1.1-1.2 2.2-1.9 3.9-1.9 2.4 0 3.8 1.8 3.8 4.1v7.5h-2.8zm-.7-13.3c-1.2 0-2.1-.9-3.3-.9-.6 0-1 .5-1.2 1l-1.1-.6c.5-1.3 1.2-2.1 2.6-2.1 1.3 0 2.2.9 3.2.9.7 0 1-.3 1.3-.9l1.1.6c-.6 1.1-1.3 2-2.6 2z"></path><linearGradient id="SVGID_00000075882905256653263230000012895935538605871530_" gradientUnits="userSpaceOnUse" x1="262.693" y1="86.843" x2="210.69" y2="67.599"><stop offset=".016" style="stop-color:#0032ce"></stop><stop offset="1" style="stop-color:#17dcbd"></stop></linearGradient><path style="fill:url(#SVGID_00000075882905256653263230000012895935538605871530_)" d="M274.2 97.1c-3.5 0-6-2.4-6-5.9 0-3.6 2.6-6.1 6.2-6.1 3.4 0 5.8 2.6 5.8 6 0 3.5-2.5 6-6 6zm-.1-9.6c-1.9 0-2.9 1.5-2.9 3.3 0 1.9 1.1 4.1 3.3 4.1 1.9 0 2.8-1.7 2.8-3.4 0-2-1-4-3.2-4z"></path><linearGradient id="SVGID_00000174563850336820589240000005914269599270806158_" gradientUnits="userSpaceOnUse" x1="264.079" y1="83.099" x2="212.076" y2="63.855"><stop offset=".016" style="stop-color:#0032ce"></stop><stop offset="1" style="stop-color:#17dcbd"></stop></linearGradient><path style="fill:url(#SVGID_00000174563850336820589240000005914269599270806158_)" d="M285.5 97.1c-1.6 0-3.1-.4-4.2-1.5l1.1-1.9c.8.7 1.8 1.3 3 1.3.8 0 1.6-.5 1.6-1.3 0-1.9-4.9-1.3-4.9-5 0-2.3 2-3.5 4.1-3.5 1.3 0 2.4.3 3.5 1l-.8 2.1c-.8-.5-1.6-.9-2.5-.9-.6 0-1.4.4-1.4 1.2 0 1.9 5 1.2 5 5 0 2.4-2.3 3.5-4.5 3.5z"></path></svg>