<?xml version="1.0" encoding="UTF-8" standalone="no"?>
<!-- Created with Inkscape (http://www.inkscape.org/) -->

<svg
   width="168.942mm"
   height="94.163132mm"
   viewBox="0 0 168.942 94.163132"
   version="1.1"
   id="svg592"
   xml:space="preserve"
   inkscape:version="1.2.2 (732a01da63, 2022-12-09)"
   sodipodi:docname="logojunosdsupct.svg"
   inkscape:export-filename="logojunosdsupct_plano.svg"
   inkscape:export-xdpi="96"
   inkscape:export-ydpi="96"
   xmlns:inkscape="http://www.inkscape.org/namespaces/inkscape"
   xmlns:sodipodi="http://sodipodi.sourceforge.net/DTD/sodipodi-0.dtd"
   xmlns="http://www.w3.org/2000/svg"
   xmlns:svg="http://www.w3.org/2000/svg"><sodipodi:namedview
     id="namedview594"
     pagecolor="#ffffff"
     bordercolor="#000000"
     borderopacity="0.25"
     inkscape:showpageshadow="2"
     inkscape:pageopacity="0.0"
     inkscape:pagecheckerboard="0"
     inkscape:deskcolor="#d1d1d1"
     inkscape:document-units="mm"
     showgrid="false"
     inkscape:zoom="0.914906"
     inkscape:cx="501.69088"
     inkscape:cy="365.06482"
     inkscape:window-width="2560"
     inkscape:window-height="1377"
     inkscape:window-x="-8"
     inkscape:window-y="-8"
     inkscape:window-maximized="1"
     inkscape:current-layer="layer1" /><defs
     id="defs589"><clipPath
       id="clip0-6-4-0-73-1"><rect
         x="479"
         y="292"
         width="339"
         height="202"
         id="rect9400-6-0-7-2" /></clipPath></defs><g
     inkscape:label="Capa 1"
     inkscape:groupmode="layer"
     id="layer1"
     transform="translate(-16.299761,-14.107103)"><g
       id="g3877"
       transform="matrix(1.5464992,0,0,1.5464992,-8.9078458,-7.7095565)"><g
         id="g3201"
         transform="matrix(1.1293061,0,0,1.1293061,-2.107662,-1.8241377)"><circle
           style="fill:#008edd;fill-opacity:1;stroke:#008edd;stroke-width:0.5;stroke-dasharray:none;stroke-opacity:1"
           id="path2392-1-1-3-7"
           cx="58.63335"
           cy="25.823099"
           r="4.9723349" /><circle
           style="fill:#008edd;fill-opacity:1;stroke:#008edd;stroke-width:0.5;stroke-dasharray:none;stroke-opacity:1"
           id="path7100-4-5-8-4"
           cx="58.673405"
           cy="15.357126"
           r="1" /><circle
           style="fill:#008edd;fill-opacity:1;stroke:#008edd;stroke-width:0.5;stroke-dasharray:none;stroke-opacity:1"
           id="path7100-3-0-4-8-2"
           cx="54.994495"
           cy="17.172159"
           r="1" /><ellipse
           style="fill:#008edd;fill-opacity:1;stroke:#008edd;stroke-width:0.5;stroke-dasharray:none;stroke-opacity:1"
           id="path7100-3-7-0-1-6-5-8"
           cx="75.319839"
           cy="65.944832"
           rx="1.828526"
           ry="1.8285266" /><ellipse
           style="fill:#008edd;fill-opacity:1;stroke:#008edd;stroke-width:0.5;stroke-dasharray:none;stroke-opacity:1"
           id="path7100-3-7-1-5-3-7-7-2"
           cx="71.761894"
           cy="60.3325"
           rx="1.828526"
           ry="1.8285266" /><circle
           style="fill:#008edd;fill-opacity:1;stroke:#008edd;stroke-width:0.5;stroke-dasharray:none;stroke-opacity:1"
           id="path7100-3-6-0-9-2-1"
           cx="65.395699"
           cy="19.035044"
           r="1" /><circle
           style="fill:#008edd;fill-opacity:1;stroke:#008edd;stroke-width:0.5;stroke-dasharray:none;stroke-opacity:1"
           id="path7100-8-1-8-7-2"
           cx="63.017262"
           cy="16.101999"
           r="1" /><path
           style="fill:none;fill-opacity:1;stroke:#008edd;stroke-width:0.4;stroke-dasharray:none;stroke-opacity:1"
           d="m 58.547933,30.842911 2.38363,3.57544 v -4.26545"
           id="path7479-07-5-0-4" /><path
           style="fill:none;stroke:#008edd;stroke-width:0.49465;stroke-linecap:round;stroke-dasharray:none;stroke-opacity:1"
           d="m 56.739973,30.604061 c 0,0 -0.811754,1.54946 -0.927524,4.04064 -0.11579,2.49118 0.510564,4.15828 0.510564,4.15828"
           id="path7485-8-2-4-9"
           sodipodi:nodetypes="czc" /><path
           style="fill:none;stroke:#008edd;stroke-width:0.440907;stroke-linecap:round;stroke-dasharray:none;stroke-opacity:1"
           d="m 53.594279,40.054781 c 0,0 1.42671,-0.72794 2.478844,-1.03187 1.05215,-0.30396 2.53936,-0.58828 3.83092,-0.65172 2.43351,-0.0522 4.9625,0.29635 6.9858,1.22197"
           id="path7487-06-7-3-9"
           sodipodi:nodetypes="czcc" /><path
           style="fill:none;stroke:#008edd;stroke-width:0.5;stroke-linecap:round;stroke-dasharray:none;stroke-opacity:1"
           d="m 53.746489,24.601581 c -6.11327,5.09638 -8.97709,13.79966 -4.9617,22.82056 3.80776,7.37458 10.271734,9.38679 18.540334,8.95968"
           id="path7489-5-3-7-8"
           sodipodi:nodetypes="ccc" /><path
           style="fill:none;stroke:#008edd;stroke-width:0.5;stroke-linecap:round;stroke-dasharray:none;stroke-opacity:1"
           d="m 60.250523,21.086451 -5.9e-4,-3.13749 1.88809,-1.17299"
           id="path7525-4-3-5-1"
           sodipodi:nodetypes="ccc" /><path
           style="fill:none;stroke:#008edd;stroke-width:0.43806;stroke-linecap:round;stroke-dasharray:none;stroke-opacity:1"
           d="m 71.782513,46.729531 1.93686,1.40808 -0.0451,8.6832 2.16212,1.47513 -0.0451,5.79999"
           id="path7581-3-5-9-5" /><path
           style="fill:none;stroke:#008edd;stroke-width:0.5;stroke-linecap:round;stroke-dasharray:none;stroke-opacity:1"
           d="m 58.672423,16.419641 -1e-5,4.40828"
           id="path7838-1-7-1-3"
           sodipodi:nodetypes="cc" /><text
           xml:space="preserve"
           style="font-style:normal;font-variant:normal;font-weight:bold;font-stretch:normal;font-size:5.64444px;font-family:Calibri;-inkscape-font-specification:'Calibri Bold';fill:#008edd;fill-opacity:1;stroke:none;stroke-width:0.499999;stroke-linecap:round;stroke-dasharray:none;stroke-opacity:1"
           x="16.193176"
           y="61.79353"
           id="text14575-7-9-7-0"><tspan
             sodipodi:role="line"
             id="tspan14573-1-6-7-7"
             style="font-style:normal;font-variant:normal;font-weight:normal;font-stretch:normal;font-size:5.64444px;font-family:Calibri;-inkscape-font-specification:Calibri;fill:#008edd;fill-opacity:1;stroke-width:0.5"
             x="16.193176"
             y="61.79353">Smart Digital Solutions</tspan></text><g
           clip-path="url(#clip0-6-4-0-73-1)"
           transform="matrix(0.26458333,0,0,0.26002095,-126.28982,-54.819849)"
           id="g9407-2-7-2-9"><text
             xml:space="preserve"
             style="font-size:17.3333px;white-space:pre;inline-size:62.8385;display:inline;fill:#0000bc;fill-opacity:1;stroke:#003edd;stroke-width:1.88976;stroke-linecap:round;stroke-dasharray:none;stroke-opacity:1"
             x="580.27301"
             y="496.67188"
             id="text10779-1-6-3-5" /><text
             xml:space="preserve"
             style="font-size:98.6667px;fill:#008edd;fill-opacity:1;stroke:none;stroke-width:1.83497;stroke-linecap:round;stroke-dasharray:none;stroke-opacity:1"
             x="554.86993"
             y="415.35803"
             id="text10787-13-8-5-7"
             transform="scale(0.97100416,1.0298617)"><tspan
               sodipodi:role="line"
               id="tspan10785-0-5-7-4"
               x="554.86993"
               y="415.35803"
               style="font-style:normal;font-variant:normal;font-weight:bold;font-stretch:normal;font-size:98.6667px;font-family:Calibri;-inkscape-font-specification:'Calibri Bold';fill:#008edd;fill-opacity:1;stroke:none;stroke-width:1.83497;stroke-opacity:1">JUNO</tspan></text></g><path
           style="fill:none;stroke:#008edd;stroke-width:0.4;stroke-linecap:round;stroke-dasharray:none;stroke-opacity:1"
           d="m 71.644333,53.998261 0.0234,4.39658"
           id="path1412-8-9" /></g><g
         id="Layer1019"
         transform="matrix(0.27321108,0,0,0.27321108,74.756086,-10.985693)"><g
           id="Layer1020"><path
             d="m 73.3208,289.436 v -16.1283 h -2.0786 v 6.6019 c -0.8453,-1.1877 -1.7592,-1.6676 -3.1298,-1.6676 -2.7187,0 -4.6604,2.399 -4.6604,5.7342 0,3.3809 1.8961,5.6883 4.6604,5.6883 1.5534,0 2.4903,-0.6398 3.2896,-2.2161 v 1.9876 z m -1.9871,-5.597 c 0,2.3757 -1.188,4.0439 -2.8788,4.0439 -1.7133,0 -2.9013,-1.5996 -2.9013,-3.9296 0,-2.3074 1.2336,-3.9521 2.9469,-3.9521 1.6452,0 2.8332,1.599 2.8332,3.8378 z"
             style="fill:#005fa1;fill-rule:evenodd"
             id="path1167" /><path
             d="m 85.0307,282.9951 c 0,-2.747 -1.8734,-4.7508 -4.5008,-4.7508 -2.9469,0 -4.957,2.2989 -4.957,5.5947 0,3.678 2.2159,5.8485 5.9624,5.8485 1.0965,0 1.9191,-0.1369 2.8783,-0.457 v -1.6676 c -0.9365,0.32 -1.6676,0.4569 -2.5812,0.4569 -2.4446,0 -3.9297,-1.2109 -4.1122,-3.4041 h 7.1047 c 0.1602,-0.6395 0.2058,-1.0735 0.2058,-1.6206 z m -1.9876,-0.204 c 0,0.204 0,0.3404 -0.023,0.4541 h -5.3456 c 0.1599,-2.0892 1.2104,-3.3605 2.7641,-3.3605 1.5763,0 2.6045,1.2487 2.6045,2.9064 z"
             style="fill:#005fa1;fill-rule:evenodd"
             id="path1169" /><path
             d="m 102.5225,288.9334 v -1.9646 c -1.1194,0.4796 -1.942,0.6627 -2.9242,0.6627 -2.7871,0 -4.7061,-2.5359 -4.7061,-6.2371 0,-3.7236 1.8734,-6.2821 4.6148,-6.2821 1.0278,0 1.8045,0.2055 2.8329,0.7084 v -2.0336 c -0.9828,-0.5253 -1.7821,-0.7081 -2.9701,-0.7081 -3.998,0 -6.785,3.4495 -6.785,8.3613 0,4.8663 2.787,8.2242 6.8306,8.2242 1.0967,0 2.0103,-0.2055 3.1071,-0.7311 z"
             style="fill:#005fa1;fill-rule:evenodd"
             id="path1171" /><path
             d="m 113.0475,289.2762 v -7.3333 c 0,-1.5763 -0.3886,-2.5588 -1.3938,-3.1297 -0.6851,-0.3883 -1.5537,-0.5712 -2.5815,-0.5712 -1.4165,0 -2.6728,0.2968 -3.9521,0.9595 v 1.7365 c 1.0965,-0.6627 2.4444,-1.0513 3.678,-1.0513 1.5763,0 2.2388,0.6398 2.2388,2.1705 v 0.5025 c -1.4848,0 -2.6728,0.0913 -3.4724,0.3198 -2.1246,0.5712 -3.3126,1.8734 -3.3126,3.6096 0,2.1016 1.6676,3.1984 4.8203,3.1984 1.3249,0 2.7873,-0.1602 3.9753,-0.4113 z m -2.0106,-1.325 c -0.6168,0.1143 -1.1194,0.1599 -1.7816,0.1599 -2.0336,0 -2.9245,-0.5482 -2.9245,-1.7821 0,-1.6674 1.4395,-2.3984 4.7061,-2.3984 z"
             style="fill:#005fa1;fill-rule:evenodd"
             id="path1173" /><path
             d="m 122.5453,280.5035 v -2.033 c -0.457,-0.1142 -0.7308,-0.1599 -1.1653,-0.1599 -1.6444,0 -2.8097,0.8909 -3.4495,2.6498 v -2.4672 h -1.9647 v 10.9428 h 2.0789 v -5.3229 c 0,-2.3074 1.2793,-3.8378 3.1983,-3.8378 0.457,0 0.7767,0.0456 1.3023,0.2282 z"
             style="fill:#005fa1;fill-rule:evenodd"
             id="path1175" /><path
             d="m 129.5072,289.3904 v -1.6906 c -0.5942,0.1369 -1.0282,0.1831 -1.5081,0.1831 -1.3249,0 -1.8045,-0.5258 -1.8045,-2.0109 v -5.6656 h 3.0838 v -1.7132 h -3.0838 v -3.3809 l -2.0792,1.2563 v 9.2523 c 0,2.8786 0.9598,3.998 3.4041,3.998 0.7084,0 1.211,-0.0457 1.9877,-0.2285 z"
             style="fill:#005fa1;fill-rule:evenodd"
             id="path1177" /><path
             d="m 139.6234,289.2762 v -7.3333 c 0,-1.5763 -0.3886,-2.5588 -1.3935,-3.1297 -0.6854,-0.3883 -1.5536,-0.5712 -2.5818,-0.5712 -1.4161,0 -2.6725,0.2968 -3.9517,0.9595 v 1.7365 c 1.0961,-0.6627 2.4443,-1.0513 3.6779,-1.0513 1.5761,0 2.2385,0.6398 2.2385,2.1705 v 0.5025 c -1.4845,0 -2.6725,0.0913 -3.4721,0.3198 -2.1249,0.5712 -3.3129,1.8734 -3.3129,3.6096 0,2.1016 1.6679,3.1984 4.8203,3.1984 1.325,0 2.7873,-0.1602 3.9753,-0.4113 z m -2.0106,-1.325 c -0.6165,0.1143 -1.1194,0.1599 -1.7815,0.1599 -2.0333,0 -2.9245,-0.5482 -2.9245,-1.7821 0,-1.6674 1.4394,-2.3984 4.706,-2.3984 z"
             style="fill:#005fa1;fill-rule:evenodd"
             id="path1179" /><path
             d="m 151.7943,287.8597 v -9.3665 h -1.9647 v 2.2178 c -0.5712,-1.6237 -1.6903,-2.446 -3.3585,-2.446 -2.6725,0 -4.5916,2.3771 -4.5916,5.6769 0,3.1626 2.0104,5.4941 4.7518,5.4941 1.485,0 2.376,-0.5938 3.107,-2.0338 v 0.5947 c 0,3.1388 -0.9368,4.2718 -3.4497,4.2718 -1.2564,0 -2.376,-0.3172 -3.4266,-1.0423 v 1.6821 c 0.868,0.6395 2.2615,1.0051 3.7922,1.0051 1.4621,0 2.6269,-0.3656 3.5181,-1.0734 1.1877,-0.9567 1.622,-2.2936 1.622,-4.9805 z m -1.9874,-3.8948 c 0,2.177 -1.188,3.6893 -2.8786,3.6893 -1.7365,0 -2.9472,-1.5582 -2.9472,-3.7579 0,-2.1538 1.2107,-3.8038 2.81,-3.8038 1.7592,0 3.0158,1.6038 3.0158,3.8724 z"
             style="fill:#005fa1;fill-rule:evenodd"
             id="path1181" /><path
             d="m 163.5102,282.9951 c 0,-2.747 -1.8732,-4.7508 -4.5006,-4.7508 -2.9469,0 -4.9572,2.2989 -4.9572,5.5947 0,3.678 2.2158,5.8485 5.9624,5.8485 1.0964,0 1.919,-0.1369 2.8783,-0.457 v -1.6676 c -0.9366,0.32 -1.6674,0.4569 -2.5813,0.4569 -2.4446,0 -3.9296,-1.2109 -4.1122,-3.4041 h 7.105 c 0.1599,-0.6395 0.2056,-1.0735 0.2056,-1.6206 z m -1.9877,-0.204 c 0,0.204 0,0.3404 -0.023,0.4541 h -5.3455 c 0.1598,-2.0892 1.2106,-3.3605 2.7643,-3.3605 1.5764,0 2.6042,1.2487 2.6042,2.9064 z"
             style="fill:#005fa1;fill-rule:evenodd"
             id="path1183" /><path
             d="m 174.9029,289.436 v -6.3963 c 0,-1.5308 -0.1602,-2.4676 -0.5485,-3.1301 -0.5939,-1.0508 -1.7589,-1.6676 -3.1981,-1.6676 -1.5307,0 -2.6044,0.7537 -3.4041,2.3757 v -2.1245 h -1.9876 v 10.9428 h 2.0789 v -4.9116 c 0,-1.6219 0.1369,-2.4446 0.5252,-3.13 0.457,-0.7991 1.2796,-1.2563 2.2162,-1.2563 0.8453,0 1.5536,0.411 1.919,1.0967 0.2512,0.4567 0.3198,0.9825 0.3198,2.056 v 6.1452 z"
             style="fill:#005fa1;fill-rule:evenodd"
             id="path1185" /><path
             d="m 185.8829,289.2762 v -7.3333 c 0,-1.5763 -0.3886,-2.5588 -1.3935,-3.1297 -0.6854,-0.3883 -1.5537,-0.5712 -2.5818,-0.5712 -1.4162,0 -2.6725,0.2968 -3.9518,0.9595 v 1.7365 c 1.0962,-0.6627 2.4443,-1.0513 3.6779,-1.0513 1.5764,0 2.2386,0.6398 2.2386,2.1705 v 0.5025 c -1.4845,0 -2.6725,0.0913 -3.4722,0.3198 -2.1248,0.5712 -3.3128,1.8734 -3.3128,3.6096 0,2.1016 1.6676,3.1984 4.8203,3.1984 1.3252,0 2.7873,-0.1602 3.9753,-0.4113 z m -2.0106,-1.325 c -0.6166,0.1143 -1.1194,0.1599 -1.7816,0.1599 -2.0333,0 -2.9242,-0.5482 -2.9242,-1.7821 0,-1.6674 1.4391,-2.3984 4.7058,-2.3984 z"
             style="fill:#005fa1;fill-rule:evenodd"
             id="path1187" /></g><g
           id="Layer1021"><path
             d="m 73.579,255.7304 c 0,-1.8961 -0.8223,-3.4265 -2.2617,-4.2491 -0.9136,-0.5029 -2.2159,-0.7538 -3.9974,-0.7538 h -3.0615 v 16.1286 h 2.1705 v -6.0083 h 0.8221 c 1.7821,0 3.1527,-0.2515 4.0206,-0.754 1.4624,-0.845 2.3074,-2.4214 2.3074,-4.3634 z m -2.1472,0.0456 c 0,1.234 -0.5026,2.2391 -1.3938,2.7414 -0.6165,0.3427 -1.4162,0.4802 -2.81,0.4802 h -0.7991 v -6.3967 h 1.1418 c 2.6275,0 3.8611,1.0049 3.8611,3.1751 z"
             style="fill:#005fa1;fill-rule:evenodd"
             id="path1190" /><path
             d="m 85.2901,261.373 c 0,-3.4494 -2.0333,-5.7339 -5.1171,-5.7339 -2.9469,0 -5.1174,2.4217 -5.1174,5.7113 0,3.4041 2.1016,5.7795 5.1401,5.7795 2.9698,0 5.0944,-2.3984 5.0944,-5.7569 z m -2.1016,-0.0912 c 0,2.3986 -1.1653,4.0436 -2.9013,4.0436 -1.8275,0.0229 -3.13,-1.6676 -3.13,-4.0436 0,-2.2842 1.2339,-3.8608 3.0158,-3.8608 1.8045,0 3.0155,1.5534 3.0155,3.8608 z"
             style="fill:#005fa1;fill-rule:evenodd"
             id="path1192" /><path
             d="m 89.62,266.8561 v -16.1286 h -2.0789 v 16.1286 z"
             style="fill:#005fa1;fill-rule:evenodd"
             id="path1194" /><path
             d="m 94.7998,252.8518 c 0,-0.3883 -0.0913,-0.731 -0.2971,-0.9366 -0.2052,-0.2052 -0.5023,-0.297 -0.9136,-0.297 -0.3884,0 -0.7311,0.0918 -0.9366,0.297 -0.2058,0.2056 -0.2971,0.5026 -0.2971,0.9139 0,0.3884 0.0913,0.7311 0.2971,0.9366 0.2055,0.2058 0.5026,0.2971 0.9136,0.2971 0.3887,0 0.7314,-0.0913 0.9366,-0.2971 0.2058,-0.2055 0.2971,-0.5026 0.2971,-0.9139 z m -0.1826,14.0043 V 255.9132 H 92.538 v 10.9429 z"
             style="fill:#005fa1;fill-rule:evenodd"
             id="path1196" /><path
             d="m 102.9267,266.8105 v -1.6909 c -0.5939,0.1372 -1.0281,0.1831 -1.508,0.1831 -1.325,0 -1.8046,-0.5255 -1.8046,-2.0106 v -5.6656 h 3.0838 v -1.7133 h -3.0838 v -3.3809 l -2.0789,1.2561 v 9.2523 c 0,2.8788 0.9595,3.9979 3.4038,3.9979 0.7084,0 1.211,-0.0456 1.9877,-0.2281 z"
             style="fill:#005fa1;fill-rule:evenodd"
             id="path1198" /><path
             d="m 113.8423,250.522 h -2.7643 l -3.244,3.7253 h 1.645 z m -0.0683,9.8932 c 0,-2.7473 -1.8731,-4.7509 -4.5005,-4.7509 -2.9469,0 -4.9573,2.2989 -4.9573,5.5948 0,3.6779 2.2159,5.8484 5.9627,5.8484 1.0962,0 1.9188,-0.1372 2.8783,-0.4572 v -1.6676 c -0.9368,0.32 -1.6679,0.4569 -2.5815,0.4569 -2.4446,0 -3.9294,-1.2109 -4.1122,-3.4038 h 7.105 c 0.1599,-0.6398 0.2055,-1.0738 0.2055,-1.6206 z m -1.9876,-0.2044 c 0,0.2044 0,0.3408 -0.023,0.4544 h -5.3456 c 0.1599,-2.0891 1.2107,-3.3604 2.7644,-3.3604 1.5763,0 2.6042,1.2486 2.6042,2.906 z"
             style="fill:#005fa1;fill-rule:evenodd"
             id="path1200" /><path
             d="m 123.4759,266.4221 v -1.7365 h -0.0224 c -0.7999,0.4572 -1.4394,0.6398 -2.2161,0.6398 -2.1478,0 -3.7009,-1.6676 -3.7009,-3.998 0,-2.2842 1.5077,-3.8835 3.6779,-3.8835 0.7767,0 1.4851,0.2285 2.1473,0.6852 h 0.0229 v -1.8502 c -0.9366,-0.4569 -1.6906,-0.6171 -2.7184,-0.6171 -3.0385,0 -5.3002,2.376 -5.3002,5.5743 0,3.4271 2.2617,5.8714 5.4601,5.8714 0.9592,0 1.7821,-0.2058 2.6498,-0.6854 z"
             style="fill:#005fa1;fill-rule:evenodd"
             id="path1202" /><path
             d="m 135.1385,266.8561 v -6.3967 c 0,-1.5307 -0.1602,-2.4672 -0.5485,-3.13 -0.5939,-1.0505 -1.7589,-1.6676 -3.1981,-1.6676 -1.5307,0 -2.6045,0.754 -3.4041,2.376 v -2.1246 h -1.9877 v 10.9429 h 2.079 v -4.9116 c 0,-1.622 0.1369,-2.4446 0.5255,-3.13 0.457,-0.7994 1.2793,-1.2563 2.2159,-1.2563 0.8452,0 1.5536,0.411 1.919,1.0967 0.2512,0.4567 0.3198,0.9822 0.3198,2.056 v 6.1452 z"
             style="fill:#005fa1;fill-rule:evenodd"
             id="path1204" /><path
             d="m 140.3157,252.8518 c 0,-0.3883 -0.0913,-0.731 -0.2971,-0.9366 -0.2052,-0.2052 -0.5023,-0.297 -0.9136,-0.297 -0.3884,0 -0.7311,0.0918 -0.9366,0.297 -0.2058,0.2056 -0.297,0.5026 -0.297,0.9139 0,0.3884 0.0912,0.7311 0.297,0.9366 0.2055,0.2058 0.5026,0.2971 0.9136,0.2971 0.3887,0 0.7314,-0.0913 0.9366,-0.2971 0.2058,-0.2055 0.2971,-0.5026 0.2971,-0.9139 z m -0.1826,14.0043 v -10.9429 h -2.0792 v 10.9429 z"
             style="fill:#005fa1;fill-rule:evenodd"
             id="path1206" /><path
             d="m 150.4986,266.4221 v -1.7365 h -0.0227 c -0.7997,0.4572 -1.4394,0.6398 -2.2159,0.6398 -2.1478,0 -3.7009,-1.6676 -3.7009,-3.998 0,-2.2842 1.5075,-3.8835 3.678,-3.8835 0.7764,0 1.4848,0.2285 2.1472,0.6852 h 0.023 v -1.8502 c -0.9366,-0.4569 -1.6906,-0.6171 -2.7187,-0.6171 -3.0382,0 -5.3,2.376 -5.3,5.5743 0,3.4271 2.2618,5.8714 5.4601,5.8714 0.9593,0 1.7819,-0.2058 2.6499,-0.6854 z"
             style="fill:#005fa1;fill-rule:evenodd"
             id="path1208" /><path
             d="m 161.0874,266.6959 v -7.3332 c 0,-1.5763 -0.3886,-2.5585 -1.3938,-3.1297 -0.6851,-0.3881 -1.5534,-0.5712 -2.5815,-0.5712 -1.4162,0 -2.6728,0.2971 -3.9521,0.9598 v 1.7362 c 1.0965,-0.6627 2.4443,-1.0511 3.678,-1.0511 1.5763,0 2.2388,0.6398 2.2388,2.1705 v 0.5026 c -1.4848,0 -2.6728,0.0913 -3.4725,0.3195 -2.1245,0.5714 -3.3125,1.8734 -3.3125,3.6099 0,2.1016 1.6676,3.1983 4.8203,3.1983 1.3249,0 2.7873,-0.1601 3.9753,-0.4116 z m -2.0106,-1.3249 c -0.6168,0.1145 -1.1194,0.1602 -1.7816,0.1602 -2.0333,0 -2.9245,-0.5485 -2.9245,-1.7822 0,-1.6676 1.4394,-2.3986 4.7061,-2.3986 z"
             style="fill:#005fa1;fill-rule:evenodd"
             id="path1210" /></g><g
           id="Layer1022"><path
             d="m 74.4929,238.6559 v -10.5083 h -2.1702 v 10.5083 c 0,2.81 -0.8453,3.9067 -2.9701,3.9067 -1.9871,0 -2.9237,-1.2566 -2.9237,-3.8835 v -10.5315 h -2.1705 v 10.5315 c 0,1.9871 0.3427,3.1981 1.1651,4.1806 0.9365,1.1194 2.2615,1.6903 3.9523,1.6903 2.0104,0 3.5635,-0.7994 4.3861,-2.2159 0.5028,-0.8682 0.731,-2.0789 0.731,-3.6782 z"
             style="fill:#005fa1;fill-rule:evenodd"
             id="path1213" /><path
             d="m 86.8194,244.2759 v -6.3964 c 0,-1.5307 -0.1599,-2.4673 -0.5482,-3.13 -0.5939,-1.0508 -1.7589,-1.6679 -3.1984,-1.6679 -1.5307,0 -2.6044,0.754 -3.4038,2.376 v -2.1246 h -1.9879 v 10.9429 h 2.0792 v -4.9116 c 0,-1.622 0.1369,-2.4446 0.5252,-3.1297 0.457,-0.7994 1.2793,-1.2564 2.2159,-1.2564 0.8453,0 1.5539,0.4108 1.919,1.0965 0.2515,0.4566 0.3201,0.9825 0.3201,2.0559 v 6.1453 z"
             style="fill:#005fa1;fill-rule:evenodd"
             id="path1215" /><path
             d="m 91.9966,230.2719 c 0,-0.3884 -0.0913,-0.7311 -0.2968,-0.9369 -0.2055,-0.2052 -0.5023,-0.2968 -0.9136,-0.2968 -0.3886,0 -0.7311,0.0916 -0.9369,0.2968 -0.2055,0.2058 -0.297,0.5029 -0.297,0.9142 0,0.3883 0.0915,0.7311 0.297,0.9366 0.2058,0.2055 0.5029,0.297 0.9139,0.297 0.3887,0 0.7311,-0.0915 0.9366,-0.297 0.2055,-0.2055 0.2968,-0.5026 0.2968,-0.9139 z m -0.1826,14.004 V 233.333 h -2.0789 v 10.9429 z"
             style="fill:#005fa1;fill-rule:evenodd"
             id="path1217" /><path
             d="m 103.9843,233.333 h -2.3074 l -2.9013,8.8413 -2.8556,-8.8413 h -2.2841 l 1.7589,5.0718 c 0.7078,2.0103 1.5077,3.9523 2.4216,5.8711 h 1.919 c 0.6622,-1.3249 1.9874,-4.455 2.6499,-6.3278 z"
             style="fill:#005fa1;fill-rule:evenodd"
             id="path1219" /><path
             d="m 114.6446,237.835 c 0,-2.7471 -1.8735,-4.7509 -4.5006,-4.7509 -2.9472,0 -4.9575,2.2989 -4.9575,5.595 0,3.678 2.2161,5.8482 5.9626,5.8482 1.0965,0 1.9191,-0.1369 2.8783,-0.4569 v -1.6677 c -0.9365,0.3201 -1.6676,0.457 -2.5812,0.457 -2.4446,0 -3.9296,-1.211 -4.1122,-3.4039 h 7.1048 c 0.1601,-0.6397 0.2058,-1.0737 0.2058,-1.6208 z m -1.9877,-0.2041 c 0,0.2041 0,0.3404 -0.023,0.4541 h -5.3455 c 0.1598,-2.0891 1.2104,-3.3605 2.7643,-3.3605 1.5761,0 2.6042,1.2487 2.6042,2.9064 z"
             style="fill:#005fa1;fill-rule:evenodd"
             id="path1221" /><path
             d="m 123.4784,235.3433 v -2.033 c -0.4569,-0.1142 -0.731,-0.1598 -1.1653,-0.1598 -1.6446,0 -2.81,0.8909 -3.4497,2.6498 v -2.4673 h -1.9645 v 10.9429 h 2.079 v -5.3229 c 0,-2.3074 1.2792,-3.8379 3.1983,-3.8379 0.4569,0 0.7767,0.0457 1.3022,0.2282 z"
             style="fill:#005fa1;fill-rule:evenodd"
             id="path1223" /><path
             d="m 132.0164,241.3973 c 0,-1.3932 -0.8683,-2.3757 -2.8556,-3.221 -2.1702,-0.9139 -2.6042,-1.2337 -2.6042,-2.0333 0,-0.8223 0.7767,-1.3706 1.9871,-1.3706 0.9825,0 1.8734,0.137 3.0843,0.4797 v -1.7133 c -1.2109,-0.3197 -2.1702,-0.4572 -3.2898,-0.4572 -2.3758,0 -3.8608,1.1426 -3.8608,2.9701 0,1.3938 0.8226,2.2618 3.0841,3.2213 1.8275,0.7767 2.2847,1.1877 2.2847,2.033 0,1.0052 -0.7767,1.5307 -2.2847,1.5307 -1.0049,0 -2.1016,-0.1828 -2.9696,-0.4796 v 1.7133 c 1.0505,0.297 2.2385,0.4569 3.4035,0.4569 2.4903,0 4.021,-1.188 4.021,-3.13 z"
             style="fill:#005fa1;fill-rule:evenodd"
             id="path1225" /><path
             d="m 136.5754,230.2719 c 0,-0.3884 -0.0913,-0.7311 -0.2971,-0.9369 -0.2052,-0.2052 -0.5023,-0.2968 -0.9136,-0.2968 -0.3884,0 -0.7311,0.0916 -0.9366,0.2968 -0.2058,0.2058 -0.2971,0.5029 -0.2971,0.9142 0,0.3883 0.0913,0.7311 0.2971,0.9366 0.2055,0.2055 0.5026,0.297 0.9136,0.297 0.3886,0 0.7314,-0.0915 0.9366,-0.297 0.2058,-0.2055 0.2971,-0.5026 0.2971,-0.9139 z m -0.1829,14.004 V 233.333 h -2.0789 v 10.9429 z"
             style="fill:#005fa1;fill-rule:evenodd"
             id="path1227" /><path
             d="m 148.5174,244.2759 v -16.1283 h -2.0789 v 6.6019 c -0.8453,-1.1877 -1.7592,-1.6679 -3.13,-1.6679 -2.7184,0 -4.6602,2.3992 -4.6602,5.7345 0,3.3808 1.8961,5.6882 4.6602,5.6882 1.5537,0 2.4905,-0.6397 3.2899,-2.2161 v 1.9877 z m -1.9873,-5.5968 c 0,2.3755 -1.188,4.0437 -2.8789,4.0437 -1.7133,0 -2.9013,-1.5996 -2.9013,-3.9297 0,-2.3074 1.2337,-3.9521 2.9472,-3.9521 1.645,0 2.833,1.5991 2.833,3.8381 z"
             style="fill:#005fa1;fill-rule:evenodd"
             id="path1229" /><path
             d="m 159.496,244.116 v -7.3332 c 0,-1.5764 -0.3886,-2.5586 -1.3935,-3.1298 -0.6854,-0.3883 -1.5537,-0.5714 -2.5818,-0.5714 -1.4162,0 -2.6725,0.297 -3.9518,0.9598 v 1.7362 c 1.0962,-0.6625 2.4441,-1.0508 3.678,-1.0508 1.5763,0 2.2385,0.6395 2.2385,2.1702 v 0.5026 c -1.4845,0 -2.6725,0.0915 -3.4724,0.3197 -2.1246,0.5715 -3.3126,1.8735 -3.3126,3.6097 0,2.1016 1.6676,3.1983 4.8203,3.1983 1.3249,0 2.7873,-0.1599 3.9753,-0.4113 z m -2.0106,-1.3249 c -0.6165,0.1142 -1.1194,0.1599 -1.7816,0.1599 -2.0333,0 -2.9245,-0.5483 -2.9245,-1.7819 0,-1.6676 1.4395,-2.3987 4.7061,-2.3987 z"
             style="fill:#005fa1;fill-rule:evenodd"
             id="path1231" /><path
             d="m 171.6209,244.2759 v -16.1283 h -2.0786 v 6.6019 c -0.8453,-1.1877 -1.7592,-1.6679 -3.13,-1.6679 -2.7185,0 -4.6602,2.3992 -4.6602,5.7345 0,3.3808 1.8961,5.6882 4.6602,5.6882 1.5539,0 2.4905,-0.6397 3.2899,-2.2161 v 1.9877 z m -1.9873,-5.5968 c 0,2.3755 -1.188,4.0437 -2.8786,4.0437 -1.7133,0 -2.9013,-1.5996 -2.9013,-3.9297 0,-2.3074 1.2337,-3.9521 2.9469,-3.9521 1.645,0 2.833,1.5991 2.833,3.8381 z"
             style="fill:#005fa1;fill-rule:evenodd"
             id="path1233" /></g></g><g
         id="Layer1023"
         transform="matrix(0.53215877,0,0,0.53215877,44.764522,-68.879184)"><path
           d="m 89.7187,191.3746 c 0,-16.9243 13.7196,-30.644 30.6439,-30.644 16.9245,0 30.6442,13.7197 30.6442,30.644 0,16.9245 -13.7197,30.6442 -30.6442,30.6442 -16.9243,0 -30.6439,-13.7197 -30.6439,-30.6442 z"
           style="fill:#63bbe5;fill-rule:evenodd"
           id="path1237" /><g
           id="Layer1024"><path
             d="m 102.9754,191.3749 c 0,-9.603 7.7846,-17.3875 17.3875,-17.3875 9.6029,0 17.3877,7.7845 17.3877,17.3875 0,9.6029 -7.7848,17.3874 -17.3877,17.3874 -9.6029,0 -17.3875,-7.7845 -17.3875,-17.3874 z"
             style="fill:#ffffff;fill-rule:evenodd"
             id="path1239" /><g
             id="Layer1025"><path
               d="m 137.7506,191.3746 h -17.388 v 17.3877 c 0,0 3e-4,0 3e-4,0 9.6029,0 17.3877,-7.7845 17.3877,-17.3874 0,0 0,-3e-4 0,-3e-4 z"
               style="fill:#005fa1;fill-rule:evenodd"
               id="path1241" /><path
               d="m 120.3629,191.3749 v -17.3875 c -9.6029,0 -17.3875,7.7845 -17.3875,17.3875 z"
               style="fill:#005fa1;fill-rule:evenodd"
               id="path1243" /></g></g><path
           d="m 103.0857,183.1853 -3.3262,-12.4138 12.1726,3.4427 c -3.8665,1.9032 -6.9962,5.0746 -8.8464,8.9711 z m -0.7313,14.6149 -11.1288,-6.4256 11.0403,-6.1722 c -0.6602,1.9361 -1.0182,4.0125 -1.0182,6.1722 0,2.2544 0.3901,4.4175 1.1067,6.4256 z m 9.8192,10.8515 -12.4141,3.3259 3.4427,-12.1725 c 1.9032,3.8665 5.0746,6.9965 8.9714,8.8466 z m 14.6146,0.7314 -6.4256,11.1288 -6.1722,-11.0407 c 1.9364,0.6605 4.0125,1.0185 6.1722,1.0185 2.2544,0 4.4175,-0.39 6.4256,-1.1066 z m 10.8516,-9.8192 3.3259,12.4137 -12.1723,-3.4424 c 3.8665,-1.9031 6.9962,-5.0745 8.8464,-8.9713 z m 0.7313,-14.6149 11.1288,6.4256 -11.0404,6.1724 c 0.6602,-1.9363 1.0185,-4.0124 1.0185,-6.1724 0,-2.2544 -0.3903,-4.4172 -1.1069,-6.4256 z m -9.8192,-10.8516 12.4138,-3.3259 -3.4424,12.1726 c -1.9032,-3.8665 -5.0746,-6.9962 -8.9714,-8.8467 z m -8.1893,-11.8599 6.1724,11.0404 c -1.9363,-0.6602 -4.0124,-1.0185 -6.1724,-1.0185 -2.2541,0 -4.4172,0.3904 -6.4253,1.1067 z"
           style="fill:#ffffff;fill-rule:evenodd"
           id="path1247" /><path
           d="m 129.6412,185.4658 c 0.0896,0.0448 0.2756,0.1253 0.434,0.1136 0.2172,-0.0156 0.5593,-0.2795 0.5862,-0.7452 0.027,-0.4654 -0.1669,-0.8612 -0.4714,-0.9694 -0.3044,-0.1083 -1.2832,-0.5148 -1.2481,-1.3519 0.0233,-0.553 0.2654,-0.847 0.3498,-1.0207 0.0845,-0.1738 -0.2239,-0.5239 0.0383,-0.8751 0.2622,-0.3512 0.8107,-0.5505 0.9451,-0.779 0.0465,0.2265 0.3308,0.6928 0.2474,1.0718 -0.0833,0.379 -0.3302,0.5976 -0.5643,0.6698 -0.2339,0.072 -0.4278,-0.032 -0.5709,0.3136 -0.1432,0.3455 -0.3719,0.9725 0.3693,1.3739 0.7413,0.4011 1.3014,0.4184 1.3014,1.5554 0,0.8586 -0.6678,1.192 -0.9567,1.192 -0.2098,0 -0.4139,-0.0596 -0.5102,-0.0925 -0.2393,1.0109 -1.1387,1.1461 -1.0032,1.5106 0.2772,0.7461 1.171,0.0355 1.171,0.0355 l -0.1063,2.5526 h -1.753 c 0,0 -0.0119,-0.2957 0,-0.5537 0.0122,-0.2579 0.2628,-0.3248 0.4536,-0.3259 0.1905,-0.001 0.3333,-0.0284 0.5485,-0.0474 0.0981,-0.2205 -0.0105,-0.8421 -0.0105,-0.8421 0,0 -1.4145,0.9198 -2.0707,-0.072 -0.6562,-0.9919 -0.5607,-1.6439 -0.3424,-1.9738 0.2766,-0.4184 0.9547,-0.4955 1.2875,-0.4567 -0.294,-0.7058 -0.9009,-1.0185 -1.298,-1.0185 -0.3969,0 -1.4219,0.2194 -1.8287,-0.6823 -0.1763,-0.3906 -0.14,-0.8484 -0.0255,-1.2738 -1.5066,-0.8136 -1.72,-2.4251 -1.76,-2.7701 -0.0405,-0.3498 -0.4516,-0.3067 -0.4516,-0.3067 v -0.9272 c 0,0 0.2027,-0.0811 0.4731,-0.0751 0.2702,0.006 0.5468,0.3946 0.5389,0.832 -0.007,0.3739 0.0388,0.9394 0.4048,1.3765 0.3657,0.4371 1.3513,0.5794 1.3513,0.5794 0.4858,0.1289 0.8161,-0.0593 1.4343,-0.6103 -0.5511,0.1947 -1.0636,0.0238 -1.0636,0.0238 l -0.5459,-1.3459 c 0,0 0.7597,-0.2143 1.0015,-0.3325 0.2415,-0.1182 0.5556,-0.4351 0.5431,-0.7367 0.2225,-0.023 0.8464,0.0997 1.3116,0.5252 0.3007,0.3178 1.0196,0.5088 1.0196,0.5088 0,0 -0.8816,2.5294 -0.9397,3.3191 -0.0578,0.7895 0.1262,1.016 0.5216,1.2529 0.3676,0.2203 1.1506,0.6126 1.1888,1.378 z m -2.4919,0.0105 c -0.1967,-0.0845 -0.3881,-0.2685 -1.0587,-0.2685 -0.6704,0 -1.6376,0.4252 -1.6376,1.0488 0,0.6237 0.218,0.9165 0.218,0.9165 0,0 -0.7625,0.1981 -0.927,-0.04 v -0.6902 c 0,-0.1936 -0.2486,-0.4164 -0.5127,-0.4164 h -0.4357 v 1.8751 l 2.7995,0.0558 c 0,0 -0.0258,-1.0077 0.519,-0.9711 -0.0964,-0.5023 -0.2052,-1.264 1.0352,-1.51 z m -5.2926,-3.7217 c 0,0 0.2271,-0.0836 0.3921,-0.0932 0.1649,-0.01 0.3243,0.2307 0.36,0.5488 0.0357,0.3177 0.1275,0.5836 0.5196,0.6406 0.3923,0.0573 1.0933,0.0862 1.0933,0.0862 0,0 -0.0791,0.608 0.0629,0.9465 -0.5437,-0.1123 -1.3473,-0.3408 -1.5576,-0.5273 -0.2106,-0.1865 -0.4822,-0.6142 -0.8703,-0.496 z"
           style="fill:#005fa1;fill-rule:evenodd"
           id="path1249" /><path
           d="m 116.0392,200.2235 c 0.0896,0.0448 0.2758,0.1253 0.434,0.1139 0.2174,-0.0158 0.5595,-0.2794 0.5865,-0.7452 0.0269,-0.4657 -0.167,-0.8611 -0.4714,-0.9697 -0.3045,-0.1083 -1.2833,-0.5148 -1.2481,-1.3516 0.0232,-0.5533 0.2653,-0.847 0.3495,-1.021 0.0845,-0.1738 -0.2237,-0.5239 0.0383,-0.8751 0.2622,-0.3509 0.8107,-0.5502 0.9453,-0.7786 0.0465,0.2262 0.3308,0.6925 0.2472,1.0717 -0.0834,0.379 -0.33,0.5973 -0.5641,0.6696 -0.2341,0.072 -0.428,-0.0318 -0.5712,0.3135 -0.1431,0.3455 -0.3716,0.9728 0.3694,1.3739 0.7412,0.4014 1.3016,0.4184 1.3016,1.5557 0,0.8583 -0.6678,1.1917 -0.9569,1.1917 -0.2095,0 -0.4136,-0.0595 -0.5103,-0.0924 -0.2392,1.0108 -1.1384,1.1463 -1.0029,1.5106 0.277,0.7463 1.171,0.0354 1.171,0.0354 l -0.1066,2.5526 h -1.7526 c 0,0 -0.0122,-0.2957 0,-0.5536 0.0122,-0.2577 0.2625,-0.3249 0.4532,-0.326 0.1908,-0.001 0.3334,-0.0281 0.5488,-0.0473 0.0981,-0.2203 -0.0108,-0.8419 -0.0108,-0.8419 0,0 -1.4142,0.9198 -2.0704,-0.0723 -0.6565,-0.9919 -0.5607,-1.6438 -0.3424,-1.9738 0.2767,-0.4181 0.9547,-0.4952 1.2875,-0.4566 -0.2942,-0.7056 -0.9011,-1.0185 -1.298,-1.0185 -0.3968,0 -1.4218,0.2194 -1.8286,-0.682 -0.1763,-0.3907 -0.1403,-0.8485 -0.0258,-1.2742 -1.5066,-0.8136 -1.7198,-2.4251 -1.76,-2.77 -0.0406,-0.3498 -0.4513,-0.3067 -0.4513,-0.3067 v -0.927 c 0,0 0.2027,-0.0813 0.4728,-0.0751 0.2704,0.006 0.5471,0.3946 0.5389,0.8317 -0.007,0.3739 0.0388,0.9394 0.4048,1.3765 0.3659,0.4371 1.3515,0.5794 1.3515,0.5794 0.4859,0.129 0.8161,-0.0592 1.4343,-0.6103 -0.551,0.195 -1.0635,0.0241 -1.0635,0.0241 l -0.5463,-1.3459 c 0,0 0.76,-0.2143 1.0015,-0.3328 0.2418,-0.1182 0.5556,-0.4351 0.5434,-0.7367 0.2225,-0.023 0.8462,0.0998 1.3116,0.5255 0.3008,0.3175 1.0194,0.5086 1.0194,0.5086 0,0 -0.8816,2.5296 -0.9394,3.3191 -0.0579,0.7897 0.1261,1.0159 0.5215,1.2529 0.3674,0.2202 1.1506,0.6125 1.1886,1.3779 z m -2.4917,0.0105 c -0.1967,-0.0845 -0.388,-0.2685 -1.0587,-0.2685 -0.6707,0 -1.6376,0.4252 -1.6376,1.0489 0,0.6236 0.2177,0.9164 0.2177,0.9164 0,0 -0.7622,0.1984 -0.9269,-0.04 v -0.6902 c 0,-0.1936 -0.2483,-0.4164 -0.5125,-0.4164 h -0.436 v 1.8751 l 2.7998,0.0561 c 0,0 -0.0258,-1.0077 0.519,-0.9714 -0.0966,-0.502 -0.2052,-1.2637 1.0352,-1.51 z m -5.2925,-3.7216 c 0,0 0.227,-0.0834 0.392,-0.093 0.165,-0.01 0.3243,0.2307 0.36,0.5485 0.0357,0.3181 0.1273,0.5837 0.5196,0.6409 0.3923,0.057 1.093,0.0859 1.093,0.0859 0,0 -0.0788,0.6083 0.063,0.9465 -0.5437,-0.1123 -1.3473,-0.3407 -1.5577,-0.5272 -0.2103,-0.1866 -0.4821,-0.6143 -0.8699,-0.4961 z"
           style="fill:#005fa1;fill-rule:evenodd"
           id="path1251" /><path
           d="m 110.2948,186.5089 -0.006,3.0733 h 3.2309 v -1.7557 c 0,-0.4437 0.3597,-0.8034 0.8033,-0.8034 0.4437,0 0.8034,0.3597 0.8034,0.8034 v 1.7557 h 3.2309 v -3.0733 l -1.5922,-1.6106 v -2.2808 l 0.5635,-0.5638 -0.003,-2.6518 h -1.2864 v 1.2234 h -1.0726 v -1.8371 H 113.68 v 1.8371 h -1.0727 v -1.2234 h -1.2863 l 0.003,2.6518 0.5635,0.5638 v 2.2808 z"
           style="fill:#ffffff;fill-rule:evenodd"
           id="path1253" /><path
           d="m 122.0019,200.3219 -0.007,3.0733 h 3.2309 v -1.7558 c 0,-0.4436 0.3597,-0.8033 0.8033,-0.8033 0.4436,0 0.8034,0.3597 0.8034,0.8033 v 1.7558 h 3.2309 v -3.0733 l -1.5922,-1.6107 v -2.2807 l 0.5635,-0.5636 -0.003,-2.6521 h -1.2867 v 1.2235 h -1.0726 v -1.8372 h -1.2864 v 1.8372 h -1.0726 v -1.2235 h -1.2866 l 0.003,2.6521 0.5638,0.5636 v 2.2807 z"
           style="fill:#ffffff;fill-rule:evenodd"
           id="path1255" /></g></g></g></svg>
