<?xml version="1.0" encoding="UTF-8" standalone="no"?>
<!-- Created with Inkscape (http://www.inkscape.org/) -->

<svg
   version="1.1"
   id="svg1"
   width="3701.2534"
   height="513.86798"
   viewBox="0 0 3701.2534 513.86798"
   sodipodi:docname="ROBOTNIK LOGO.pdf"
   xmlns:inkscape="http://www.inkscape.org/namespaces/inkscape"
   xmlns:sodipodi="http://sodipodi.sourceforge.net/DTD/sodipodi-0.dtd"
   xmlns="http://www.w3.org/2000/svg"
   xmlns:svg="http://www.w3.org/2000/svg">
  <defs
     id="defs1">
    <clipPath
       clipPathUnits="userSpaceOnUse"
       id="clipPath2">
      <path
         d="M 0,385.401 H 2775.942 V 0 H 0 Z"
         transform="translate(-653.46362,-219.04441)"
         id="path2" />
    </clipPath>
    <clipPath
       clipPathUnits="userSpaceOnUse"
       id="clipPath4">
      <path
         d="M 0,385.401 H 2775.942 V 0 H 0 Z"
         transform="translate(-990.83762,-59.250901)"
         id="path4" />
    </clipPath>
    <clipPath
       clipPathUnits="userSpaceOnUse"
       id="clipPath6">
      <path
         d="M 0,385.401 H 2775.942 V 0 H 0 Z"
         transform="translate(-1305.5725,-63.967704)"
         id="path6" />
    </clipPath>
    <clipPath
       clipPathUnits="userSpaceOnUse"
       id="clipPath8">
      <path
         d="M 0,385.401 H 2775.942 V 0 H 0 Z"
         transform="translate(-1629.7878,-59.250901)"
         id="path8" />
    </clipPath>
    <clipPath
       clipPathUnits="userSpaceOnUse"
       id="clipPath10">
      <path
         d="M 0,385.401 H 2775.942 V 0 H 0 Z"
         transform="translate(-1917.7977,-380.41301)"
         id="path10" />
    </clipPath>
    <clipPath
       clipPathUnits="userSpaceOnUse"
       id="clipPath12">
      <path
         d="M 0,385.401 H 2775.942 V 0 H 0 Z"
         transform="translate(-2175.0604,-280.86571)"
         id="path12" />
    </clipPath>
    <clipPath
       clipPathUnits="userSpaceOnUse"
       id="clipPath14">
      <path
         d="M 0,385.401 H 2775.942 V 0 H 0 Z"
         id="path14" />
    </clipPath>
    <clipPath
       clipPathUnits="userSpaceOnUse"
       id="clipPath16">
      <path
         d="M 0,385.401 H 2775.942 V 0 H 0 Z"
         id="path16" />
    </clipPath>
    <clipPath
       clipPathUnits="userSpaceOnUse"
       id="clipPath18">
      <path
         d="M 0,385.401 H 2775.942 V 0 H 0 Z"
         transform="translate(-2775.9421,-280.47411)"
         id="path18" />
    </clipPath>
    <clipPath
       clipPathUnits="userSpaceOnUse"
       id="clipPath20">
      <path
         d="M 0,385.401 H 2775.942 V 0 H 0 Z"
         transform="translate(-296.575,-385.40131)"
         id="path20" />
    </clipPath>
    <clipPath
       clipPathUnits="userSpaceOnUse"
       id="clipPath22">
      <path
         d="M 0,385.401 H 2775.942 V 0 H 0 Z"
         transform="translate(-296.575,-177.63711)"
         id="path22" />
    </clipPath>
    <clipPath
       clipPathUnits="userSpaceOnUse"
       id="clipPath24">
      <path
         d="M 0,385.401 H 2775.942 V 0 H 0 Z"
         transform="translate(-88.816202,-385.40131)"
         id="path24" />
    </clipPath>
  </defs>
  <sodipodi:namedview
     id="namedview1"
     pagecolor="#ffffff"
     bordercolor="#666666"
     borderopacity="1.0"
     inkscape:showpageshadow="2"
     inkscape:pageopacity="0.0"
     inkscape:pagecheckerboard="0"
     inkscape:deskcolor="#d1d1d1">
    <inkscape:page
       x="0"
       y="0"
       inkscape:label="1"
       id="page1"
       width="3701.2534"
       height="513.86798"
       margin="0"
       bleed="0" />
  </sodipodi:namedview>
  <g
     id="layer-MC0"
     inkscape:groupmode="layer"
     inkscape:label="Capa 1">
    <path
       id="path1"
       d="M 0,0 H -96.922 V 94.311 H 0 c 47.15,0 70.206,-8.338 70.206,-46.895 C 70.206,9.377 47.15,0 0,0 m 150.364,48.455 c 0,78.857 -42.441,112.914 -131.505,112.914 h -194.893 v -375.653 h 79.112 v 147.746 h 93.253 l 82.78,-147.746 h 89.064 l -93.78,157.18 c 48.725,10.48 75.969,47.679 75.969,105.559"
       style="fill:#231f20;fill-opacity:1;fill-rule:nonzero;stroke:none"
       transform="matrix(1.3333333,0,0,-1.3333333,871.2848,221.8088)"
       clip-path="url(#clipPath2)" />
    <path
       id="path3"
       d="m 0,0 c -42.961,0 -69.678,29.859 -69.678,83.303 0,53.443 27.244,83.302 69.678,83.302 43.481,0 70.206,-29.859 70.206,-83.302 C 70.206,29.859 42.961,0 0,0 m 0.52,226.332 c -90.112,0 -146.695,-57.105 -146.695,-143.029 0,-85.398 56.583,-142.51 146.695,-142.51 90.639,0 146.175,57.112 146.175,142.51 0,85.924 -56.583,143.029 -146.175,143.029"
       style="fill:#231f20;fill-opacity:1;fill-rule:nonzero;stroke:none"
       transform="matrix(1.3333333,0,0,-1.3333333,1321.1168,434.8668)"
       clip-path="url(#clipPath4)" />
    <path
       id="path5"
       d="m 0,0 h -50.3 v 157.171 h 44.536 c 56.583,0 81.205,-20.434 81.205,-80.16 C 75.441,19.379 53.961,0 0,0 M 12.575,216.898 H -50.3 v 99.547 h -72.82 V -59.207 H 17.283 c 85.403,0 134.648,53.443 134.648,141.462 0,36.671 -9.953,67.058 -29.859,92.208 -26.197,33.01 -59.733,42.435 -109.497,42.435"
       style="fill:#231f20;fill-opacity:1;fill-rule:nonzero;stroke:none"
       transform="matrix(1.3333333,0,0,-1.3333333,1740.7633,428.57773)"
       clip-path="url(#clipPath6)" />
    <path
       id="path7"
       d="m 0,0 c -42.961,0 -69.678,29.859 -69.678,83.303 0,53.443 27.244,83.302 69.678,83.302 43.48,0 70.205,-29.859 70.205,-83.302 C 70.205,29.859 42.961,0 0,0 m 0.52,226.332 c -90.112,0 -146.696,-57.105 -146.696,-143.029 0,-85.398 56.584,-142.51 146.696,-142.51 90.638,0 146.174,57.112 146.174,142.51 0,85.924 -56.583,143.029 -146.174,143.029"
       style="fill:#231f20;fill-opacity:1;fill-rule:nonzero;stroke:none"
       transform="matrix(1.3333333,0,0,-1.3333333,2173.0504,434.8668)"
       clip-path="url(#clipPath8)" />
    <path
       id="path9"
       d="m 0,0 h -72.82 v -99.547 h -51.347 v -55.01 h 51.347 v -134.651 c 0,-56.577 30.386,-86.444 83.3,-86.444 h 66.537 v 55.009 H 47.158 C 9.961,-320.643 0,-304.397 0,-266.152 v 111.595 h 77.017 v 55.01 H 0 Z"
       style="fill:#231f20;fill-opacity:1;fill-rule:nonzero;stroke:none"
       transform="matrix(1.3333333,0,0,-1.3333333,2557.0635,6.6506667)"
       clip-path="url(#clipPath10)" />
    <path
       id="path11"
       d="m 0,0 h -137.269 v -276.105 h 72.828 v 215.331 h 58.677 c 41.387,0 48.198,-11 48.198,-49.246 v -166.085 h 72.828 v 174.991 C 115.262,-27.765 81.726,0 0,0"
       style="fill:#231f20;fill-opacity:1;fill-rule:nonzero;stroke:none"
       transform="matrix(1.3333333,0,0,-1.3333333,2900.0804,139.3804)"
       clip-path="url(#clipPath12)" />
    <path
       id="path13"
       d="m 2352.149,4.761 h 76.49 v 275.641 h -76.49 z"
       style="fill:#231f20;fill-opacity:1;fill-rule:nonzero;stroke:none"
       transform="matrix(1.3333333,0,0,-1.3333333,0,513.868)"
       clip-path="url(#clipPath14)" />
    <path
       id="path15"
       d="m 2352.149,311.78 h 76.49 v 68.633 h -76.49 z"
       style="fill:#231f20;fill-opacity:1;fill-rule:nonzero;stroke:none"
       transform="matrix(1.3333333,0,0,-1.3333333,0,513.868)"
       clip-path="url(#clipPath16)" />
    <path
       id="path17"
       d="M 0,0 H -92.206 L -209.562,-132.356 V 99.939 h -72.828 v -375.652 h 72.828 v 133.939 L -97.971,-275.713 H 0 l -127.837,140.742 z"
       style="fill:#231f20;fill-opacity:1;fill-rule:nonzero;stroke:none"
       transform="matrix(1.3333333,0,0,-1.3333333,3701.2561,139.90253)"
       clip-path="url(#clipPath18)" />
    <path
       id="path19"
       d="m 0,0 c -49.052,0 -88.816,-39.765 -88.816,-88.818 0,-49.055 39.764,-88.819 88.816,-88.819 49.053,0 88.816,39.764 88.816,88.819 C 88.816,-39.765 49.053,0 0,0"
       style="fill:#d41042;fill-opacity:1;fill-rule:nonzero;stroke:none"
       transform="matrix(1.3333333,0,0,-1.3333333,395.43333,-4e-4)"
       clip-path="url(#clipPath20)" />
    <path
       id="path21"
       d="m 0,0 c -49.052,0 -88.816,-39.765 -88.816,-88.819 0,-49.054 39.764,-88.818 88.816,-88.818 49.053,0 88.816,39.764 88.816,88.818 C 88.816,-39.765 49.053,0 0,0"
       style="fill:#d41042;fill-opacity:1;fill-rule:nonzero;stroke:none"
       transform="matrix(1.3333333,0,0,-1.3333333,395.43333,277.01853)"
       clip-path="url(#clipPath22)" />
    <path
       id="path23"
       d="m 0,0 c -49.052,0 -88.816,-39.765 -88.816,-88.818 0,-49.055 39.764,-88.819 88.816,-88.819 49.053,0 88.816,39.764 88.816,88.819 C 88.816,-39.765 49.053,0 0,0"
       style="fill:#d41042;fill-opacity:1;fill-rule:nonzero;stroke:none"
       transform="matrix(1.3333333,0,0,-1.3333333,118.4216,-4e-4)"
       clip-path="url(#clipPath24)" />
  </g>
</svg>
