<?xml version="1.0" encoding="UTF-8" standalone="no"?>
<!-- Created with Inkscape (http://www.inkscape.org/) -->

<svg
   version="1.1"
   id="svg1"
   width="548.49597"
   height="208.78265"
   viewBox="0 0 548.49597 208.78266"
   sodipodi:docname="universidad-rey-juan-carlos-seeklogo.eps"
   xmlns:inkscape="http://www.inkscape.org/namespaces/inkscape"
   xmlns:sodipodi="http://sodipodi.sourceforge.net/DTD/sodipodi-0.dtd"
   xmlns="http://www.w3.org/2000/svg"
   xmlns:svg="http://www.w3.org/2000/svg">
  <defs
     id="defs1" />
  <sodipodi:namedview
     id="namedview1"
     pagecolor="#ffffff"
     bordercolor="#666666"
     borderopacity="1.0"
     inkscape:showpageshadow="2"
     inkscape:pageopacity="0.0"
     inkscape:pagecheckerboard="0"
     inkscape:deskcolor="#d1d1d1" />
  <g
     id="g1"
     inkscape:groupmode="layer"
     inkscape:label="1"
     transform="translate(0,-0.00400855)">
    <g
       id="group-R5">
      <path
         id="path2"
         d="m 1465.31,894.023 h 43.87 v -173.07 c 0,-23.422 -1.71,-41.105 -5.13,-53.031 -3.42,-11.93 -7.64,-21.863 -12.66,-29.789 -5.02,-7.934 -11.17,-15.028 -18.44,-21.281 -24.15,-20.805 -55.73,-31.207 -94.72,-31.207 -39.72,0 -71.58,10.328 -95.59,30.992 -7.27,6.402 -13.42,13.562 -18.44,21.496 -5.02,7.926 -9.17,17.64 -12.44,29.133 -3.27,11.496 -4.91,29.539 -4.91,54.125 v 172.632 h 43.87 v -173.07 c 0,-28.66 3.27,-48.594 9.82,-59.797 6.54,-11.203 16.51,-20.187 29.9,-26.949 13.38,-6.769 29.17,-10.152 47.36,-10.152 25.89,0 46.99,6.765 63.29,20.297 8.58,7.277 14.76,15.859 18.55,25.75 3.78,9.894 5.67,26.847 5.67,50.851 v 173.07"
         style="fill:#231f20;fill-opacity:1;fill-rule:nonzero;stroke:none"
         transform="matrix(0.13333333,0,0,-0.13333333,0,208.78667)" />
      <path
         id="path3"
         d="m 1618.33,789.918 v -25.531 c 17.75,19.64 37.9,29.461 60.45,29.461 12.51,0 24.15,-3.239 34.92,-9.711 10.76,-6.473 18.95,-15.352 24.55,-26.625 5.6,-11.278 8.41,-29.137 8.41,-53.578 V 589.137 h -39.73 v 114.359 c 0,20.516 -3.13,35.172 -9.38,43.977 -6.26,8.8 -16.73,13.203 -31.43,13.203 -18.77,0 -34.7,-9.387 -47.79,-28.156 V 589.137 h -40.6 v 200.781 h 40.6"
         style="fill:#231f20;fill-opacity:1;fill-rule:nonzero;stroke:none"
         transform="matrix(0.13333333,0,0,-0.13333333,0,208.78667)" />
      <path
         id="path4"
         d="m 1801.9,789.918 h 39.72 V 589.137 h -39.72 z m 19.64,84.465 c 6.55,0 12.15,-2.258 16.81,-6.77 4.65,-4.511 6.98,-10.039 6.98,-16.586 0,-6.402 -2.33,-11.929 -6.98,-16.589 -4.66,-4.657 -10.26,-6.981 -16.81,-6.981 -6.11,0 -11.49,2.363 -16.14,7.094 -4.66,4.726 -6.99,10.219 -6.99,16.476 0,6.114 2.33,11.532 6.99,16.258 4.65,4.727 10.03,7.098 16.14,7.098"
         style="fill:#231f20;fill-opacity:1;fill-rule:nonzero;stroke:none"
         transform="matrix(0.13333333,0,0,-0.13333333,0,208.78667)" />
      <path
         id="path5"
         d="m 2039.91,789.918 h 43.08 L 1994.3,585.645 h -13.44 l -90.81,204.273 h 43.49 l 54.17,-123.527 52.2,123.527"
         style="fill:#231f20;fill-opacity:1;fill-rule:nonzero;stroke:none"
         transform="matrix(0.13333333,0,0,-0.13333333,0,208.78667)" />
      <path
         id="path6"
         d="m 2143.44,709.824 h 101.04 c -1.01,15.856 -5.75,28.078 -14.18,36.664 -8.44,8.586 -19.79,12.879 -34.05,12.879 -14.26,0 -25.94,-4.293 -35.03,-12.879 -9.09,-8.586 -15.02,-20.808 -17.78,-36.664 z m 140.33,-23.789 h -141.2 c 1.01,-19.203 7.45,-34.48 19.31,-45.828 11.86,-11.348 27.17,-17.023 45.94,-17.023 26.18,0 50.33,8.144 72.45,24.445 v -38.848 c -12.21,-8.148 -24.33,-13.972 -36.33,-17.461 -12.01,-3.492 -26.08,-5.238 -42.23,-5.238 -22.12,0 -40.01,4.582 -53.69,13.75 -13.67,9.164 -24.62,21.496 -32.84,36.988 -8.23,15.5 -12.34,33.43 -12.34,53.801 0,30.551 8.66,55.395 25.98,74.527 17.3,19.129 39.78,28.7 67.43,28.7 26.63,0 47.87,-9.309 63.73,-27.934 15.86,-18.629 23.79,-43.578 23.79,-74.859 v -5.02"
         style="fill:#231f20;fill-opacity:1;fill-rule:nonzero;stroke:none"
         transform="matrix(0.13333333,0,0,-0.13333333,0,208.78667)" />
      <path
         id="path7"
         d="m 2374.25,789.918 v -46.043 l 2.18,3.488 c 19.2,30.992 38.41,46.485 57.61,46.485 14.98,0 30.63,-7.567 46.93,-22.696 l -20.95,-34.922 c -13.83,13.098 -26.63,19.645 -38.42,19.645 -12.8,0 -23.89,-6.113 -33.28,-18.336 -9.38,-12.223 -14.07,-26.699 -14.07,-43.426 V 589.137 h -39.94 v 200.781 h 39.94"
         style="fill:#231f20;fill-opacity:1;fill-rule:nonzero;stroke:none"
         transform="matrix(0.13333333,0,0,-0.13333333,0,208.78667)" />
      <path
         id="path8"
         d="m 2512.87,603.543 v 42.77 c 11.2,-7.856 22.67,-14.223 34.38,-19.094 11.71,-4.875 21.57,-7.313 29.57,-7.313 8.29,0 15.42,2.039 21.38,6.114 5.97,4.074 8.96,8.949 8.96,14.621 0,5.82 -1.94,10.66 -5.79,14.515 -3.86,3.856 -12.19,9.418 -24.98,16.696 -25.62,14.257 -42.39,26.441 -50.32,36.55 -7.93,10.114 -11.89,21.137 -11.89,33.071 0,15.418 6.01,28.004 18.01,37.75 12,9.75 27.46,14.625 46.37,14.625 19.64,0 39.8,-5.532 60.45,-16.586 V 737.98 c -23.56,14.258 -42.84,21.387 -57.83,21.387 -7.71,0 -13.93,-1.64 -18.66,-4.918 -4.73,-3.277 -7.09,-7.613 -7.09,-13 0,-4.668 2.14,-9.109 6.43,-13.328 4.28,-4.23 11.81,-9.316 22.57,-15.277 l 14.19,-8.074 c 33.48,-18.911 50.22,-39.856 50.22,-62.836 0,-16.434 -6.44,-29.93 -19.32,-40.473 -12.87,-10.543 -29.42,-15.816 -49.65,-15.816 -11.93,0 -22.55,1.277 -31.86,3.82 -9.31,2.543 -21.03,7.234 -35.14,14.078"
         style="fill:#231f20;fill-opacity:1;fill-rule:nonzero;stroke:none"
         transform="matrix(0.13333333,0,0,-0.13333333,0,208.78667)" />
      <path
         id="path9"
         d="m 2694.48,789.918 h 39.73 V 589.137 h -39.73 z m 19.65,84.465 c 6.54,0 12.14,-2.258 16.8,-6.77 4.66,-4.511 6.99,-10.039 6.99,-16.586 0,-6.402 -2.33,-11.929 -6.99,-16.589 -4.66,-4.657 -10.26,-6.981 -16.8,-6.981 -6.11,0 -11.49,2.363 -16.15,7.094 -4.66,4.726 -6.98,10.219 -6.98,16.476 0,6.114 2.32,11.532 6.98,16.258 4.66,4.727 10.04,7.098 16.15,7.098"
         style="fill:#231f20;fill-opacity:1;fill-rule:nonzero;stroke:none"
         transform="matrix(0.13333333,0,0,-0.13333333,0,208.78667)" />
      <path
         id="path10"
         d="m 2930.04,623.184 v 127.234 c -12.37,6.254 -24.88,9.383 -37.54,9.383 -19.79,0 -35.54,-6.477 -47.26,-19.422 -11.7,-12.949 -17.56,-30.41 -17.56,-52.379 0,-20.66 5.09,-36.594 15.28,-47.793 6.1,-6.695 12.58,-11.207 19.42,-13.531 6.84,-2.328 19.13,-3.492 36.89,-3.492 z m 0,270.839 h 39.93 V 589.137 h -84.89 c -29.68,0 -53.36,9.383 -71.04,28.156 -17.68,18.766 -26.52,43.934 -26.52,75.512 0,29.531 9.28,53.828 27.83,72.89 18.55,19.059 42.23,28.586 71.04,28.586 13.39,0 27.94,-2.836 43.65,-8.508 v 108.25"
         style="fill:#231f20;fill-opacity:1;fill-rule:nonzero;stroke:none"
         transform="matrix(0.13333333,0,0,-0.13333333,0,208.78667)" />
      <path
         id="path11"
         d="m 3128.2,628.859 v 59.579 l -26.63,-10.258 c -13.52,-5.387 -23.09,-10.801 -28.69,-16.258 -5.6,-5.457 -8.41,-12.262 -8.41,-20.406 0,-8.293 2.66,-15.059 7.97,-20.297 5.31,-5.239 12.19,-7.86 20.63,-7.86 12.65,0 24.36,5.168 35.13,15.5 z m 39.07,80.965 v -85.332 c 0,-6.84 2.32,-10.258 6.98,-10.258 4.8,0 12.29,3.567 22.48,10.696 v -24.227 c -9.02,-5.82 -16.26,-9.785 -21.72,-11.894 -5.45,-2.11 -11.16,-3.164 -17.13,-3.164 -17.02,0 -27.06,6.691 -30.12,20.078 -16.87,-13.094 -34.84,-19.641 -53.9,-19.641 -13.97,0 -25.61,4.617 -34.92,13.856 -9.31,9.238 -13.97,20.843 -13.97,34.808 0,12.66 4.55,23.973 13.64,33.942 9.1,9.96 22.01,17.855 38.74,23.675 l 50.85,17.461 v 10.696 c 0,24.148 -12.08,36.23 -36.23,36.23 -21.68,0 -42.77,-11.207 -63.29,-33.613 v 43.429 c 15.42,18.188 37.61,27.282 66.56,27.282 21.68,0 39.08,-5.672 52.16,-17.02 4.37,-3.64 8.3,-8.476 11.79,-14.519 3.5,-6.036 5.71,-12.075 6.66,-18.11 0.95,-6.039 1.42,-17.5 1.42,-34.375"
         style="fill:#231f20;fill-opacity:1;fill-rule:nonzero;stroke:none"
         transform="matrix(0.13333333,0,0,-0.13333333,0,208.78667)" />
      <path
         id="path12"
         d="m 3362.07,623.184 v 127.234 c -12.37,6.254 -24.88,9.383 -37.54,9.383 -19.79,0 -35.54,-6.477 -47.25,-19.422 -11.71,-12.949 -17.57,-30.41 -17.57,-52.379 0,-20.66 5.09,-36.594 15.28,-47.793 6.1,-6.695 12.58,-11.207 19.42,-13.531 6.84,-2.328 19.13,-3.492 36.89,-3.492 z m 0,270.839 H 3402 V 589.137 h -84.89 c -29.68,0 -53.36,9.383 -71.04,28.156 -17.68,18.766 -26.52,43.934 -26.52,75.512 0,29.531 9.28,53.828 27.83,72.89 18.55,19.059 42.23,28.586 71.04,28.586 13.39,0 27.94,-2.836 43.65,-8.508 v 108.25"
         style="fill:#231f20;fill-opacity:1;fill-rule:nonzero;stroke:none"
         transform="matrix(0.13333333,0,0,-0.13333333,0,208.78667)" />
      <path
         id="path13"
         d="m 1305.66,370.57 h -13.09 v -96.25 h 16.59 c 22.11,0 37.28,1.891 45.5,5.68 8.22,3.781 14.62,9.488 19.21,17.129 4.58,7.641 6.87,16.332 6.87,26.082 0,9.598 -2.55,18.289 -7.64,26.078 -5.09,7.781 -12.26,13.27 -21.49,16.481 -9.25,3.199 -24.55,4.8 -45.95,4.8 z m -56.74,-267.789 v 304.891 h 76.39 c 30.84,0 55.32,-7.641 73.44,-22.922 18.11,-15.27 27.17,-35.941 27.17,-61.98 0,-17.75 -4.44,-33.098 -13.32,-46.051 -8.87,-12.949 -21.6,-22.617 -38.19,-29.02 9.75,-6.41 19.28,-15.14 28.59,-26.187 9.31,-11.063 22.41,-30.34 39.29,-57.84 10.62,-17.313 19.13,-30.332 25.53,-39.063 l 16.15,-21.828 h -51.94 l -13.3,20.09 c -0.43,0.731 -1.31,1.961 -2.61,3.719 l -8.5,12 -13.52,22.281 -14.6,23.801 c -9.01,12.519 -17.26,22.476 -24.77,29.887 -7.5,7.402 -14.28,12.75 -20.32,16.011 -6.05,3.27 -16.2,4.899 -30.47,4.899 h -11.37 V 102.781 h -43.65"
         style="fill:#231f20;fill-opacity:1;fill-rule:nonzero;stroke:none"
         transform="matrix(0.13333333,0,0,-0.13333333,0,208.78667)" />
      <path
         id="path14"
         d="m 1542.9,223.469 h 101.04 c -1.02,15.863 -5.75,28.082 -14.18,36.672 -8.44,8.578 -19.79,12.871 -34.05,12.871 -14.26,0 -25.93,-4.293 -35.03,-12.871 -9.09,-8.59 -15.02,-20.809 -17.78,-36.672 z m 140.33,-23.789 h -141.21 c 1.02,-19.2 7.46,-34.481 19.32,-45.828 11.85,-11.34 27.17,-17.02 45.94,-17.02 26.19,0 50.34,8.148 72.45,24.449 V 122.43 c -12.22,-8.149 -24.33,-13.969 -36.33,-17.461 -12.01,-3.489 -26.09,-5.2385 -42.23,-5.2385 -22.12,0 -40.02,4.5785 -53.69,13.7495 -13.68,9.161 -24.63,21.5 -32.85,36.989 -8.22,15.5 -12.33,33.429 -12.33,53.801 0,30.55 8.66,55.39 25.97,74.519 17.32,19.141 39.8,28.711 67.44,28.711 26.62,0 47.87,-9.32 63.73,-27.941 15.85,-18.629 23.79,-43.579 23.79,-74.86 v -5.019"
         style="fill:#231f20;fill-opacity:1;fill-rule:nonzero;stroke:none"
         transform="matrix(0.13333333,0,0,-0.13333333,0,208.78667)" />
      <path
         id="path15"
         d="m 1842.71,303.57 h 44.57 L 1745.02,0.429688 h -44.34 L 1768.84,145.898 1691.3,303.57 h 45.26 l 54.22,-113.422 51.93,113.422"
         style="fill:#231f20;fill-opacity:1;fill-rule:nonzero;stroke:none"
         transform="matrix(0.13333333,0,0,-0.13333333,0,208.78667)" />
      <path
         id="path16"
         d="m 2065.29,407.672 h 43.66 V 106.711 c 0,-28.0821 -2.89,-48.8399 -8.64,-62.3008 -5.74,-13.461 -15.02,-24.2383 -27.81,-32.3008 C 2059.69,4.01953 2044.26,0 2026.23,0 c -2.77,0 -7.5,0.429688 -14.19,1.30078 l -8.08,40.58982 h 11.14 c 12.52,0 22.07,1.5196 28.69,4.5899 6.62,3.0508 11.85,8.4414 15.72,16.1484 3.85,7.7109 5.78,24.082 5.78,49.1011 v 295.942"
         style="fill:#231f20;fill-opacity:1;fill-rule:nonzero;stroke:none"
         transform="matrix(0.13333333,0,0,-0.13333333,0,208.78667)" />
      <path
         id="path17"
         d="m 2307.97,102.781 v 25.758 c -8.44,-9.238 -18.09,-16.418 -28.92,-21.551 -10.84,-5.129 -21.65,-7.6989 -32.41,-7.6989 -12.66,0 -24.34,3.1719 -35.03,9.4999 -10.69,6.32 -18.77,14.91 -24.22,25.75 -5.46,10.84 -8.18,28.84 -8.18,54.02 V 303.57 h 39.72 V 189.141 c 0,-21.071 3.01,-35.789 9.05,-44.141 6.03,-8.359 16.62,-12.531 31.76,-12.531 18.91,0 34.99,9.23 48.23,27.711 v 143.39 h 39.72 V 102.781 h -39.72"
         style="fill:#231f20;fill-opacity:1;fill-rule:nonzero;stroke:none"
         transform="matrix(0.13333333,0,0,-0.13333333,0,208.78667)" />
      <path
         id="path18"
         d="m 2516.4,142.512 v 59.578 l -26.63,-10.258 c -13.53,-5.391 -23.1,-10.801 -28.7,-16.262 -5.6,-5.461 -8.4,-12.261 -8.4,-20.41 0,-8.289 2.65,-15.058 7.96,-20.301 5.32,-5.23 12.19,-7.847 20.63,-7.847 12.66,0 24.37,5.16 35.14,15.5 z m 39.06,80.957 v -85.328 c 0,-6.84 2.32,-10.262 6.98,-10.262 4.81,0 12.3,3.57 22.48,10.703 v -24.23 c -9.02,-5.821 -16.26,-9.782 -21.72,-11.891 -5.45,-2.109 -11.16,-3.1719 -17.13,-3.1719 -17.02,0 -27.06,6.6909 -30.11,20.0819 -16.88,-13.09 -34.85,-19.6405 -53.91,-19.6405 -13.96,0 -25.6,4.6215 -34.92,13.8515 -9.31,9.238 -13.97,20.848 -13.97,34.809 0,12.668 4.55,23.968 13.65,33.941 9.09,9.969 22,17.859 38.74,23.68 l 50.85,17.457 v 10.703 c 0,24.148 -12.08,36.226 -36.23,36.226 -21.68,0 -42.78,-11.207 -63.29,-33.617 v 43.438 c 15.41,18.179 37.6,27.281 66.56,27.281 21.68,0 39.07,-5.68 52.16,-17.031 4.36,-3.629 8.3,-8.469 11.78,-14.508 3.5,-6.039 5.72,-12.082 6.66,-18.109 0.95,-6.043 1.42,-17.5 1.42,-34.383"
         style="fill:#231f20;fill-opacity:1;fill-rule:nonzero;stroke:none"
         transform="matrix(0.13333333,0,0,-0.13333333,0,208.78667)" />
      <path
         id="path19"
         d="m 2658.72,303.57 v -25.539 c 17.75,19.649 37.9,29.469 60.46,29.469 12.51,0 24.15,-3.238 34.91,-9.719 10.77,-6.472 18.96,-15.351 24.56,-26.621 5.6,-11.281 8.4,-29.14 8.4,-53.578 V 102.781 h -39.72 v 114.36 c 0,20.519 -3.13,35.179 -9.38,43.98 -6.26,8.801 -16.74,13.199 -31.44,13.199 -18.76,0 -34.69,-9.379 -47.79,-28.148 V 102.781 h -40.59 V 303.57 h 40.59"
         style="fill:#231f20;fill-opacity:1;fill-rule:nonzero;stroke:none"
         transform="matrix(0.13333333,0,0,-0.13333333,0,208.78667)" />
      <path
         id="path20"
         d="m 3234.88,173.5 v -48.02 c -32.01,-17.46 -68.96,-26.1909 -110.87,-26.1909 -34.04,0 -62.93,6.8399 -86.64,20.5199 -23.72,13.671 -42.49,32.523 -56.31,56.523 -13.82,24.008 -20.73,49.977 -20.73,77.91 0,44.379 15.82,81.699 47.47,111.957 31.64,30.27 70.67,45.403 117.08,45.403 32.01,0 67.58,-8.372 106.72,-25.102 v -46.918 c -35.64,20.367 -70.49,30.547 -104.53,30.547 -34.92,0 -63.92,-11.02 -86.97,-33.059 -23.07,-22.039 -34.59,-49.648 -34.59,-82.828 0,-33.461 11.35,-60.961 34.04,-82.492 22.7,-21.531 51.73,-32.301 87.08,-32.301 36.95,0 73.04,11.352 108.25,34.051"
         style="fill:#231f20;fill-opacity:1;fill-rule:nonzero;stroke:none"
         transform="matrix(0.13333333,0,0,-0.13333333,0,208.78667)" />
      <path
         id="path21"
         d="m 3380.2,142.512 v 59.578 l -26.64,-10.258 c -13.52,-5.391 -23.09,-10.801 -28.69,-16.262 -5.6,-5.461 -8.41,-12.261 -8.41,-20.41 0,-8.289 2.66,-15.058 7.97,-20.301 5.32,-5.23 12.19,-7.847 20.63,-7.847 12.65,0 24.36,5.16 35.14,15.5 z m 39.06,80.957 v -85.328 c 0,-6.84 2.32,-10.262 6.98,-10.262 4.8,0 12.3,3.57 22.48,10.703 v -24.23 c -9.02,-5.821 -16.26,-9.782 -21.72,-11.891 -5.45,-2.109 -11.16,-3.1719 -17.13,-3.1719 -17.02,0 -27.06,6.6909 -30.11,20.0819 -16.88,-13.09 -34.85,-19.6405 -53.91,-19.6405 -13.97,0 -25.61,4.6215 -34.92,13.8515 -9.31,9.238 -13.97,20.848 -13.97,34.809 0,12.668 4.55,23.968 13.65,33.941 9.09,9.969 22,17.859 38.74,23.68 l 50.85,17.457 v 10.703 c 0,24.148 -12.08,36.226 -36.24,36.226 -21.67,0 -42.77,-11.207 -63.29,-33.617 v 43.438 c 15.42,18.179 37.61,27.281 66.57,27.281 21.68,0 39.07,-5.68 52.15,-17.031 4.37,-3.629 8.31,-8.469 11.79,-14.508 3.5,-6.039 5.71,-12.082 6.66,-18.109 0.95,-6.043 1.42,-17.5 1.42,-34.383"
         style="fill:#231f20;fill-opacity:1;fill-rule:nonzero;stroke:none"
         transform="matrix(0.13333333,0,0,-0.13333333,0,208.78667)" />
      <path
         id="path22"
         d="m 3526.42,303.57 v -46.05 l 2.17,3.492 c 19.21,30.988 38.42,46.488 57.62,46.488 14.98,0 30.63,-7.57 46.92,-22.699 l -20.94,-34.922 c -13.83,13.09 -26.63,19.641 -38.42,19.641 -12.8,0 -23.9,-6.11 -33.28,-18.329 -9.39,-12.222 -14.07,-26.703 -14.07,-43.429 V 102.781 h -39.95 V 303.57 h 39.95"
         style="fill:#231f20;fill-opacity:1;fill-rule:nonzero;stroke:none"
         transform="matrix(0.13333333,0,0,-0.13333333,0,208.78667)" />
      <path
         id="path23"
         d="m 3661.72,407.672 h 39.73 V 102.781 h -39.73 v 304.891"
         style="fill:#231f20;fill-opacity:1;fill-rule:nonzero;stroke:none"
         transform="matrix(0.13333333,0,0,-0.13333333,0,208.78667)" />
      <path
         id="path24"
         d="m 3843.75,268.211 c -19.06,0 -34.71,-6.262 -46.92,-18.77 -12.23,-12.511 -18.34,-28.441 -18.34,-47.793 0,-19.207 6.26,-34.886 18.77,-47.027 12.52,-12.152 28.59,-18.23 48.23,-18.23 19.5,0 35.47,6.148 47.91,18.441 12.44,12.297 18.66,28.047 18.66,47.258 0,19.051 -6.48,34.84 -19.42,47.351 -12.96,12.508 -29.25,18.77 -48.89,18.77 z m 2.18,35.789 c 30.55,0 55.94,-9.852 76.17,-29.57 20.21,-19.711 30.33,-44.489 30.33,-74.309 0,-28.949 -10.25,-53 -30.77,-72.129 -20.52,-19.133 -46.35,-28.7029 -77.48,-28.7029 -30.12,0 -55.28,9.7109 -75.51,29.1409 -20.22,19.422 -30.34,43.679 -30.34,72.781 0,29.391 10.22,53.871 30.66,73.437 20.44,19.571 46.09,29.352 76.94,29.352"
         style="fill:#231f20;fill-opacity:1;fill-rule:nonzero;stroke:none"
         transform="matrix(0.13333333,0,0,-0.13333333,0,208.78667)" />
      <path
         id="path25"
         d="m 3977.75,117.191 v 42.77 c 11.21,-7.852 22.67,-14.223 34.38,-19.09 11.71,-4.883 21.57,-7.312 29.57,-7.312 8.29,0 15.42,2.031 21.39,6.113 5.96,4.066 8.95,8.937 8.95,14.617 0,5.82 -1.93,10.66 -5.79,14.512 -3.86,3.859 -12.19,9.418 -24.98,16.699 -25.62,14.262 -42.38,26.441 -50.31,36.551 -7.93,10.109 -11.9,21.129 -11.9,33.07 0,15.418 6.01,28.008 18.01,37.75 12,9.75 27.46,14.629 46.38,14.629 19.64,0 39.79,-5.539 60.45,-16.59 v -39.281 c -23.57,14.25 -42.85,21.383 -57.84,21.383 -7.71,0 -13.93,-1.641 -18.66,-4.91 -4.72,-3.282 -7.09,-7.622 -7.09,-13 0,-4.672 2.14,-9.114 6.43,-13.332 4.29,-4.231 11.81,-9.321 22.58,-15.282 l 14.19,-8.066 c 33.47,-18.91 50.21,-39.863 50.21,-62.84 0,-16.434 -6.43,-29.934 -19.32,-40.473 -12.87,-10.539 -29.42,-15.8199 -49.64,-15.8199 -11.94,0 -22.55,1.2809 -31.87,3.8199 -9.31,2.551 -21.02,7.243 -35.14,14.082"
         style="fill:#231f20;fill-opacity:1;fill-rule:nonzero;stroke:none"
         transform="matrix(0.13333333,0,0,-0.13333333,0,208.78667)" />
      <path
         id="path26"
         d="m 210.035,1285.85 c 0,-58 -47.015,-105.01 -105.019,-105.01 C 47.0156,1180.84 0,1227.85 0,1285.85 c 0,58 47.0156,105.02 105.016,105.02 58.004,0 105.019,-47.02 105.019,-105.02"
         style="fill:#ed192e;fill-opacity:1;fill-rule:nonzero;stroke:none"
         transform="matrix(0.13333333,0,0,-0.13333333,0,208.78667)" />
      <path
         id="path27"
         d="m 461.98,1285.85 c 0,-58 -47.019,-105.01 -105.015,-105.01 -58,0 -105.024,47.01 -105.024,105.01 0,58 47.024,105.02 105.024,105.02 57.996,0 105.015,-47.02 105.015,-105.02"
         style="fill:#ed192e;fill-opacity:1;fill-rule:nonzero;stroke:none"
         transform="matrix(0.13333333,0,0,-0.13333333,0,208.78667)" />
      <path
         id="path28"
         d="m 420.73,1502.1 c 0,-35.22 -28.542,-63.77 -63.765,-63.77 -35.227,0 -63.774,28.55 -63.774,63.77 0,35.22 28.547,63.77 63.774,63.77 35.223,0 63.765,-28.55 63.765,-63.77"
         style="fill:#ed192e;fill-opacity:1;fill-rule:nonzero;stroke:none"
         transform="matrix(0.13333333,0,0,-0.13333333,0,208.78667)" />
      <path
         id="path29"
         d="m 713.926,1285.85 c 0,-58 -47.016,-105.01 -105.02,-105.01 -58,0 -105.015,47.01 -105.015,105.01 0,58 47.015,105.02 105.015,105.02 58.004,0 105.02,-47.02 105.02,-105.02"
         style="fill:#ed192e;fill-opacity:1;fill-rule:nonzero;stroke:none"
         transform="matrix(0.13333333,0,0,-0.13333333,0,208.78667)" />
      <path
         id="path30"
         d="M 609.176,1032.8 H 104.75 v 90.56 h 504.426 v -90.56"
         style="fill:#ed192e;fill-opacity:1;fill-rule:nonzero;stroke:none"
         transform="matrix(0.13333333,0,0,-0.13333333,0,208.78667)" />
      <path
         id="path31"
         d="m 531.773,523.66 h 0.04 c 0.003,42.867 -0.04,0 -0.04,0"
         style="fill:#231f20;fill-opacity:1;fill-rule:nonzero;stroke:none"
         transform="matrix(0.13333333,0,0,-0.13333333,0,208.78667)" />
      <path
         id="path32"
         d="M 531.859,901.871 V 523.66 h -0.046 c -0.004,-17.25 -0.016,-48.32 -0.04,-101.75 C 531.684,235.711 373.293,191.398 268.844,228.809 207.07,250.93 186.746,320.488 180.445,373.648 h 0.016 V 901.871 H 1.0625 V 373.648 H 2.5 C 14.9414,130.91 144.672,78.8516 302.168,78.8516 c 155.098,0 221.809,119.1404 229.691,134.3594 V 99.2695 H 713.461 V 901.871 H 531.859"
         style="fill:#231f20;fill-opacity:1;fill-rule:nonzero;stroke:none"
         transform="matrix(0.13333333,0,0,-0.13333333,0,208.78667)" />
    </g>
  </g>
</svg>
